<svg width="1200" height="894" viewBox="0 0 1200 894" fill="none" xmlns="http://www.w3.org/2000/svg">
<path d="M0 0L1200 73.6247V861L0 787.375V0Z" fill="#F1F4F8"/>
<g opacity="0.05">
<circle cx="918.781" cy="136.781" r="4.78118" fill="#0191CE"/>
<circle cx="918.781" cy="171.984" r="4.78118" fill="#0191CE"/>
<circle cx="974.451" cy="136.781" r="4.78118" fill="#0191CE"/>
<circle cx="974.451" cy="171.984" r="4.78118" fill="#0191CE"/>
<circle cx="918.781" cy="154.54" r="4.78118" fill="#0191CE"/>
<circle cx="918.781" cy="189.743" r="4.78118" fill="#0191CE"/>
<circle cx="974.451" cy="154.54" r="4.78118" fill="#0191CE"/>
<circle cx="974.451" cy="189.743" r="4.78118" fill="#0191CE"/>
<circle cx="937.223" cy="136.781" r="4.78118" fill="#0191CE"/>
<circle cx="937.223" cy="171.984" r="4.78118" fill="#0191CE"/>
<circle cx="992.893" cy="136.781" r="4.78118" fill="#0191CE"/>
<circle cx="992.893" cy="171.984" r="4.78118" fill="#0191CE"/>
<circle cx="937.223" cy="154.54" r="4.78118" fill="#0191CE"/>
<circle cx="937.223" cy="189.743" r="4.78118" fill="#0191CE"/>
<circle cx="992.893" cy="154.54" r="4.78118" fill="#0191CE"/>
<circle cx="992.893" cy="189.743" r="4.78118" fill="#0191CE"/>
<circle cx="955.664" cy="136.781" r="4.78118" fill="#0191CE"/>
<circle cx="955.664" cy="171.984" r="4.78118" fill="#0191CE"/>
<circle cx="1011.33" cy="136.781" r="4.78118" fill="#0191CE"/>
<circle cx="1011.33" cy="171.984" r="4.78118" fill="#0191CE"/>
<circle cx="955.664" cy="154.54" r="4.78118" fill="#0191CE"/>
<circle cx="955.664" cy="189.743" r="4.78118" fill="#0191CE"/>
<circle cx="1011.33" cy="154.54" r="4.78118" fill="#0191CE"/>
<circle cx="1011.33" cy="189.743" r="4.78118" fill="#0191CE"/>
<circle cx="918.781" cy="208.006" r="4.78118" fill="#0191CE"/>
<circle cx="918.781" cy="243.209" r="4.78118" fill="#0191CE"/>
<circle cx="974.451" cy="208.006" r="4.78118" fill="#0191CE"/>
<circle cx="974.451" cy="243.209" r="4.78118" fill="#0191CE"/>
<circle cx="918.781" cy="225.765" r="4.78118" fill="#0191CE"/>
<circle cx="918.781" cy="260.968" r="4.78118" fill="#0191CE"/>
<circle cx="974.451" cy="225.765" r="4.78118" fill="#0191CE"/>
<circle cx="974.451" cy="260.968" r="4.78118" fill="#0191CE"/>
<circle cx="937.223" cy="208.006" r="4.78118" fill="#0191CE"/>
<circle cx="937.223" cy="243.209" r="4.78118" fill="#0191CE"/>
<circle cx="992.893" cy="208.006" r="4.78118" fill="#0191CE"/>
<circle cx="992.893" cy="243.209" r="4.78118" fill="#0191CE"/>
<circle cx="937.223" cy="225.765" r="4.78118" fill="#0191CE"/>
<circle cx="937.223" cy="260.968" r="4.78118" fill="#0191CE"/>
<circle cx="992.893" cy="225.765" r="4.78118" fill="#0191CE"/>
<circle cx="992.893" cy="260.968" r="4.78118" fill="#0191CE"/>
<circle cx="955.664" cy="208.006" r="4.78118" fill="#0191CE"/>
<circle cx="955.664" cy="243.209" r="4.78118" fill="#0191CE"/>
<circle cx="1011.33" cy="208.006" r="4.78118" fill="#0191CE"/>
<circle cx="1011.33" cy="243.209" r="4.78118" fill="#0191CE"/>
<circle cx="955.664" cy="225.765" r="4.78118" fill="#0191CE"/>
<circle cx="955.664" cy="260.968" r="4.78118" fill="#0191CE"/>
<circle cx="1011.33" cy="225.765" r="4.78118" fill="#0191CE"/>
<circle cx="1011.33" cy="260.968" r="4.78118" fill="#0191CE"/>
<circle cx="1027.67" cy="136.781" r="4.78118" fill="#0191CE"/>
<circle cx="1027.67" cy="171.984" r="4.78118" fill="#0191CE"/>
<circle cx="1083.34" cy="136.781" r="4.78118" fill="#0191CE"/>
<circle cx="1083.34" cy="171.984" r="4.78118" fill="#0191CE"/>
<circle cx="1027.67" cy="154.54" r="4.78118" fill="#0191CE"/>
<circle cx="1027.67" cy="189.743" r="4.78118" fill="#0191CE"/>
<circle cx="1083.34" cy="154.54" r="4.78118" fill="#0191CE"/>
<circle cx="1083.34" cy="189.743" r="4.78118" fill="#0191CE"/>
<circle cx="1046.11" cy="136.781" r="4.78118" fill="#0191CE"/>
<circle cx="1046.11" cy="171.984" r="4.78118" fill="#0191CE"/>
<circle cx="1101.78" cy="136.781" r="4.78118" fill="#0191CE"/>
<circle cx="1101.78" cy="171.984" r="4.78118" fill="#0191CE"/>
<circle cx="1046.11" cy="154.54" r="4.78118" fill="#0191CE"/>
<circle cx="1046.11" cy="189.743" r="4.78118" fill="#0191CE"/>
<circle cx="1101.78" cy="154.54" r="4.78118" fill="#0191CE"/>
<circle cx="1101.78" cy="189.743" r="4.78118" fill="#0191CE"/>
<circle cx="1064.55" cy="136.781" r="4.78118" fill="#0191CE"/>
<circle cx="1064.55" cy="171.984" r="4.78118" fill="#0191CE"/>
<circle cx="1120.22" cy="136.781" r="4.78118" fill="#0191CE"/>
<circle cx="1120.22" cy="171.984" r="4.78118" fill="#0191CE"/>
<circle cx="1064.55" cy="154.54" r="4.78118" fill="#0191CE"/>
<circle cx="1064.55" cy="189.743" r="4.78118" fill="#0191CE"/>
<circle cx="1120.22" cy="154.54" r="4.78118" fill="#0191CE"/>
<circle cx="1120.22" cy="189.743" r="4.78118" fill="#0191CE"/>
<circle cx="1027.67" cy="208.006" r="4.78118" fill="#0191CE"/>
<circle cx="1027.67" cy="243.209" r="4.78118" fill="#0191CE"/>
<circle cx="1083.34" cy="208.006" r="4.78118" fill="#0191CE"/>
<circle cx="1083.34" cy="243.209" r="4.78118" fill="#0191CE"/>
<circle cx="1027.67" cy="225.765" r="4.78118" fill="#0191CE"/>
<circle cx="1027.67" cy="260.968" r="4.78118" fill="#0191CE"/>
<circle cx="1083.34" cy="225.765" r="4.78118" fill="#0191CE"/>
<circle cx="1083.34" cy="260.968" r="4.78118" fill="#0191CE"/>
<circle cx="1046.11" cy="208.006" r="4.78118" fill="#0191CE"/>
<circle cx="1046.11" cy="243.209" r="4.78118" fill="#0191CE"/>
<circle cx="1101.78" cy="208.006" r="4.78118" fill="#0191CE"/>
<circle cx="1101.78" cy="243.209" r="4.78118" fill="#0191CE"/>
<circle cx="1046.11" cy="225.765" r="4.78118" fill="#0191CE"/>
<circle cx="1046.11" cy="260.968" r="4.78118" fill="#0191CE"/>
<circle cx="1101.78" cy="225.765" r="4.78118" fill="#0191CE"/>
<circle cx="1101.78" cy="260.968" r="4.78118" fill="#0191CE"/>
<circle cx="1064.55" cy="208.006" r="4.78118" fill="#0191CE"/>
<circle cx="1064.55" cy="243.209" r="4.78118" fill="#0191CE"/>
<circle cx="1120.22" cy="208.006" r="4.78118" fill="#0191CE"/>
<circle cx="1120.22" cy="243.209" r="4.78118" fill="#0191CE"/>
<circle cx="1064.55" cy="225.765" r="4.78118" fill="#0191CE"/>
<circle cx="1064.55" cy="260.968" r="4.78118" fill="#0191CE"/>
<circle cx="1120.22" cy="225.765" r="4.78118" fill="#0191CE"/>
<circle cx="1120.22" cy="260.968" r="4.78118" fill="#0191CE"/>
</g>
</svg>
