<svg width="85" height="57" viewBox="0 0 85 57" fill="none" xmlns="http://www.w3.org/2000/svg">
<path d="M6.04823 22.4857C4.95308 22.4857 3.88281 22.3861 2.83744 22.187C2.28986 22.0625 1.8294 21.9132 1.45605 21.739C1.1076 21.5647 0.796475 21.4278 0.522686 21.3283C0.174229 21.1541 0 20.9549 0 20.7309C0 20.6314 0.0746695 20.5816 0.224008 20.5816C0.273788 20.5816 0.323568 20.5816 0.373347 20.5816C0.423127 20.5816 0.485352 20.6065 0.560021 20.6563C0.933369 20.8056 1.33161 20.9674 1.75473 21.1416C2.17786 21.3158 2.61343 21.4278 3.06145 21.4776C3.26057 21.5025 3.52191 21.5274 3.84548 21.5523C4.16905 21.5772 4.50506 21.5896 4.85352 21.5896C5.52554 21.5896 6.22246 21.5398 6.94426 21.4403C7.66607 21.3158 8.27587 21.1167 8.77367 20.8429C9.27146 20.5443 9.52036 20.1211 9.52036 19.5735C9.52036 19.2749 9.32124 18.9015 8.923 18.4535C8.52477 18.0055 8.01453 17.4952 7.39228 16.9228C6.77003 16.3254 6.1229 15.6783 5.45087 14.9814C4.80374 14.2845 4.23127 13.5502 3.73347 12.7786C3.28546 12.0568 2.89967 11.2977 2.5761 10.5012C2.27742 9.67984 2.12808 8.84603 2.12808 7.99978C2.12808 6.65573 2.4392 5.49835 3.06145 4.52765C3.70858 3.55694 4.55484 2.76047 5.60021 2.13822C6.67047 1.51598 7.81541 1.05551 9.03501 0.756837C10.2795 0.433269 11.4991 0.271484 12.6938 0.271484C13.2912 0.271484 13.8512 0.308819 14.3739 0.383488C15.0459 0.458158 15.7677 0.632388 16.5393 0.906177C17.3358 1.15507 18.0078 1.54087 18.5554 2.06355C19.1278 2.58624 19.4141 3.28315 19.4141 4.1543C19.4141 5.07522 19.1278 5.95881 18.5554 6.80507C17.9829 7.65132 17.2735 8.39801 16.4273 9.04515C15.6059 9.66739 14.797 10.1403 14.0005 10.4639C13.8512 10.5136 13.7267 10.5385 13.6272 10.5385C13.453 10.5385 13.3658 10.5012 13.3658 10.4265C13.3658 10.3768 13.4281 10.3145 13.5525 10.2399C13.677 10.1403 13.7516 10.0781 13.7765 10.0532C14.349 9.60517 14.8966 9.20693 15.4192 8.85848C15.9668 8.48513 16.4522 8.04956 16.8753 7.55176C17.3731 6.97929 17.734 6.43172 17.958 5.90903C18.2069 5.36145 18.3314 4.85121 18.3314 4.37831C18.3314 3.58183 17.9953 2.90981 17.3233 2.36223C16.6762 1.81465 15.7304 1.4662 14.4859 1.31686C14.2619 1.29197 14.0379 1.27952 13.8139 1.27952C13.5898 1.25463 13.3658 1.24219 13.1418 1.24219C11.972 1.24219 10.7897 1.41642 9.59503 1.76487C8.40032 2.08844 7.30517 2.57379 6.30957 3.22093C5.31398 3.84317 4.50506 4.58987 3.88281 5.46101C3.28546 6.33216 2.98678 7.31531 2.98678 8.41046C2.98678 9.67984 3.45969 11.0114 4.4055 12.4053C4.92819 13.152 5.55043 13.8738 6.27224 14.5707C6.99404 15.2676 7.7034 15.9396 8.40032 16.5868C9.12212 17.209 9.70703 17.8064 10.1551 18.3788C10.628 18.9513 10.8644 19.4864 10.8644 19.9842C10.8644 20.6065 10.628 21.1043 10.1551 21.4776C9.70703 21.851 9.10968 22.1123 8.36298 22.2617C7.64118 22.411 6.86959 22.4857 6.04823 22.4857Z" fill="#5E5E5E"/>
<path d="M18.9547 11.2479C18.6062 11.2479 18.3947 11.0363 18.32 10.6132C18.2951 10.4141 18.4195 10.215 18.6933 10.0159C18.9671 9.81673 19.1911 9.67984 19.3654 9.60517C19.4898 9.55539 19.5894 9.51806 19.664 9.49317C19.7387 9.46828 19.8009 9.45583 19.8507 9.45583C20.0249 9.45583 20.1121 9.54295 20.1121 9.71718C20.1121 9.91629 20.0374 10.1527 19.888 10.4265C19.7636 10.7003 19.7014 10.8372 19.7014 10.8372C19.6765 10.9368 19.5894 11.0363 19.44 11.1359C19.2907 11.2106 19.1289 11.2479 18.9547 11.2479ZM15.2212 22.2617C14.7732 22.2617 14.4496 22.1123 14.2505 21.8136C14.0514 21.515 13.9518 21.1416 13.9518 20.6936C13.9518 20.3451 13.9892 20.0091 14.0638 19.6856C14.1136 19.5362 14.2381 19.1629 14.4372 18.5655C14.6612 17.9682 14.9474 17.3086 15.2959 16.5868C15.6692 15.865 16.0675 15.2427 16.4906 14.72C16.9137 14.1725 17.3493 13.8987 17.7973 13.8987C17.9964 13.8987 18.096 13.9484 18.096 14.048C18.096 14.1476 18.0462 14.2471 17.9466 14.3467C17.4488 14.944 16.9759 15.6534 16.5279 16.4748C16.1048 17.2712 15.7439 18.0304 15.4452 18.7522C15.1714 19.474 15.0096 20.0216 14.9599 20.3949C14.8852 21.1914 15.1216 21.5896 15.6692 21.5896C15.7439 21.5896 15.8186 21.5896 15.8932 21.5896C15.9679 21.5647 16.055 21.5398 16.1546 21.515C16.6773 21.3407 17.1875 21.0172 17.6853 20.5443C18.1831 20.0713 18.6436 19.5487 19.0667 18.9762C19.4898 18.4037 19.8383 17.9059 20.1121 17.4828C20.2116 17.3832 20.2738 17.3335 20.2987 17.3335C20.3734 17.3335 20.4107 17.3957 20.4107 17.5201C20.4107 17.6446 20.3734 17.769 20.2987 17.8935C19.7512 18.7397 19.104 19.5735 18.3573 20.3949C17.6355 21.2163 16.9137 21.7639 16.1919 22.0376C15.8186 22.187 15.495 22.2617 15.2212 22.2617Z" fill="#5E5E5E"/>
<path d="M18.7175 32.566C18.0206 32.566 17.5228 32.3296 17.2242 31.8567C17.0748 31.5829 17.0001 31.2967 17.0001 30.998C17.0001 30.6744 17.0624 30.3384 17.1868 29.9899C17.3113 29.6664 17.4731 29.3304 17.6722 28.9819C18.0206 28.4094 18.4313 27.8494 18.9042 27.3018C19.3771 26.7543 19.8376 26.2565 20.2856 25.8084C20.7585 25.3604 21.1443 25.012 21.443 24.7631C21.9657 24.3399 22.5755 23.8422 23.2724 23.2697C23.9942 22.6972 24.7284 22.2119 25.4751 21.8136C25.5249 21.7887 25.5747 21.7763 25.6245 21.7763C25.6991 21.7763 25.7365 21.8136 25.7365 21.8883C25.7365 22.0376 25.6742 22.1372 25.5498 22.187C25.2262 22.3612 24.8155 22.6226 24.3178 22.971C23.82 23.3444 23.3346 23.7177 22.8617 24.091C22.3888 24.4893 21.9781 24.8377 21.6297 25.1364C21.3808 25.3604 21.0447 25.6964 20.6216 26.1445C20.1985 26.5925 19.7754 27.0903 19.3522 27.6379C18.9042 28.2103 18.5309 28.7828 18.2322 29.3553C18.1326 29.5544 18.0206 29.8157 17.8962 30.1393C17.7717 30.4877 17.7095 30.8113 17.7095 31.11C17.7095 31.3589 17.7842 31.558 17.9335 31.7073C18.058 31.8816 18.282 31.9687 18.6055 31.9687C19.1282 31.9687 19.6509 31.782 20.1736 31.4087C20.7212 31.0602 21.2314 30.6246 21.7043 30.1019C22.2021 29.5793 22.6501 29.0441 23.0484 28.4966C23.4466 27.9739 23.7577 27.5134 23.9817 27.1152C24.8778 25.6467 25.5747 24.0164 26.0725 22.2243C26.5952 20.4571 26.7943 18.802 26.6698 17.2588C26.645 17.0846 26.6201 16.9228 26.5952 16.7734C26.5703 16.5992 26.5329 16.425 26.4832 16.2508C26.4334 16.3254 26.3836 16.4001 26.3338 16.4748C26.2841 16.5494 26.2218 16.6365 26.1472 16.7361C25.9729 17.1095 25.7365 17.5326 25.4378 18.0055C25.1391 18.4535 24.8529 18.8642 24.5791 19.2375C24.3302 19.6109 24.156 19.8598 24.0564 19.9842C23.4591 20.706 22.899 21.2287 22.3763 21.5523C21.8786 21.8759 21.443 22.0376 21.0696 22.0376C20.5718 22.0376 20.186 21.8261 19.9123 21.403C19.6385 20.9549 19.5016 20.4198 19.5016 19.7976C19.5016 18.6526 19.9371 17.3832 20.8083 15.9894C21.2314 15.3423 21.8163 14.7449 22.563 14.1973C23.3097 13.6249 24.044 13.3386 24.7658 13.3386C25.3631 13.3386 25.8734 13.5875 26.2965 14.0853C26.3712 14.1849 26.3836 14.3093 26.3338 14.4587C26.3089 14.5831 26.2467 14.5956 26.1472 14.496C26.0476 14.3467 25.8858 14.2471 25.6618 14.1973C25.4627 14.1476 25.2636 14.1227 25.0644 14.1227C24.4422 14.1227 23.8697 14.3467 23.347 14.7947C22.8244 15.2178 22.3639 15.7281 21.9657 16.3254C21.5923 16.8979 21.2812 17.433 21.0323 17.9308C20.4847 19.026 20.2109 19.8971 20.2109 20.5443C20.2109 21.2163 20.4598 21.5523 20.9576 21.5523C21.2812 21.5523 21.667 21.4029 22.115 21.1043C22.5879 20.7807 23.0982 20.2705 23.6457 19.5735C23.7702 19.4242 23.9817 19.1504 24.2804 18.7522C24.5791 18.3291 24.9027 17.8313 25.2511 17.2588C25.5996 16.6863 25.8983 16.1263 26.1472 15.5787C26.1472 15.5538 26.1472 15.5414 26.1472 15.5414C26.172 15.5414 26.1845 15.5289 26.1845 15.5041C26.1596 15.4792 26.1223 15.4169 26.0725 15.3174V15.2801C26.0725 15.1805 26.1845 15.1307 26.4085 15.1307C26.6076 15.1307 26.757 15.1805 26.8565 15.2801C27.1552 15.5289 27.3668 15.9147 27.4912 16.4374C27.6405 16.9352 27.7152 17.5077 27.7152 18.1548C27.7152 19.0011 27.6157 19.922 27.4165 20.9176C27.2174 21.8883 26.9561 22.8341 26.6325 23.755C26.3338 24.676 25.9854 25.4973 25.5871 26.2191C25.1391 27.1152 24.604 27.9739 23.9817 28.7952C23.3844 29.6415 22.7372 30.3757 22.0403 30.998C21.3683 31.6202 20.6963 32.0558 20.0243 32.3047C19.5762 32.4789 19.1407 32.566 18.7175 32.566Z" fill="#5E5E5E"/>
<path d="M29.1322 22.1496C29.0575 22.1496 28.9828 22.0999 28.9082 22.0003C28.7091 21.7763 28.6095 21.4154 28.6095 20.9176C28.6095 20.3949 28.6966 19.81 28.8708 19.1629C29.07 18.4908 29.294 17.881 29.5429 17.3335C29.7918 16.8108 30.0158 16.3503 30.2149 15.9521C30.4389 15.5538 30.5882 15.3049 30.6629 15.2054C30.9367 14.8569 31.2229 14.5707 31.5216 14.3467C31.8203 14.1227 32.119 14.0107 32.4176 14.0107C32.567 14.0107 32.679 14.048 32.7537 14.1227C32.8532 14.1973 32.8657 14.2596 32.791 14.3093C32.5919 14.4089 32.3305 14.6827 32.007 15.1307C31.6834 15.5538 31.3474 16.0516 30.9989 16.6241C30.7749 17.0223 30.4887 17.5575 30.1402 18.2295C29.7918 18.9015 29.5926 19.474 29.5429 19.9469C29.5429 20.146 29.5926 20.2331 29.6922 20.2082L30.6256 18.6775C31.1483 17.8064 31.8327 16.9477 32.679 16.1014C33.5252 15.2552 34.4337 14.5582 35.4044 14.0107C35.504 13.9609 35.6035 13.9236 35.7031 13.8987C35.8275 13.8738 35.9395 13.8613 36.0391 13.8613C36.2631 13.8613 36.3751 13.936 36.3751 14.0853C36.3751 14.1351 36.3129 14.2596 36.1884 14.4587C35.6658 15.1556 35.2551 15.8899 34.9564 16.6614C34.6577 17.4081 34.4711 18.2295 34.3964 19.1255C34.3715 19.6731 34.4213 20.1833 34.5457 20.6563C34.6951 21.1043 35.0062 21.3283 35.4791 21.3283C36.0267 21.3283 36.5494 21.1043 37.0471 20.6563C37.5449 20.2082 38.0054 19.6856 38.4285 19.0882C38.8765 18.4659 39.2623 17.9184 39.5859 17.4455C39.6357 17.3708 39.673 17.3335 39.6979 17.3335C39.7726 17.3335 39.8099 17.4081 39.8099 17.5575C39.8099 17.6819 39.7601 17.8313 39.6606 18.0055C39.2872 18.5531 38.8765 19.138 38.4285 19.7602C37.9805 20.3825 37.4827 20.9052 36.9351 21.3283C36.4125 21.7514 35.8151 21.963 35.1431 21.963C34.5208 21.963 34.0728 21.7265 33.799 21.2536C33.5252 20.7807 33.3883 20.2082 33.3883 19.5362C33.3883 18.8144 33.5003 18.0428 33.7244 17.2215C33.9733 16.4001 34.2595 15.7156 34.5831 15.168C33.9359 15.641 33.2639 16.2383 32.567 16.9601C31.8701 17.657 31.2727 18.4037 30.7749 19.2002C30.6007 19.5238 30.3642 19.9345 30.0656 20.4322C29.7669 20.93 29.5678 21.3283 29.4682 21.627C29.4433 21.7265 29.4184 21.8136 29.3935 21.8883C29.3686 21.9381 29.3437 21.9879 29.3189 22.0376C29.294 22.1123 29.2317 22.1496 29.1322 22.1496Z" fill="#5E5E5E"/>
<path d="M45.5055 22.2617C45.0575 22.2617 44.7215 22.1123 44.4975 21.8136C44.2984 21.515 44.1988 21.1292 44.1988 20.6563C44.1988 20.3327 44.2361 20.0091 44.3108 19.6856C44.3357 19.6358 44.373 19.5238 44.4228 19.3495C44.4726 19.1504 44.5472 18.9264 44.6468 18.6775C44.2984 19.2251 43.8503 19.8349 43.3028 20.5069C42.7801 21.1541 42.1952 21.6394 41.548 21.963C41.1747 22.1372 40.8013 22.2243 40.428 22.2243C39.9302 22.2243 39.532 22.0376 39.2333 21.6643C38.9346 21.2661 38.7853 20.7185 38.7853 20.0216C38.7853 19.4491 38.9097 18.8393 39.1586 18.1922C39.4075 17.5201 39.7684 16.8357 40.2413 16.1388C40.54 15.6907 40.9258 15.2552 41.3987 14.832C41.8716 14.4089 42.3818 14.0605 42.9294 13.7867C43.477 13.5129 43.9997 13.376 44.4975 13.376C44.9953 13.376 45.4184 13.5129 45.7669 13.7867C46.1153 14.0605 46.302 14.4711 46.3269 15.0187C46.3269 15.0934 46.2895 15.1556 46.2149 15.2054C46.1651 15.2303 46.1153 15.1929 46.0655 15.0934C45.7669 14.4214 45.2815 14.0853 44.6095 14.0853C44.1615 14.0853 43.6886 14.2969 43.1908 14.72C42.693 15.1183 42.2076 15.6285 41.7347 16.2508C41.2618 16.873 40.8511 17.4952 40.5027 18.1175C40.204 18.6651 39.98 19.1629 39.8306 19.6109C39.7062 20.0589 39.644 20.4447 39.644 20.7683C39.644 21.4403 39.9053 21.7763 40.428 21.7763C40.7018 21.7763 41.0004 21.6892 41.324 21.515C41.6227 21.3407 41.9836 21.0296 42.4067 20.5816C42.8547 20.1336 43.2903 19.6358 43.7134 19.0882C44.1615 18.5406 44.5597 18.0055 44.9082 17.4828C45.2815 16.9601 45.5553 16.5494 45.7295 16.2508C46.1029 15.6285 46.4887 15.0809 46.8869 14.608C47.2851 14.1351 47.6834 13.8987 48.0816 13.8987C48.2807 13.8987 48.3803 13.9484 48.3803 14.048C48.3803 14.1476 48.3305 14.2471 48.2309 14.3467C47.7331 14.944 47.2602 15.6534 46.8122 16.4748C46.3891 17.2712 46.0282 18.0304 45.7295 18.7522C45.4557 19.474 45.2939 20.0216 45.2442 20.3949C45.1695 21.1914 45.4059 21.5896 45.9535 21.5896C46.0282 21.5896 46.1029 21.5896 46.1775 21.5896C46.2522 21.5647 46.3393 21.5398 46.4389 21.515C46.9616 21.3407 47.4718 21.0172 47.9696 20.5443C48.4674 20.0713 48.9279 19.5611 49.351 19.0135C49.7741 18.4411 50.1226 17.9433 50.3964 17.5201C50.471 17.4206 50.5333 17.3708 50.583 17.3708C50.6577 17.3708 50.695 17.433 50.695 17.5575C50.695 17.6321 50.6577 17.7317 50.583 17.8561C50.4088 18.105 50.247 18.3539 50.0977 18.6028C49.9483 18.8269 49.799 19.0384 49.6497 19.2375C49.5999 19.3371 49.5377 19.4242 49.463 19.4989C49.3883 19.5735 49.3137 19.6607 49.239 19.7602C48.9154 20.1585 48.4923 20.594 47.9696 21.0669C47.4718 21.515 46.974 21.8385 46.4762 22.0376C46.1029 22.187 45.7793 22.2617 45.5055 22.2617Z" fill="#5E5E5E"/>
<path d="M50.621 22.2617C50.1729 22.2617 49.8494 22.1123 49.6502 21.8136C49.4511 21.515 49.3516 21.1416 49.3516 20.6936C49.3516 20.3451 49.3889 20.0091 49.4636 19.6856C49.5382 19.3371 49.7747 18.7646 50.1729 17.9682C50.5712 17.1468 51.0067 16.2881 51.4797 15.3921C51.2308 15.4916 50.957 15.6036 50.6583 15.7281C50.3845 15.8276 50.1854 15.9396 50.0609 16.0641C49.9614 16.1139 49.8991 16.1388 49.8743 16.1388C49.7996 16.1388 49.7623 16.089 49.7623 15.9894C49.7623 15.7654 49.8991 15.5538 50.1729 15.3547C50.4467 15.1556 50.7081 15.0187 50.957 14.944C51.2308 14.8694 51.5419 14.7823 51.8903 14.6827C52.1641 14.1849 52.4504 13.6747 52.749 13.152C53.0726 12.6044 53.3588 12.1315 53.6077 11.7333C53.782 11.4844 54.0309 11.1732 54.3544 10.7999C54.678 10.4016 55.0389 10.0781 55.4371 9.82918C55.6611 9.67984 55.9598 9.60517 56.3332 9.60517C56.607 9.60517 56.7563 9.65495 56.7812 9.75451C56.4078 9.85407 56.022 10.103 55.6238 10.5012C55.2505 10.8994 54.8896 11.3599 54.5411 11.8826C54.1926 12.4053 53.894 12.9031 53.6451 13.376C53.3962 13.824 53.2095 14.1725 53.085 14.4214C53.6077 14.3467 54.0433 14.3093 54.3918 14.3093C54.5909 14.3093 54.7651 14.3218 54.9144 14.3467C55.0638 14.3467 55.1882 14.3591 55.2878 14.384C55.4869 14.4089 55.5865 14.4711 55.5865 14.5707C55.5865 14.6703 55.462 14.72 55.2131 14.72C55.014 14.72 54.7776 14.72 54.5038 14.72C54.2549 14.72 53.9811 14.7449 53.6824 14.7947C53.4584 14.8196 53.2219 14.8943 52.973 15.0187C52.749 15.1432 52.5997 15.2801 52.525 15.4294C51.9774 16.425 51.4921 17.3832 51.069 18.3042C50.6458 19.2251 50.4094 19.922 50.3596 20.3949C50.2849 21.1914 50.5214 21.5896 51.069 21.5896C51.6165 21.5896 52.1641 21.3532 52.7117 20.8803C53.2842 20.3825 53.8193 19.81 54.3171 19.1629C54.8149 18.5157 55.2131 17.9682 55.5118 17.5201C55.6114 17.4206 55.6736 17.3708 55.6985 17.3708C55.7731 17.3708 55.8105 17.433 55.8105 17.5575C55.8105 17.657 55.7731 17.769 55.6985 17.8935C55.2754 18.5406 54.79 19.2002 54.2424 19.8722C53.6948 20.5443 53.1099 21.1167 52.4877 21.5896C51.8903 22.0376 51.2681 22.2617 50.621 22.2617Z" fill="#5E5E5E"/>
<path d="M55.8373 22.2617C55.3893 22.2617 55.0657 22.1123 54.8666 21.8136C54.6675 21.515 54.5679 21.1416 54.5679 20.6936C54.5679 20.3451 54.6053 20.0091 54.6799 19.6856C54.7297 19.5362 54.8542 19.1629 55.0533 18.5655C55.2773 17.9682 55.5635 17.3086 55.912 16.5868C56.2853 15.865 56.6836 15.2427 57.1067 14.72C57.5298 14.1725 57.9654 13.8987 58.4134 13.8987C58.6125 13.8987 58.7121 13.9484 58.7121 14.048C58.7121 14.1476 58.6623 14.2471 58.5628 14.3467C58.065 14.944 57.592 15.6534 57.144 16.4748C56.7209 17.2712 56.36 18.0304 56.0613 18.7522C55.7875 19.474 55.6258 20.0216 55.576 20.3949C55.5013 21.1914 55.7378 21.5896 56.2853 21.5896C56.7582 21.5896 57.256 21.3781 57.7787 20.9549C58.3263 20.5069 58.849 19.9469 59.3468 19.2749C59.8695 18.578 60.3175 17.8562 60.6908 17.1095C61.0891 16.3379 61.5246 15.6161 61.9975 14.944C62.4705 14.2471 62.9558 13.8987 63.4536 13.8987C63.6527 13.8987 63.7523 13.9484 63.7523 14.048C63.7523 14.1476 63.7025 14.2471 63.6029 14.3467C63.1051 14.944 62.6322 15.6534 62.1842 16.4748C61.7611 17.2712 61.4002 18.0304 61.1015 18.7522C60.8277 19.474 60.6659 20.0216 60.6162 20.3949C60.5415 21.1914 60.7779 21.5896 61.3255 21.5896C61.8731 21.5896 62.4331 21.3407 63.0056 20.8429C63.5781 20.3451 64.1132 19.7727 64.611 19.1255C65.1088 18.4784 65.507 17.9308 65.8057 17.4828C65.9053 17.3832 65.9675 17.3335 65.9924 17.3335C66.067 17.3335 66.1044 17.3957 66.1044 17.5201C66.1044 17.6197 66.067 17.7317 65.9924 17.8561C65.5941 18.5033 65.1088 19.1753 64.5363 19.8722C63.9887 20.5443 63.4038 21.1167 62.7816 21.5896C62.1593 22.0376 61.5246 22.2617 60.8775 22.2617C60.4295 22.2617 60.1059 22.1123 59.9068 21.8136C59.7077 21.515 59.6081 21.1416 59.6081 20.6936C59.6081 20.3451 59.6455 20.0091 59.7201 19.6856L59.7948 19.3495C59.3219 19.9718 58.8241 20.5318 58.3014 21.0296C57.8036 21.5274 57.3058 21.8634 56.808 22.0376C56.4347 22.187 56.1111 22.2617 55.8373 22.2617Z" fill="#5E5E5E"/>
<path d="M68.7697 22.2243C68.3466 22.2243 68.0106 22.0874 67.7617 21.8136C67.5377 21.515 67.4257 21.1665 67.4257 20.7683C67.4257 20.3949 67.5128 20.034 67.687 19.6856C67.9608 19.1131 68.3093 18.5531 68.7324 18.0055C69.1804 17.433 69.5911 16.9352 69.9644 16.5121C70.2133 16.1885 70.3378 15.9147 70.3378 15.6907C70.3378 15.3921 70.1511 15.0934 69.7778 14.7947C69.4791 14.5956 69.2053 14.3342 68.9564 14.0107C68.7822 13.7618 68.6577 13.5129 68.583 13.264C68.1848 14.0853 67.6746 15.0436 67.0523 16.1388C66.455 17.209 65.8327 18.1673 65.1856 19.0135C65.086 19.1629 64.9865 19.2375 64.8869 19.2375C64.8122 19.2375 64.7749 19.1878 64.7749 19.0882C64.7749 19.0384 64.7874 18.9886 64.8122 18.9389C64.8371 18.8891 64.9118 18.7771 65.0362 18.6028C65.6834 17.7068 66.2061 16.873 66.6043 16.1014C67.0025 15.3298 67.351 14.608 67.6497 13.936L68.471 12.1066C68.4959 12.0568 68.5208 11.9946 68.5457 11.9199C68.5955 11.8204 68.6328 11.7581 68.6577 11.7333C68.7075 11.6835 68.7573 11.6586 68.8071 11.6586C68.9066 11.6586 68.9813 11.7084 69.0311 11.8079C69.0808 11.9075 69.0808 12.0319 69.0311 12.1813C68.9813 12.4551 69.0186 12.7288 69.1431 13.0026C69.2675 13.2764 69.4293 13.5253 69.6284 13.7493C69.8275 13.9484 70.1138 14.1351 70.4871 14.3093C70.8605 14.4836 71.1965 14.6827 71.4952 14.9067C71.7938 15.1307 71.9058 15.4169 71.8312 15.7654C71.7316 16.2383 71.4703 16.6988 71.0471 17.1468C70.624 17.5948 70.2009 18.0677 69.7778 18.5655C69.4791 18.8891 69.2053 19.2126 68.9564 19.5362C68.7324 19.8598 68.5582 20.1958 68.4337 20.5443C68.4088 20.6189 68.3839 20.6936 68.359 20.7683C68.359 20.8429 68.359 20.9176 68.359 20.9923C68.359 21.4403 68.5955 21.6643 69.0684 21.6643C69.2177 21.6643 69.4044 21.627 69.6284 21.5523C70.2507 21.3283 70.8231 20.9549 71.3458 20.4322C71.8934 19.9096 72.3539 19.3869 72.7272 18.8642C73.1254 18.3415 73.3868 17.9806 73.5112 17.7815C73.7104 17.4828 73.8348 17.3335 73.8846 17.3335C73.9593 17.3335 73.9966 17.3957 73.9966 17.5201C73.9966 17.6446 73.9593 17.769 73.8846 17.8935C73.337 18.7646 72.7148 19.586 72.0178 20.3576C71.3209 21.1292 70.5742 21.6767 69.7778 22.0003C69.4044 22.1496 69.0684 22.2243 68.7697 22.2243Z" fill="#5E5E5E"/>
<path d="M76.1215 22.299C75.101 22.299 74.3543 22.075 73.8814 21.627C73.4085 21.1541 73.172 20.5318 73.172 19.7602C73.172 19.5611 73.1845 19.362 73.2094 19.1629C73.2591 18.9389 73.3089 18.7148 73.3587 18.4908C73.4831 18.0428 73.6823 17.5201 73.956 16.9228C74.2547 16.3254 74.6156 15.7405 75.0387 15.168C75.4619 14.5956 75.9223 14.1227 76.4201 13.7493C76.9179 13.376 77.4406 13.1893 77.9882 13.1893C78.4362 13.1893 78.7722 13.3511 78.9962 13.6747C79.2451 13.9982 79.3696 14.384 79.3696 14.832C79.3696 15.3049 79.2202 15.7903 78.9216 16.2881C78.6478 16.761 78.2744 17.1468 77.8015 17.4455C77.2539 17.8188 76.6317 18.0055 75.9348 18.0055C75.4868 18.0055 75.0761 17.9184 74.7027 17.7441C74.3294 18.4908 74.1427 19.2251 74.1427 19.9469C74.1427 20.4696 74.2921 20.9176 74.5907 21.2909C74.8894 21.6643 75.3872 21.851 76.0841 21.851C76.9304 21.851 77.6771 21.6518 78.3242 21.2536C78.9713 20.8305 79.5687 20.2829 80.1163 19.6109C80.6887 18.9389 81.2363 18.2171 81.759 17.4455C81.8337 17.3708 81.8835 17.3335 81.9083 17.3335C81.983 17.3335 82.0203 17.3957 82.0203 17.5201C82.0203 17.6446 81.983 17.769 81.9083 17.8935C81.4603 18.5904 80.9501 19.2749 80.3776 19.9469C79.83 20.6189 79.2078 21.1789 78.5109 21.627C77.814 22.075 77.0175 22.299 76.1215 22.299ZM75.5614 17.4828C76.2086 17.4828 76.8184 17.2588 77.3908 16.8108C77.6646 16.6117 77.9011 16.3752 78.1002 16.1014C78.2993 15.8276 78.4362 15.5538 78.5109 15.2801C78.5855 15.0063 78.6229 14.7698 78.6229 14.5707C78.6229 13.9982 78.4113 13.712 77.9882 13.712C77.7144 13.712 77.4033 13.8738 77.0548 14.1973C76.7561 14.4711 76.445 14.8196 76.1215 15.2427C75.8228 15.6658 75.5614 16.0765 75.3374 16.4748C75.1134 16.8481 74.9641 17.1219 74.8894 17.2961C75.0636 17.4206 75.2877 17.4828 75.5614 17.4828Z" fill="#5E5E5E"/>
<path d="M24.8645 47.3766C24.1178 47.3766 23.396 47.3268 22.6991 47.2272C22.0271 47.1526 21.4048 47.0281 20.8324 46.8539C19.8368 46.5303 19.115 46.0948 18.667 45.5472C18.2438 44.9747 18.0323 44.3276 18.0323 43.6058C18.0323 42.6849 18.3185 41.6644 18.891 40.5443C19.4883 39.3994 20.2599 38.2296 21.2057 37.0349C22.1515 35.8401 23.1969 34.6703 24.3418 33.5254C25.4868 32.3556 26.6317 31.2604 27.7766 30.2399C28.9465 29.2195 30.0167 28.3359 30.9874 27.5892C31.9581 26.8425 32.7297 26.2825 33.3022 25.9091C33.0533 25.7847 32.7919 25.6851 32.5181 25.6104C32.2692 25.5358 32.0079 25.4486 31.7341 25.3491C30.4647 25.0006 29.1207 24.7517 27.702 24.6024C26.2832 24.453 24.9267 24.3784 23.6325 24.3784C23.3836 24.3784 23.1471 24.3908 22.9231 24.4157C22.6991 24.4157 22.4751 24.4157 22.2511 24.4157C20.5337 24.4904 19.2021 24.7019 18.2563 25.0504C17.3353 25.3989 16.7878 25.7847 16.6135 26.2078C16.5638 26.3571 16.5389 26.4816 16.5389 26.5811C16.5389 27.0043 16.7753 27.3776 17.2482 27.7012C17.746 27.9999 18.2812 28.2363 18.8536 28.4105C19.4261 28.5848 19.8492 28.6843 20.123 28.7092C20.2475 28.7341 20.2972 28.8088 20.2723 28.9332C20.2723 29.0577 20.2101 29.1199 20.0857 29.1199C19.8368 29.0701 19.4385 28.9954 18.891 28.8959C18.3683 28.7714 17.8207 28.5972 17.2482 28.3732C16.6758 28.1492 16.1904 27.8878 15.7922 27.5892C15.3939 27.2656 15.1948 26.9047 15.1948 26.5065C15.1948 26.3571 15.2322 26.2078 15.3068 26.0584C15.5557 25.486 16.1904 25.0006 17.2109 24.6024C18.2563 24.1793 19.7248 23.9304 21.6164 23.8557C21.8155 23.8557 22.0271 23.8557 22.2511 23.8557C22.4751 23.8308 22.6991 23.8184 22.9231 23.8184C24.4165 23.8184 25.9846 23.9055 27.6273 24.0797C29.27 24.2539 30.8132 24.5526 32.2568 24.9757C32.8293 25.1251 33.4017 25.3117 33.9742 25.5358C34.5964 25.2371 35.2934 24.9882 36.0649 24.7891C36.8614 24.5651 37.5708 24.4531 38.193 24.4531C38.5415 24.4531 38.8402 24.4904 39.0891 24.5651C39.3628 24.6397 39.5246 24.7517 39.5744 24.9011C39.6491 24.9508 39.6864 25.0131 39.6864 25.0877C39.6864 25.0877 39.674 25.0877 39.6491 25.0877C39.6491 25.0629 39.6491 25.038 39.6491 25.0131L39.5744 24.9011C39.4251 24.7766 39.1762 24.7144 38.8277 24.7144C38.3797 24.7144 37.7948 24.814 37.073 25.0131C36.3761 25.1873 35.6294 25.4735 34.8329 25.8718L34.7956 25.9091C37.0108 26.9296 38.6535 28.2861 39.7238 29.9786C40.794 31.6711 41.3291 33.4383 41.3291 35.2801C41.3291 37.0473 40.8313 38.7771 39.8358 40.4697C38.8402 42.1622 37.3592 43.5684 35.3929 44.6885C33.8498 45.5596 32.1324 46.2192 30.2407 46.6672C28.374 47.1401 26.5819 47.3766 24.8645 47.3766ZM25.0512 46.8912C26.6441 46.8912 28.3242 46.6423 30.0914 46.1445C31.8586 45.6467 33.464 44.9125 34.9076 43.9418C36.625 42.772 37.8943 41.403 38.7157 39.835C39.562 38.2669 39.9851 36.6864 39.9851 35.0935C39.9851 33.3263 39.4997 31.6587 38.529 30.0906C37.5583 28.4976 36.1023 27.2283 34.1609 26.2825C33.5635 26.6807 32.7919 27.2656 31.8461 28.0372C30.9003 28.7839 29.8674 29.6675 28.7473 30.688C27.6522 31.6835 26.5446 32.7538 25.4245 33.8987C24.3294 35.0188 23.3214 36.1637 22.4004 37.3335C21.5044 38.5034 20.7701 39.6234 20.1977 40.6937C19.6501 41.7639 19.3763 42.7346 19.3763 43.6058C19.3763 44.1782 19.5257 44.7009 19.8243 45.1738C20.123 45.6218 20.6084 45.9828 21.2804 46.2565C21.7782 46.4806 22.3506 46.6423 22.9978 46.7419C23.6449 46.8415 24.3294 46.8912 25.0512 46.8912Z" fill="#5E5E5E"/>
<path d="M44.6479 46.1819C43.6274 46.1819 42.8807 45.9579 42.4078 45.5098C41.9349 45.0369 41.6984 44.4147 41.6984 43.6431C41.6984 43.444 41.7109 43.2449 41.7357 43.0458C41.7855 42.8217 41.8353 42.5977 41.8851 42.3737C42.0095 41.9257 42.2087 41.403 42.4824 40.8057C42.7811 40.2083 43.142 39.6234 43.5651 39.0509C43.9883 38.4785 44.4487 38.0056 44.9465 37.6322C45.4443 37.2589 45.967 37.0722 46.5146 37.0722C46.9626 37.0722 47.2986 37.234 47.5226 37.5575C47.7715 37.8811 47.896 38.2669 47.896 38.7149C47.896 39.1878 47.7466 39.6732 47.448 40.171C47.1742 40.6439 46.8008 41.0297 46.3279 41.3284C45.7803 41.7017 45.1581 41.8884 44.4612 41.8884C44.0132 41.8884 43.6025 41.8013 43.2291 41.627C42.8558 42.3737 42.6691 43.108 42.6691 43.8298C42.6691 44.3525 42.8185 44.8005 43.1171 45.1738C43.4158 45.5472 43.9136 45.7339 44.6105 45.7339C45.4568 45.7339 46.2035 45.5347 46.8506 45.1365C47.4977 44.7134 48.0951 44.1658 48.6427 43.4938C49.2151 42.8217 49.7627 42.0999 50.2854 41.3284C50.3601 41.2537 50.4098 41.2164 50.4347 41.2164C50.5094 41.2164 50.5467 41.2786 50.5467 41.403C50.5467 41.5275 50.5094 41.6519 50.4347 41.7764C49.9867 42.4733 49.4765 43.1578 48.904 43.8298C48.3564 44.5018 47.7342 45.0618 47.0373 45.5098C46.3404 45.9579 45.5439 46.1819 44.6479 46.1819ZM44.0878 41.3657C44.735 41.3657 45.3448 41.1417 45.9172 40.6937C46.191 40.4945 46.4275 40.2581 46.6266 39.9843C46.8257 39.7105 46.9626 39.4367 47.0373 39.1629C47.1119 38.8892 47.1493 38.6527 47.1493 38.4536C47.1493 37.8811 46.9377 37.5949 46.5146 37.5949C46.2408 37.5949 45.9297 37.7567 45.5812 38.0802C45.2825 38.354 44.9714 38.7025 44.6479 39.1256C44.3492 39.5487 44.0878 39.9594 43.8638 40.3577C43.6398 40.731 43.4905 41.0048 43.4158 41.179C43.59 41.3035 43.814 41.3657 44.0878 41.3657Z" fill="#5E5E5E"/>
<path d="M52.7063 46.4805C52.1836 46.4805 51.7107 46.4432 51.2876 46.3685C50.8894 46.2939 50.5907 46.2192 50.3916 46.1445C50.1178 46.045 49.9062 45.9205 49.7569 45.7712C49.6324 45.597 49.5702 45.4476 49.5702 45.3232C49.5702 45.1489 49.6573 45.0618 49.8316 45.0618C49.956 45.0618 50.1053 45.1365 50.2796 45.2858C50.628 45.5845 50.964 45.7587 51.2876 45.8085C51.5614 45.8085 51.9223 45.7712 52.3703 45.6965C52.8183 45.597 53.1295 45.4601 53.3037 45.2858C53.6024 44.9872 53.7517 44.6885 53.7517 44.3898C53.7517 44.1907 53.6895 44.004 53.565 43.8298C53.4655 43.6307 53.3161 43.444 53.117 43.2698C52.7934 42.996 52.4699 42.7222 52.1463 42.4484C51.8227 42.1497 51.5489 41.8262 51.3249 41.4777C50.9765 40.9301 50.8023 40.395 50.8023 39.8723C50.8023 39.0758 51.0636 38.3291 51.5863 37.6322C52.1339 36.9353 52.7188 36.3628 53.341 35.9148C54.013 35.4419 54.6975 35.2055 55.3944 35.2055C55.7678 35.2055 56.1162 35.2926 56.4398 35.4668C56.7634 35.6161 57.0123 35.865 57.1865 36.2135C57.2114 36.2633 57.2238 36.3255 57.2238 36.4002C57.2238 36.5495 57.174 36.6491 57.0745 36.6988C56.9749 36.7486 56.9003 36.6988 56.8505 36.5495C56.7011 36.1513 56.2905 35.9522 55.6184 35.9522C55.2202 35.9522 54.7846 36.0268 54.3117 36.1762C53.8637 36.3255 53.5028 36.4997 53.229 36.6988C52.3828 37.346 51.9596 38.1798 51.9596 39.2003C51.9596 39.9221 52.1961 40.5692 52.669 41.1417C52.9926 41.5399 53.3286 41.9133 53.677 42.2617C54.0504 42.5853 54.3615 42.9089 54.6104 43.2324C54.8593 43.5311 54.9464 43.8298 54.8717 44.1285C54.7473 44.676 54.3864 45.1241 53.789 45.4725C53.2166 45.7961 52.6814 45.9828 52.1836 46.0325C52.333 46.0574 52.6068 46.0699 53.005 46.0699C54.4237 46.0699 55.6309 45.597 56.6265 44.6511C57.647 43.7053 58.5803 42.5853 59.4266 41.291C59.4764 41.2163 59.5261 41.179 59.5759 41.179C59.6257 41.179 59.6506 41.2412 59.6506 41.3657C59.6506 41.515 59.5884 41.6893 59.4639 41.8884C58.5181 43.332 57.535 44.4645 56.5145 45.2858C55.5189 46.0823 54.2495 46.4805 52.7063 46.4805Z" fill="#5E5E5E"/>
<path d="M63.4266 35.1308C63.0782 35.1308 62.8666 34.9192 62.792 34.4961C62.7671 34.297 62.8915 34.0979 63.1653 33.8987C63.4391 33.6996 63.6631 33.5627 63.8373 33.4881C63.9618 33.4383 64.0613 33.4009 64.136 33.3761C64.2107 33.3512 64.2729 33.3387 64.3227 33.3387C64.4969 33.3387 64.584 33.4258 64.584 33.6001C64.584 33.7992 64.5094 34.0356 64.36 34.3094C64.2356 34.5832 64.1733 34.7201 64.1733 34.7201C64.1484 34.8197 64.0613 34.9192 63.912 35.0188C63.7627 35.0935 63.6009 35.1308 63.4266 35.1308ZM59.6932 46.1445C59.2452 46.1445 58.9216 45.9952 58.7225 45.6965C58.5233 45.3978 58.4238 45.0245 58.4238 44.5765C58.4238 44.228 58.4611 43.892 58.5358 43.5684C58.5856 43.4191 58.71 43.0458 58.9091 42.4484C59.1332 41.851 59.4194 41.1915 59.7678 40.4697C60.1412 39.7479 60.5394 39.1256 60.9626 38.6029C61.3857 38.0553 61.8213 37.7816 62.2693 37.7816C62.4684 37.7816 62.5679 37.8313 62.5679 37.9309C62.5679 38.0305 62.5182 38.13 62.4186 38.2296C61.9208 38.8269 61.4479 39.5363 60.9999 40.3577C60.5768 41.1541 60.2159 41.9133 59.9172 42.6351C59.6434 43.3569 59.4816 43.9045 59.4318 44.2778C59.3572 45.0743 59.5936 45.4725 60.1412 45.4725C60.2159 45.4725 60.2905 45.4725 60.3652 45.4725C60.4399 45.4476 60.527 45.4227 60.6265 45.3978C61.1492 45.2236 61.6595 44.9 62.1573 44.4271C62.6551 43.9542 63.1155 43.4315 63.5386 42.8591C63.9618 42.2866 64.3102 41.7888 64.584 41.3657C64.6836 41.2661 64.7458 41.2164 64.7707 41.2164C64.8454 41.2164 64.8827 41.2786 64.8827 41.403C64.8827 41.5275 64.8454 41.6519 64.7707 41.7764C64.2231 42.6226 63.576 43.4564 62.8293 44.2778C62.1075 45.0992 61.3857 45.6467 60.6639 45.9205C60.2905 46.0699 59.967 46.1445 59.6932 46.1445Z" fill="#5E5E5E"/>
<path d="M63.1895 56.4489C62.4926 56.4489 61.9948 56.2125 61.6961 55.7396C61.5468 55.4658 61.4721 55.1795 61.4721 54.8809C61.4721 54.5573 61.5343 54.2213 61.6588 53.8728C61.7832 53.5493 61.945 53.2132 62.1441 52.8648C62.4926 52.2923 62.9033 51.7323 63.3762 51.1847C63.8491 50.6372 64.3096 50.1394 64.7576 49.6913C65.2305 49.2433 65.6163 48.8949 65.9149 48.646C66.4376 48.2228 67.0474 47.725 67.7444 47.1526C68.4662 46.5801 69.2004 46.0948 69.9471 45.6965C69.9969 45.6716 70.0467 45.6592 70.0964 45.6592C70.1711 45.6592 70.2084 45.6965 70.2084 45.7712C70.2084 45.9205 70.1462 46.0201 70.0218 46.0699C69.6982 46.2441 69.2875 46.5054 68.7897 46.8539C68.2919 47.2272 67.8066 47.6006 67.3337 47.9739C66.8608 48.3722 66.4501 48.7206 66.1016 49.0193C65.8527 49.2433 65.5167 49.5793 65.0936 50.0274C64.6705 50.4754 64.2473 50.9732 63.8242 51.5207C63.3762 52.0932 63.0028 52.6657 62.7042 53.2381C62.6046 53.4373 62.4926 53.6986 62.3681 54.0222C62.2437 54.3706 62.1815 54.6942 62.1815 54.9929C62.1815 55.2418 62.2561 55.4409 62.4055 55.5902C62.5299 55.7645 62.7539 55.8516 63.0775 55.8516C63.6002 55.8516 64.1229 55.6649 64.6456 55.2915C65.1931 54.9431 65.7034 54.5075 66.1763 53.9848C66.6741 53.4621 67.1221 52.927 67.5203 52.3794C67.9186 51.8568 68.2297 51.3963 68.4537 50.9981C69.3497 49.5296 70.0467 47.8993 70.5445 46.1072C71.0671 44.34 71.2663 42.6849 71.1418 41.1417C71.1169 40.9675 71.092 40.8057 71.0671 40.6563C71.0423 40.4821 71.0049 40.3079 70.9551 40.1336C70.9054 40.2083 70.8556 40.283 70.8058 40.3577C70.756 40.4323 70.6938 40.5194 70.6191 40.619C70.4449 40.9923 70.2084 41.4155 69.9098 41.8884C69.6111 42.3364 69.3249 42.7471 69.0511 43.1204C68.8022 43.4938 68.6279 43.7427 68.5284 43.8671C67.931 44.5889 67.371 45.1116 66.8483 45.4352C66.3505 45.7587 65.915 45.9205 65.5416 45.9205C65.0438 45.9205 64.658 45.709 64.3842 45.2858C64.1104 44.8378 63.9735 44.3027 63.9735 43.6804C63.9735 42.5355 64.4091 41.2661 65.2803 39.8723C65.7034 39.2252 66.2883 38.6278 67.035 38.0802C67.7817 37.5078 68.5159 37.2215 69.2377 37.2215C69.8351 37.2215 70.3453 37.4704 70.7685 37.9682C70.8431 38.0678 70.8556 38.1922 70.8058 38.3416C70.7809 38.466 70.7187 38.4785 70.6191 38.3789C70.5196 38.2296 70.3578 38.13 70.1338 38.0802C69.9347 38.0305 69.7355 38.0056 69.5364 38.0056C68.9142 38.0056 68.3417 38.2296 67.819 38.6776C67.2963 39.1007 66.8359 39.611 66.4376 40.2083C66.0643 40.7808 65.7532 41.3159 65.5043 41.8137C64.9567 42.9089 64.6829 43.78 64.6829 44.4271C64.6829 45.0992 64.9318 45.4352 65.4296 45.4352C65.7532 45.4352 66.139 45.2858 66.587 44.9872C67.0599 44.6636 67.5701 44.1534 68.1177 43.4564C68.2421 43.3071 68.4537 43.0333 68.7524 42.6351C69.0511 42.2119 69.3746 41.7141 69.7231 41.1417C70.0716 40.5692 70.3702 40.0092 70.6191 39.4616C70.6191 39.4367 70.6191 39.4243 70.6191 39.4243C70.644 39.4243 70.6565 39.4118 70.6565 39.3869C70.6316 39.3621 70.5942 39.2998 70.5445 39.2003V39.1629C70.5445 39.0634 70.6565 39.0136 70.8805 39.0136C71.0796 39.0136 71.2289 39.0634 71.3285 39.1629C71.6272 39.4118 71.8387 39.7976 71.9632 40.3203C72.1125 40.8181 72.1872 41.3906 72.1872 42.0377C72.1872 42.884 72.0876 43.8049 71.8885 44.8005C71.6894 45.7712 71.428 46.717 71.1045 47.6379C70.8058 48.5589 70.4573 49.3802 70.0591 50.102C69.6111 50.9981 69.076 51.8568 68.4537 52.6781C67.8564 53.5244 67.2092 54.2586 66.5123 54.8809C65.8403 55.5031 65.1683 55.9387 64.4962 56.1876C64.0482 56.3618 63.6126 56.4489 63.1895 56.4489Z" fill="#5E5E5E"/>
<path d="M73.6042 46.0325C73.5295 46.0325 73.4548 45.9828 73.3801 45.8832C73.181 45.6592 73.0815 45.2983 73.0815 44.8005C73.0815 44.2778 73.1686 43.6929 73.3428 43.0458C73.5419 42.3737 73.7659 41.7639 74.0148 41.2164C74.2637 40.6937 74.4877 40.2332 74.6869 39.835C74.9109 39.4367 75.0602 39.1878 75.1349 39.0883C75.4087 38.7398 75.6949 38.4536 75.9936 38.2296C76.2923 38.0056 76.5909 37.8936 76.8896 37.8936C77.039 37.8936 77.151 37.9309 77.2256 38.0056C77.3252 38.0802 77.3376 38.1425 77.263 38.1922C77.0638 38.2918 76.8025 38.5656 76.4789 39.0136C76.1554 39.4367 75.8194 39.9345 75.4709 40.507C75.2469 40.9052 74.9607 41.4404 74.6122 42.1124C74.2637 42.7844 74.0646 43.3569 74.0148 43.8298C74.0148 44.0289 74.0646 44.116 74.1642 44.0911L75.0975 42.5604C75.6202 41.6893 76.3047 40.8306 77.151 39.9843C77.9972 39.1381 78.9057 38.4411 79.8764 37.8936C79.976 37.8438 80.0755 37.8064 80.1751 37.7816C80.2995 37.7567 80.4115 37.7442 80.5111 37.7442C80.7351 37.7442 80.8471 37.8189 80.8471 37.9682C80.8471 38.018 80.7849 38.1425 80.6604 38.3416C80.1377 39.0385 79.7271 39.7727 79.4284 40.5443C79.1297 41.291 78.943 42.1124 78.8684 43.0084C78.8435 43.556 78.8932 44.0662 79.0177 44.5391C79.167 44.9872 79.4782 45.2112 79.9511 45.2112C80.4986 45.2112 81.0213 44.9872 81.5191 44.5391C82.0169 44.0911 82.4774 43.5684 82.9005 42.9711C83.3485 42.3488 83.7343 41.8013 84.0579 41.3284C84.1077 41.2537 84.145 41.2164 84.1699 41.2164C84.2446 41.2164 84.2819 41.291 84.2819 41.4404C84.2819 41.5648 84.2321 41.7141 84.1326 41.8884C83.7592 42.436 83.3485 43.0209 82.9005 43.6431C82.4525 44.2654 81.9547 44.788 81.4071 45.2112C80.8844 45.6343 80.2871 45.8459 79.6151 45.8459C78.9928 45.8459 78.5448 45.6094 78.271 45.1365C77.9972 44.6636 77.8603 44.0911 77.8603 43.4191C77.8603 42.6973 77.9723 41.9257 78.1963 41.1043C78.4452 40.283 78.7315 39.5985 79.055 39.0509C78.4079 39.5238 77.7359 40.1212 77.039 40.843C76.342 41.5399 75.7447 42.2866 75.2469 43.0831C75.0727 43.4067 74.8362 43.8173 74.5375 44.3151C74.2388 44.8129 74.0397 45.2112 73.9402 45.5098C73.9153 45.6094 73.8904 45.6965 73.8655 45.7712C73.8406 45.821 73.8157 45.8707 73.7908 45.9205C73.7659 45.9952 73.7037 46.0325 73.6042 46.0325Z" fill="#5E5E5E"/>
</svg>
