<svg width="84" height="40" viewBox="0 0 84 40" fill="none" xmlns="http://www.w3.org/2000/svg">
<g id="Firma Julian 2" clip-path="url(#clip0_2937_227)">
<g id="Group">
<path id="Vector" d="M22.6543 18.0051C23.3341 17.6412 23.8895 17.3444 24.464 17.0476C24.7799 16.8848 25.1151 16.7508 25.4406 16.6071C25.5842 16.5497 25.7374 16.521 25.8715 16.4444C26.1396 16.2912 26.4843 16.1188 26.6758 16.3582C26.8002 16.521 26.6662 16.8944 26.6279 17.1721C26.6087 17.3157 26.513 17.4497 26.4555 17.5838C26.4843 17.6125 26.5034 17.6412 26.5321 17.6795C26.9247 17.4689 27.3077 17.2295 27.7194 17.0476C28.3801 16.7603 29.0599 16.5114 29.7206 16.2433C29.9025 16.1667 30.1036 16.0805 30.2472 15.9465C31.5781 14.6922 32.8803 13.4091 34.2304 12.174C35.6953 10.8431 37.3231 9.74194 39.1423 8.93765C39.7072 8.6887 40.2913 8.45891 40.8849 8.26741C41.0956 8.20038 41.3541 8.26741 41.5934 8.26741C41.5743 8.53551 41.6126 8.81318 41.536 9.05255C41.1626 10.2686 40.2817 11.1303 39.4295 11.992C37.8975 13.5432 36.356 15.0847 34.8049 16.6167C34.1059 17.3061 33.359 17.9572 32.6409 18.637C32.3824 18.886 32.1622 19.1636 31.9707 19.4988C32.076 19.4413 32.1813 19.3934 32.2771 19.3264C33.4835 18.4264 34.757 17.6125 36.1453 17.038C38.2039 16.1763 40.32 15.5347 42.5701 15.506C42.7041 15.506 42.8478 15.6018 42.9818 15.6496C42.9339 15.7645 42.8861 15.8699 42.8382 15.9848C42.8095 16.0422 42.7424 16.0901 42.7424 16.1475C42.6658 16.7603 42.1296 16.9614 41.7179 17.2295C40.7987 17.8327 39.8317 18.3689 38.9125 18.9721C37.7635 19.719 36.6432 20.5137 35.5134 21.2893C34.8815 21.7201 34.2495 22.1318 33.6271 22.5723C32.4686 23.3957 31.3004 24.2096 30.161 25.0618C28.8876 26.0097 27.6333 26.9959 26.3598 27.963C25.9577 28.2694 25.5459 28.5662 25.1342 28.8534C25.048 28.9204 24.9236 28.9396 24.8182 28.9779C24.8661 29.0353 24.914 29.0928 24.9619 29.1407C25.5364 28.9587 26.1109 28.7768 26.6853 28.5949C28.0929 28.1545 29.5004 27.714 30.9079 27.2927C32.775 26.7278 34.6421 26.1724 36.5188 25.6075C45.9021 22.8117 55.4387 20.7435 65.1381 19.3743C71.2277 18.5125 77.3557 17.8806 83.4836 17.354C79.8643 18.2827 76.1109 18.5317 72.3959 18.9051C63.654 19.7764 54.8547 21.4903 46.266 23.5106C44.8298 23.8458 43.4127 24.2575 41.986 24.65C40.9519 24.9373 39.9274 25.2628 38.9029 25.5597C38.5774 25.6554 38.2422 25.7033 37.9167 25.799C37.4475 25.9331 36.9784 26.0767 36.5092 26.2203C35.5804 26.5076 34.6517 26.7948 33.7325 27.0821C32.842 27.3597 31.9515 27.6374 31.0706 27.9151C29.3376 28.4704 27.6045 29.0258 25.8715 29.6003C24.4927 30.0599 23.1331 30.5673 21.9649 31.4578C21.4096 31.8791 20.9117 32.377 20.3468 32.7983C19.1882 33.6696 18.0392 34.5984 16.8711 35.4505C15.6168 36.3697 14.1231 37.2314 12.7252 37.9113C11.174 38.6677 9.42182 39.022 7.70791 39.1464C6.92277 39.2039 6.00358 39.2996 5.22802 39.1369C4.6248 39.0124 3.86838 38.5145 4.56735 37.9496C5.14185 37.49 5.73549 37.0304 6.38658 36.7048C7.82281 35.9771 9.2782 35.3069 10.7527 34.6654C12.4954 33.909 14.2571 33.1717 16.0285 32.4823C17.6562 31.8504 19.2935 31.2663 20.9404 30.6726C22.1085 30.2514 23.2192 29.763 24.0906 28.8343C24.531 28.3651 25.0863 28.0108 25.5938 27.6087C26.6183 26.8044 27.6428 25.981 28.6865 25.1958C29.3663 24.6788 30.1036 24.2383 30.7834 23.7309C31.1568 23.4532 31.4728 23.1085 31.8271 22.7925C31.8845 22.7446 31.9515 22.7063 32.0186 22.668C32.5356 22.3521 33.0622 22.0552 33.5697 21.7201C34.4602 21.1361 35.3219 20.5137 36.2124 19.9296C37.8305 18.8764 39.4678 17.8423 41.086 16.7986C41.2488 16.6933 41.3924 16.5688 41.5264 16.3582C41.2966 16.3582 41.0477 16.3103 40.837 16.3678C39.2572 16.7795 37.6582 17.1146 36.1645 17.8231C34.824 18.4551 33.5697 19.2307 32.4303 20.1881C31.942 20.5999 31.3483 20.8775 30.793 21.2222C30.726 21.2605 30.6494 21.2893 30.5728 21.2893C30.4196 21.2893 30.1898 21.3084 30.1419 21.2318C30.0653 21.1169 30.0653 20.8871 30.1419 20.7626C30.3525 20.3988 30.5823 20.0254 30.86 19.7094C31.5207 18.9626 32.1909 18.2253 32.8994 17.5263C34.2399 16.205 35.6187 14.9411 36.9592 13.6198C37.9741 12.6144 38.9508 11.5803 39.9083 10.5271C40.1764 10.2398 40.3487 9.85684 40.5498 9.51214C40.5977 9.42597 40.5881 9.3015 40.6072 9.1866C40.5785 9.1483 40.5402 9.11 40.5115 9.08127C39.5061 9.58874 38.4912 10.0962 37.4858 10.6228C36.2698 11.2643 35.2357 12.1644 34.2399 13.074C32.9569 14.2421 31.8079 15.5539 30.5919 16.7986C30.2951 17.105 29.9791 17.3923 29.6823 17.7082C29.4621 17.938 29.1652 18.0434 28.9163 17.8997C28.7918 17.8231 28.7918 17.5168 28.7439 17.3157C28.7344 17.2678 28.7439 17.2104 28.7439 17.1433C28.2173 17.488 27.7003 17.8231 27.1928 18.1487C26.9534 18.3019 26.7141 18.4647 26.4651 18.5987C26.13 18.7902 25.7279 18.7423 25.5364 18.503C25.3161 18.2157 25.3353 17.8231 25.5842 17.5072C25.6417 17.4306 25.6896 17.3444 25.7374 17.2582C25.7183 17.2295 25.6896 17.1912 25.6704 17.1625C25.4693 17.2678 25.2587 17.3636 25.0576 17.4785C24.4352 17.8231 23.832 18.2061 23.2001 18.5317C22.5011 18.886 21.9171 18.5796 21.7639 17.737C21.5819 17.871 21.4096 17.9763 21.2564 18.1008C20.7681 18.4838 20.2989 18.8764 19.8106 19.2594C19.7148 19.336 19.5808 19.3743 19.4563 19.403C18.9776 19.5179 18.719 19.3073 18.719 18.7998C18.719 18.7136 18.719 18.6179 18.719 18.4455C18.4892 18.5508 18.3169 18.637 18.135 18.7232C17.4647 19.0487 16.8041 19.3456 16.0381 19.3647C15.4636 19.3743 15.2434 18.8477 15.5019 18.4264C15.6455 18.187 15.5497 18.0338 15.4157 17.938C15.3487 17.8997 15.0997 18.0338 15.0136 18.1487C13.9795 19.6041 12.9933 21.0978 11.9209 22.534C11.2506 23.434 10.4942 24.267 9.72822 25.0905C8.73243 26.1437 7.73664 27.2161 6.6451 28.164C5.26632 29.3705 3.87796 30.6056 2.13533 31.3046C1.88638 31.4003 1.61829 31.4865 1.35019 31.5057C0.488448 31.5631 -0.0190203 31.0556 0.0671537 30.1843C0.201202 28.8726 0.517173 27.6087 1.30231 26.5171C1.72361 25.9331 2.2215 25.3873 2.61407 24.7841C3.39921 23.5777 4.41415 22.5819 5.42909 21.5957C6.65468 20.4179 8.09091 19.5275 9.60374 18.7711C10.5421 18.3019 11.49 17.8327 12.4666 17.4689C13.1369 17.2199 13.8646 17.1338 14.5827 17.0189C14.8316 16.9806 15.004 16.9231 15.1572 16.7029C16.5551 14.6539 17.6754 12.4516 18.7382 10.2111C19.1786 9.29192 19.6287 8.37273 20.0595 7.44397C20.7585 5.92156 21.4766 4.38958 22.1373 2.84802C22.482 2.0533 22.7213 1.22029 23.0277 0.415999C23.0756 0.28195 23.1809 0.128752 23.3054 0.0808775C23.4299 0.0234281 23.631 0.0330019 23.7363 0.109601C23.8129 0.157475 23.8129 0.368124 23.7842 0.502172C23.4969 2.0533 22.865 3.46081 22.099 4.8396C21.5341 5.86411 21.1128 6.96522 20.5957 8.01846C19.9638 9.31107 19.3223 10.6037 18.6424 11.8676C17.953 13.1602 17.2158 14.4241 16.4977 15.6975C16.2391 16.1667 15.9615 16.6263 15.6838 17.1146C15.7604 17.1529 15.837 17.2199 15.9136 17.2391C16.1817 17.3061 16.2391 17.4784 16.2487 17.7274C16.2679 18.6466 16.3062 18.6657 17.1296 18.321C17.6658 18.1008 18.1828 17.8327 18.7286 17.6221C18.9871 17.5168 19.284 17.4785 19.5616 17.4593C19.6382 17.4497 19.7819 17.6125 19.801 17.7178C19.8393 17.8997 19.8106 18.0912 19.8106 18.3498C20.1457 18.0912 20.4329 17.8327 20.7489 17.6316C21.2851 17.287 21.7734 16.8369 22.4437 16.7508C22.7405 16.7125 22.8841 16.7986 22.7979 17.1433C22.6735 17.3444 22.683 17.6125 22.6543 18.0051ZM14.3816 17.7178C14.2859 17.6891 14.2476 17.6604 14.2188 17.67C13.4911 17.8806 12.7635 18.0721 12.0453 18.321C10.6378 18.7998 9.34522 19.5275 8.09091 20.2935C6.81745 21.069 5.67804 21.9978 4.68225 23.1372C3.68646 24.2862 2.6811 25.4065 1.87681 26.6991C1.25444 27.6949 0.823569 28.7481 0.842719 29.945C0.852294 30.5769 1.11082 30.7684 1.71403 30.5577C1.81936 30.5194 1.93426 30.4811 2.03001 30.4141C2.8343 29.9162 3.65774 29.4471 4.42373 28.9013C6.92277 27.1108 9.05797 24.9277 10.9825 22.5436C11.9496 21.3467 12.8113 20.0732 13.7114 18.8189C13.9507 18.4934 14.1422 18.12 14.3816 17.7178ZM20.7489 31.6014C20.7298 31.5631 20.7106 31.5152 20.701 31.4769C20.5383 31.5057 20.3755 31.5152 20.2319 31.5727C19.8202 31.7259 19.418 31.8982 19.0063 32.061C17.0434 32.8366 15.0614 33.5643 13.1273 34.3877C11.2506 35.192 9.41224 36.092 7.56429 36.9825C7.03767 37.241 6.53978 37.5666 6.03231 37.8825C5.85039 37.9974 5.69719 38.1506 5.52484 38.2943C5.54399 38.3326 5.56314 38.3709 5.58229 38.4092C5.70676 38.4187 5.83124 38.4283 5.95571 38.4283C6.51105 38.3996 7.0664 38.3613 7.62174 38.323C8.8186 38.2464 10.0059 38.1219 11.1166 37.6527C12.007 37.2697 12.8879 36.8485 13.7497 36.408C14.6114 35.958 15.5019 35.5271 16.287 34.9718C17.7328 33.9568 19.1212 32.8461 20.5383 31.7738C20.6053 31.7067 20.6723 31.6493 20.7489 31.6014Z" fill="#5E5E5E"/>
<path id="Vector_2" d="M25.967 12.4329C25.967 13.1797 25.3446 13.668 24.8084 13.4669C24.6935 13.4286 24.5212 13.285 24.5307 13.218C24.5595 13.0457 24.6361 12.7871 24.7605 12.7393C25.1244 12.5956 25.5265 12.5382 25.967 12.4329Z" fill="#5E5E5E"/>
</g>
</g>
<defs>
<clipPath id="clip0_2937_227">
<rect width="83.5504" height="39.29" fill="white"/>
</clipPath>
</defs>
</svg>
