<svg width="73" height="40" viewBox="0 0 73 40" fill="none" xmlns="http://www.w3.org/2000/svg">
<g id="Firma Esteban_Mesa de trabajo 1" clip-path="url(#clip0_2937_214)">
<g id="Group">
<g id="Group_2">
<path id="Vector" d="M15.7597 13.3373C15.7402 13.3365 15.7326 13.3365 15.7073 13.317C15.6194 13.2596 15.5138 13.1574 15.4876 13.0281C15.4648 12.8989 15.5155 12.7502 15.7157 12.588C15.7233 12.5821 15.758 12.5609 15.7749 12.5576C16.1187 12.5635 16.4668 12.555 16.8148 12.5373L16.9449 12.5297L17.01 12.5263L17.026 12.5255L17.2744 12.5077C17.5616 12.4858 17.8489 12.457 18.1344 12.4216C20.4263 12.147 22.6718 11.483 24.739 10.4658C26.8021 9.4394 28.6733 8.03534 30.221 6.328L30.5116 6.00866L30.787 5.67581L31.0624 5.34296C31.1536 5.23567 31.233 5.12247 31.3184 5.00673C31.6512 4.54293 31.9604 4.05802 32.2282 3.55874C32.4935 3.06031 32.7233 2.54076 32.8398 2.02374C32.8973 1.76692 32.9193 1.51094 32.888 1.28707C32.8762 1.17218 32.8398 1.07418 32.801 0.980408C32.7723 0.939857 32.7571 0.890014 32.7224 0.854532L32.7106 0.840171C32.7097 0.838481 32.7106 0.840171 32.7106 0.840171C32.7114 0.840171 32.7123 0.841016 32.7123 0.841016L32.6616 0.824965L32.5839 0.806379C32.5273 0.797931 32.4715 0.786949 32.4107 0.784414C32.2916 0.773432 32.164 0.777655 32.0356 0.787793C31.7771 0.811448 31.5127 0.86636 31.2499 0.944081C30.7236 1.09868 30.2066 1.33522 29.7065 1.60556C28.7079 2.15553 27.7643 2.83052 26.8629 3.55959C25.9606 4.28949 25.1015 5.07769 24.266 5.89124C23.8436 6.29336 23.4406 6.71661 23.03 7.1314L22.4285 7.76839L22.1278 8.08687L21.8329 8.41128C20.2548 10.1381 18.7511 11.9358 17.2947 13.7724L17.0209 14.1162L16.8841 14.2886C16.868 14.3088 16.8816 14.2902 16.8723 14.3046L16.8435 14.3494L16.7852 14.4406C16.6306 14.6848 16.4786 14.9323 16.3307 15.1824C16.0351 15.6816 15.7529 16.1894 15.4902 16.7038C15.2283 17.2183 14.9841 17.7421 14.7797 18.2726C14.5795 18.8006 14.4054 19.3481 14.3649 19.8626C14.3438 20.116 14.37 20.361 14.4528 20.5139C14.4933 20.5908 14.5423 20.6448 14.6107 20.6888C14.6783 20.7319 14.7704 20.7631 14.8777 20.78C14.9833 20.7986 15.1049 20.8011 15.23 20.7918C15.2925 20.7885 15.3558 20.7825 15.4209 20.7724C15.4834 20.7657 15.5544 20.7513 15.6228 20.7386C15.8914 20.6922 16.1626 20.6195 16.4338 20.5376C16.9753 20.372 17.5092 20.1633 18.0279 19.9234C18.2881 19.8043 18.5441 19.6759 18.7967 19.5407C18.9243 19.4756 19.0476 19.4013 19.1727 19.3329L19.2664 19.2805C19.2994 19.811 19.1524 19.3869 19.1862 19.5145C19.1718 19.5103 19.1862 19.5145 19.1955 19.5162C19.2166 19.5204 19.2521 19.5229 19.2791 19.5213C19.3365 19.5196 19.3585 19.4968 19.345 19.5094C19.3391 19.5153 19.3349 19.5213 19.3332 19.5272C19.3289 19.5348 19.3171 19.5525 19.3137 19.5652C19.3087 19.5863 19.2892 19.6378 19.285 19.6826C19.2816 19.7037 19.2842 19.7299 19.2791 19.7527C19.2774 19.7527 19.2757 19.7536 19.2749 19.7536C19.2732 19.7527 19.269 19.7527 19.258 19.7544L19.2318 19.757L19.1963 19.7646C19.1735 19.7679 19.1456 19.7755 19.1177 19.7848C19.0907 19.7924 19.062 19.8009 19.0316 19.8119C18.9141 19.8507 18.7883 19.9073 18.6641 19.9639C18.414 20.0814 18.1631 20.2199 17.9147 20.3618C17.418 20.6499 16.928 20.9642 16.4439 21.2877C15.9599 21.6121 15.4792 21.9441 15.0036 22.2846C14.5313 22.6217 14.0422 22.9748 13.602 23.3068C12.7353 24.0435 11.9276 24.8874 11.2096 25.7821C10.4906 26.6793 9.85872 27.6457 9.38479 28.6781C8.90325 29.7062 8.60588 30.812 8.5611 31.9246C8.54674 32.4805 8.60334 33.0355 8.72246 33.5762L8.82468 33.9792L8.9607 34.372L8.99449 34.47L9.01138 34.519L9.02828 34.5596C9.05362 34.6195 9.08404 34.6829 9.1136 34.7446C9.17443 34.8688 9.23864 34.9938 9.30707 35.1154C10.1029 36.5398 11.3016 37.7647 12.7758 38.4178C13.5142 38.7371 14.3117 38.9103 15.1193 38.9373C15.9286 38.9652 16.7439 38.8486 17.5388 38.6391C19.1329 38.2125 20.6257 37.4091 22.0196 36.479L22.2824 36.3058C22.3432 36.2652 22.3246 36.2796 22.3787 36.234L22.4978 36.1317C22.6566 35.994 22.8137 35.8538 22.9709 35.7119C23.2835 35.428 23.5918 35.1391 23.8959 34.8443C24.5033 34.2554 25.0913 33.6472 25.6557 33.0195C26.7801 31.7633 27.826 30.4268 28.6302 28.9704C29.0281 28.243 29.3618 27.481 29.551 26.697C29.7377 25.9164 29.7766 25.1046 29.535 24.3772C29.4176 24.0139 29.2368 23.6735 29.0019 23.3668L28.8161 23.1438L28.6116 22.9343L28.3877 22.7323C28.3861 22.7315 28.3759 22.7231 28.3616 22.7138C28.3506 22.7053 28.3328 22.696 28.3176 22.6867C28.2864 22.669 28.2492 22.6504 28.212 22.6344C28.0591 22.5693 27.88 22.5254 27.6959 22.4983C27.6012 22.4899 27.5092 22.4747 27.412 22.4738L27.2675 22.4679L27.1205 22.4713C26.7286 22.4823 26.3281 22.5473 25.9319 22.6377C25.1386 22.8295 24.358 23.1269 23.6003 23.4792C22.8425 23.8331 22.1058 24.242 21.3835 24.6762C20.6587 25.1071 19.9592 25.5844 19.2622 26.0642C18.9192 26.3126 18.5728 26.5568 18.2332 26.8102C17.8962 27.0679 17.5532 27.3171 17.2212 27.5815C15.883 28.6248 14.5795 29.7222 13.314 30.8534C12.0324 32.0057 10.6942 33.0879 9.30622 34.1068C7.91652 35.1222 6.47445 36.0768 4.94198 36.8912L4.36244 37.1877C4.1656 37.2807 3.9713 37.3778 3.77277 37.4682L3.55819 37.5628L3.4678 37.6025L3.28617 37.6819L2.91699 37.8298C2.91699 37.8298 2.84434 37.8526 2.72353 37.8915C2.60019 37.9244 2.427 37.9717 2.22848 38.0249C2.02826 38.0731 1.79932 38.1204 1.56869 38.1618C1.33383 38.1922 1.10236 38.2345 0.886086 38.2395C0.525356 38.2733 0.287122 38.2513 0.151109 38.2277C0.0150958 38.204 -0.0220756 38.166 0.0117165 38.1255C0.0446637 38.0832 0.14773 38.0351 0.293035 37.9852C0.438341 37.9405 0.625043 37.8754 0.82864 37.812C0.783865 37.8137 1.27554 37.6811 1.75961 37.4868C2.00376 37.3998 2.24368 37.2849 2.42616 37.2106C2.60695 37.1286 2.72691 37.0695 2.72691 37.0695C2.84011 37.023 2.95416 36.9816 3.06567 36.9309L3.23379 36.8566L3.27603 36.838L3.35797 36.8017C3.4509 36.7611 3.54299 36.7206 3.63422 36.6758C3.81586 36.5862 4.00087 36.5043 4.18081 36.4097C4.90565 36.043 5.61275 35.6375 6.30633 35.2058C7.69265 34.3416 9.02406 33.3802 10.3124 32.3656C10.9561 31.857 11.5889 31.335 12.2064 30.7968L13.1323 29.9791C13.4449 29.7062 13.7533 29.4266 14.0717 29.1604C15.3305 28.0783 16.6214 27.0307 17.9629 26.0448C18.637 25.5557 19.3154 25.0724 20.0175 24.6196C20.7144 24.1601 21.4342 23.7326 22.1717 23.3322C22.9101 22.9334 23.6721 22.5685 24.4704 22.2745C25.2696 21.9847 26.1026 21.7465 26.9921 21.6966C27.2152 21.689 27.4407 21.6873 27.6697 21.7127C27.8978 21.7338 28.1301 21.7794 28.3624 21.858C28.479 21.8977 28.5947 21.9467 28.7121 22.0143C28.7417 22.0312 28.7704 22.0481 28.8017 22.07C28.8313 22.0895 28.8634 22.1131 28.9014 22.1452L29.0247 22.2559L29.1447 22.364C29.1844 22.4012 29.2233 22.4434 29.2621 22.4831C29.3407 22.5625 29.4184 22.6445 29.4894 22.7323C29.7817 23.0762 30.0233 23.4715 30.1914 23.8973C30.362 24.3223 30.4516 24.7759 30.4753 25.2254C30.5226 26.1276 30.3207 26.9994 30.0233 27.8054C29.7225 28.6139 29.3221 29.3683 28.8777 30.0863C27.9831 31.5217 26.911 32.8167 25.7748 34.0392C25.2045 34.6491 24.6149 35.2396 24.0075 35.8116C23.7033 36.0971 23.3958 36.3784 23.0799 36.6547L22.8399 36.8616C22.8281 36.8718 22.8011 36.8963 22.785 36.9047L22.7479 36.9292L22.682 36.9723L22.5502 37.0593L22.0247 37.4065C21.8524 37.5257 21.669 37.6304 21.4874 37.7369L20.9425 38.057C20.7575 38.1584 20.5674 38.2522 20.3807 38.3502C20.1923 38.4465 20.0073 38.5479 19.8105 38.629L19.2284 38.8858C19.0324 38.9677 18.8297 39.0345 18.6303 39.1097L18.3295 39.2186L18.0212 39.3073L17.7128 39.3961L17.5582 39.44L17.4011 39.4738C16.5681 39.6765 15.6955 39.7602 14.827 39.7019C14.6099 39.6892 14.3936 39.6529 14.1773 39.6292C13.9619 39.5929 13.749 39.5422 13.5353 39.4983C13.3266 39.4332 13.1137 39.3792 12.9085 39.3031C12.7057 39.2203 12.497 39.1527 12.3027 39.0505L12.0079 38.9078C11.9116 38.8554 11.8187 38.7996 11.724 38.7456C11.5314 38.6416 11.3557 38.5124 11.1741 38.3916C10.8235 38.1348 10.4847 37.8594 10.1814 37.5502C9.56473 36.9419 9.0494 36.2433 8.627 35.4914C8.00861 34.3898 7.75685 33.1386 7.78304 31.8976C7.83204 30.6583 8.1632 29.4502 8.67769 28.3511C9.18541 27.2461 9.85196 26.2298 10.6021 25.2938C11.3566 24.3561 12.1802 23.4927 13.1053 22.7062C13.6029 22.3285 14.0684 21.9957 14.5524 21.6493C15.0331 21.3055 15.5197 20.9692 16.0123 20.6389C16.5056 20.3095 17.0057 19.9884 17.5261 19.686C17.7872 19.5365 18.0516 19.3895 18.3338 19.2568C18.4774 19.1918 18.6193 19.1267 18.7807 19.0727C18.8195 19.0583 18.8609 19.0456 18.9049 19.0338C18.9471 19.0211 18.9902 19.0093 19.04 19L19.1127 18.9857L19.1963 18.9764C19.2217 18.973 19.2546 18.9721 19.2892 18.973C19.3239 18.9738 19.3526 18.973 19.3999 18.9823C19.443 18.9899 19.481 18.9958 19.5385 19.0203C19.5655 19.0321 19.5883 19.0414 19.617 19.0583C19.6466 19.0769 19.6745 19.098 19.7007 19.1208C19.813 19.2197 19.8679 19.3751 19.8713 19.4816C19.8747 19.5365 19.8705 19.5829 19.8637 19.6269C19.8603 19.648 19.8561 19.6691 19.8502 19.6894C19.7699 19.7975 20.0065 19.5348 19.6609 19.9521L19.5621 20.007C19.4303 20.0797 19.3011 20.1565 19.1667 20.2258C18.9006 20.3669 18.6311 20.5029 18.3566 20.6288C17.8083 20.8814 17.2448 21.1027 16.6619 21.281C16.3704 21.368 16.0731 21.4491 15.7622 21.5032C15.6862 21.5167 15.6127 21.5327 15.529 21.542C15.4488 21.5539 15.366 21.5631 15.2815 21.5674C15.1142 21.5792 14.9385 21.5775 14.7543 21.5471C14.5719 21.5175 14.3776 21.4592 14.1959 21.3443C14.0143 21.2311 13.8605 21.0588 13.7659 20.8755C13.6696 20.6913 13.6223 20.5012 13.5995 20.3221C13.5767 20.1422 13.5792 19.9715 13.5911 19.8051C13.6468 19.1445 13.8428 18.5607 14.0557 17.9922C14.2745 17.4262 14.5288 16.8821 14.7991 16.349C15.0711 15.8168 15.3601 15.2964 15.6633 14.7845C15.8154 14.5285 15.97 14.275 16.1305 14.0224L16.1913 13.9278L16.2226 13.8805C16.2319 13.8636 16.2674 13.8155 16.275 13.8079L16.4127 13.6347L16.6881 13.2883C18.153 11.4407 19.6686 9.62948 21.2627 7.88497L21.5609 7.55718L21.865 7.23447L22.4741 6.58989C22.8906 6.17002 23.2987 5.74171 23.7278 5.33282C24.576 4.50661 25.4512 3.7032 26.3771 2.95386C27.303 2.20537 28.2779 1.50503 29.3407 0.920427C29.8746 0.63235 30.4322 0.374685 31.0345 0.197277C31.3353 0.108573 31.6487 0.0418336 31.9756 0.0122656C32.1404 -0.000406439 32.3068 -0.00631994 32.4808 0.00973128C32.5661 0.0139553 32.6557 0.0300067 32.7444 0.0452131L32.8804 0.0781603C32.9302 0.0950563 32.9649 0.10097 33.0384 0.133917C33.1051 0.163485 33.1744 0.191363 33.2276 0.240362C33.2538 0.264016 33.2766 0.295274 33.2994 0.324842L33.356 0.39665C33.4194 0.471838 33.4591 0.561386 33.5081 0.645022C33.5858 0.819896 33.6449 1.00322 33.6644 1.18147C33.7134 1.54051 33.6745 1.87928 33.6052 2.19523C33.4608 2.82714 33.2048 3.39063 32.9193 3.92876C32.6312 4.46606 32.3068 4.97378 31.9545 5.46546C31.8658 5.58626 31.7762 5.71383 31.6774 5.83041L31.391 6.17762L31.1038 6.52315L30.8013 6.856C29.1903 8.63346 27.2363 10.1 25.0896 11.167C22.9371 12.2256 20.6097 12.9132 18.2324 13.1988C17.935 13.2359 17.6368 13.2655 17.3386 13.2883L17.0801 13.3069L17.0632 13.3077L16.9948 13.312L16.8587 13.3196C16.4921 13.3348 16.128 13.3441 15.7597 13.3373Z" fill="#5E5E5E"/>
</g>
<g id="Group_3">
<path id="Vector_2" d="M22.8974 37.5241C22.8805 37.5334 22.8746 37.5368 22.8433 37.5326C22.6347 37.5216 22.2875 37.3889 22.4801 36.8998C22.4835 36.8905 22.5037 36.8542 22.5172 36.8432C22.883 36.6396 23.2463 36.4284 23.607 36.2138L23.8731 36.0542L24.4349 35.7086C24.8075 35.4755 25.1767 35.2372 25.5416 34.9922C26.2698 34.5031 26.982 33.9903 27.6486 33.4353C27.9814 33.1582 28.3033 32.8693 28.599 32.5651C28.8938 32.261 29.1658 31.9374 29.3627 31.6004L29.3813 31.5691L29.3905 31.5531L29.3956 31.5455C29.3956 31.5429 29.4404 31.4686 29.4809 31.4356C29.5713 31.3495 29.7158 31.3114 29.829 31.3343C29.943 31.3545 30.0486 31.4204 30.1154 31.5336C30.1483 31.5894 30.1669 31.6553 30.1703 31.7144C30.1779 31.7643 30.1559 31.8547 30.1602 31.8369L30.1551 31.8572L30.1162 32.0219L30.0334 32.3506C29.9768 32.5685 29.9177 32.7865 29.8552 33.0027C29.7293 33.4361 29.5925 33.867 29.4362 34.2936C29.2807 34.7202 29.1075 35.1435 28.9022 35.5583C28.6936 35.9722 28.4621 36.3828 28.1309 36.7613C28.0473 36.855 27.9569 36.9463 27.8572 37.0333C27.8327 37.0553 27.8049 37.0755 27.7787 37.0966L27.7381 37.1279L27.7178 37.1431L27.7077 37.1507C27.6072 37.0139 27.9181 37.4675 27.4804 36.8466C27.4779 36.8457 27.4804 36.8457 27.4796 36.8457C27.401 36.6971 27.6536 37.182 27.3047 36.5061L27.3225 36.4968L27.3588 36.4783L27.4315 36.4402C27.6241 36.3389 27.8158 36.2341 28.0042 36.1277C28.1926 36.0204 28.3785 35.9105 28.5576 35.7965L28.5914 35.7754L28.6615 35.7281L28.7992 35.6335C28.8913 35.5735 28.9825 35.489 29.0737 35.4391L29.1954 35.4028C29.2148 35.3978 29.2376 35.3885 29.2537 35.3876L29.2976 35.3893C29.3263 35.391 29.3576 35.3893 29.3838 35.3944C29.4117 35.3994 29.4505 35.4096 29.4894 35.4273C29.5282 35.4434 29.5663 35.4679 29.595 35.4907C29.6254 35.5152 29.6414 35.5304 29.6575 35.5515C29.6896 35.5853 29.7268 35.6453 29.7547 35.7213L29.7825 35.8666L29.7715 36.0491C29.7682 36.1099 29.7741 36.164 29.7741 36.2223L29.7758 36.2654C29.7749 36.2687 29.7783 36.2924 29.7792 36.3L29.7808 36.3059L29.7859 36.3296C29.7893 36.3524 29.7893 36.3482 29.7893 36.3498L29.7901 36.3515L29.7994 36.349C29.7961 36.3524 29.8434 36.3296 29.8738 36.3186C29.9076 36.3059 29.9481 36.278 29.9853 36.2595L30.0791 36.2104C30.0943 36.2028 30.1196 36.1876 30.1399 36.1758C30.1821 36.1505 30.2244 36.1294 30.2674 36.1006C30.3536 36.0432 30.4398 35.9883 30.5251 35.9291L30.7786 35.7391C31.4527 35.2212 32.0618 34.5935 32.6489 33.954C33.9381 32.4967 35.0558 30.8781 36.0847 29.2087L36.8366 27.9415C37.0816 27.5158 37.3089 27.079 37.5463 26.649L37.8985 26.001C38.0177 25.7856 38.1207 25.5617 38.2322 25.3429L38.8912 24.0217L39.0559 23.6913L39.2105 23.356L39.518 22.6843L40.1339 21.3411C40.525 20.4372 40.9018 19.5256 41.2862 18.6175L41.8826 17.2489L42.4655 15.8879C42.8499 14.9789 43.2267 14.0665 43.59 13.1499C43.9515 12.2341 44.3038 11.3133 44.6105 10.3874C44.6865 10.1559 44.7592 9.92446 44.8242 9.69383C44.8893 9.46405 44.9484 9.23173 44.9847 9.01461C45.0025 8.90986 45.0118 8.7975 45.0075 8.74343C45.0075 8.73414 45.0058 8.73836 45.0058 8.73498C45.0084 8.73414 44.9999 8.73583 45.0118 8.73245L45.0574 8.71978C45.0844 8.71302 45.1013 8.71217 45.1241 8.70457C45.1638 8.69443 45.2137 8.66233 45.228 8.65895C45.239 8.65304 45.2492 8.64543 45.2584 8.6353C45.2644 8.62854 45.2652 8.62854 45.2652 8.62854C45.266 8.62854 45.2669 8.62769 45.2677 8.62685C45.2686 8.62685 45.2737 8.61755 45.2711 8.62178C45.2677 8.62938 45.266 8.63699 45.266 8.64374C45.266 8.64712 45.2661 8.6505 45.2669 8.65304C45.1968 8.64121 45.8954 8.78651 45.5972 8.72991L45.5862 8.7485L45.5423 8.82453C45.424 9.0332 45.3074 9.24947 45.1942 9.46574C44.2895 11.2035 43.481 13.0055 42.7156 14.8218C41.1899 18.4595 39.839 22.1749 38.5786 25.9191C38.3514 26.5797 38.1376 27.2437 37.9222 27.9077L37.5986 28.9038L37.439 29.3971C37.3908 29.5585 37.3443 29.7249 37.3004 29.8913C36.9498 31.2219 36.6837 32.5854 36.5975 33.943C36.5604 34.6197 36.5654 35.2998 36.6871 35.9393C36.8045 36.5729 37.0546 37.1803 37.5082 37.4929C37.7313 37.6517 38.0024 37.737 38.2973 37.7657C38.5938 37.7885 38.9081 37.7556 39.2223 37.6855C39.3009 37.6703 39.3795 37.6491 39.458 37.6272C39.5358 37.6069 39.6152 37.5841 39.6971 37.5562C39.8652 37.5022 40.0029 37.4582 40.1558 37.3923C40.4574 37.2665 40.7531 37.1102 41.0387 36.9404C42.1817 36.2493 43.1549 35.2761 43.878 34.1432C43.9245 34.0731 43.9701 34.0021 44.0115 33.9295L44.1366 33.72L44.1518 33.6938C44.1627 33.6769 44.172 33.6592 44.1813 33.6414L44.2388 33.535C44.3157 33.3939 44.3925 33.252 44.4601 33.1058C44.4601 33.1058 44.4964 33.0441 44.5564 32.9402C44.6164 32.8363 44.6933 32.6851 44.787 32.5144C44.9636 32.1672 45.1807 31.7212 45.3446 31.3419C45.4857 31.0208 45.5693 30.8063 45.6428 30.6888C45.7138 30.5706 45.7603 30.5452 45.789 30.5891C45.8169 30.6331 45.8262 30.7471 45.8202 30.9059C45.8177 30.9854 45.8109 31.0758 45.8008 31.1746C45.7873 31.2726 45.7704 31.3782 45.7501 31.488C45.7594 31.4669 45.74 31.5877 45.6952 31.7786C45.6454 31.9687 45.5828 32.2331 45.4967 32.4942C45.4198 32.7586 45.3167 33.0179 45.2458 33.2165C45.1655 33.4108 45.1106 33.5417 45.1106 33.5417C45.0413 33.6904 44.9577 33.8323 44.8808 33.9776C44.8605 34.014 44.8428 34.0503 44.8208 34.0858L44.76 34.188C44.673 34.3367 44.5843 34.4845 44.488 34.6273C44.3021 34.9179 44.0935 35.1942 43.8797 35.4653C43.0062 36.5365 41.9147 37.4371 40.6425 38.0268C40.4819 38.1003 40.3206 38.167 40.1432 38.2278C39.9734 38.2811 39.8213 38.3368 39.6456 38.3816C39.3034 38.4737 38.9452 38.5404 38.571 38.5489C38.3843 38.5565 38.1925 38.5396 38.0008 38.5108C37.809 38.472 37.6155 38.4255 37.4322 38.3402C37.0622 38.1797 36.7403 37.9034 36.5156 37.5858C36.285 37.269 36.1414 36.9184 36.0366 36.5703C35.9352 36.2214 35.8761 35.87 35.8398 35.5219C35.7722 34.825 35.7933 34.1373 35.8524 33.4598C35.9783 32.1039 36.2486 30.7826 36.6043 29.4808L36.6744 29.2358L36.693 29.1741L36.7133 29.1099L36.7521 28.9916L36.9059 28.5168L37.2142 27.5673C37.4195 26.9345 37.624 26.3009 37.8402 25.6724C39.1049 21.9147 40.4608 18.1841 41.9975 14.521C42.7697 12.6903 43.5824 10.8774 44.5049 9.10416C44.6215 8.88198 44.7397 8.66233 44.8656 8.44015L44.9146 8.35482L44.9273 8.33286C44.6341 8.50013 45.3286 8.09124 45.2813 8.13602C45.299 8.13686 45.3167 8.1394 45.3345 8.14193C45.4063 8.15207 45.4739 8.17404 45.5415 8.22134C45.5719 8.24246 45.609 8.27119 45.6259 8.29231C45.6454 8.31512 45.6639 8.33877 45.6808 8.36412C45.7197 8.42156 45.7265 8.45029 45.7417 8.49084C45.7484 8.50942 45.7552 8.53139 45.7594 8.54744L45.7679 8.59052C45.7721 8.61756 45.7788 8.65219 45.7797 8.67416C45.7932 8.86762 45.7704 9.00278 45.7501 9.14218C45.7037 9.41251 45.6395 9.66088 45.5702 9.90672C45.5009 10.1517 45.4249 10.3925 45.3472 10.6316C45.0312 11.5845 44.6764 12.5129 44.3114 13.438C43.9456 14.3614 43.5663 15.2788 43.1802 16.192L42.5948 17.5598L42.0051 18.9123C41.6174 19.8272 41.2389 20.7455 40.8435 21.6571L40.2226 23.013L39.9117 23.6905L39.7563 24.0293L39.5898 24.363L38.9241 25.6986C38.8109 25.9199 38.707 26.1463 38.5862 26.3643L38.2297 27.0207C37.9898 27.4566 37.7591 27.8985 37.5108 28.3301L36.7479 29.6168C35.7012 31.3148 34.5633 32.9664 33.2285 34.4752C32.6177 35.1418 31.9866 35.794 31.2525 36.3583L30.9737 36.567C30.8774 36.6345 30.7769 36.6979 30.678 36.7638C30.629 36.7967 30.5716 36.8263 30.5192 36.8576C30.4905 36.8736 30.4685 36.8871 30.4347 36.9049L30.384 36.9302C30.379 36.9328 30.373 36.9361 30.3883 36.9277L30.4026 36.9201L30.3815 36.9319C30.3207 36.964 30.2674 36.9987 30.199 37.0282C30.1264 37.0569 30.0748 37.0874 29.9616 37.111C29.8653 37.1372 29.7521 37.1431 29.6448 37.133C29.5925 37.1228 29.5384 37.1127 29.4885 37.095C29.4404 37.0721 29.3889 37.0527 29.3466 37.0198C29.2596 36.9564 29.1853 36.8753 29.1329 36.7798C29.1058 36.7317 29.0813 36.6827 29.0653 36.6312C29.0476 36.5805 29.0307 36.523 29.0264 36.4909L29.0155 36.4326L28.98 36.4554C28.7848 36.5805 28.5888 36.6962 28.392 36.8077C28.1952 36.9192 27.9966 37.0274 27.7973 37.1321L27.7221 37.171L27.6849 37.1904L27.6663 37.2006C27.57 37.2749 27.2861 37.2622 27.1755 37.0983C27.0538 36.9632 27.0623 36.7224 27.1763 36.5965C27.3318 36.4512 27.2228 36.5534 27.2591 36.5196L27.2659 36.5146L27.2785 36.5044L27.3039 36.4842C27.3208 36.4706 27.3385 36.4588 27.3554 36.4436C27.423 36.3845 27.4889 36.3186 27.5523 36.2468C27.8074 35.957 28.0203 35.5904 28.2095 35.2136C28.3971 34.8334 28.5618 34.4347 28.7096 34.0283C28.8583 33.622 28.991 33.2063 29.1118 32.7882C29.1726 32.5787 29.23 32.3683 29.2841 32.1571L29.3635 31.8403L29.4015 31.6815L29.4058 31.662C29.3289 31.6392 30.0757 31.815 29.7631 31.7415H29.7648C29.7623 31.7465 29.7623 31.7389 29.7639 31.7423C29.905 31.82 29.4548 31.5733 30.0841 31.9197L30.0782 31.9298L30.0664 31.9501L30.0427 31.9898C29.791 32.4198 29.4835 32.7763 29.1624 33.11C28.8397 33.442 28.4993 33.7453 28.1512 34.0359C27.4534 34.6155 26.7235 35.1409 25.9792 35.6411C25.6067 35.8911 25.2307 36.1336 24.8514 36.371L24.2803 36.7224L24.01 36.8846C23.6408 37.1009 23.2717 37.3155 22.8974 37.5241Z" fill="#5E5E5E"/>
</g>
<g id="Group_4">
<path id="Vector_3" d="M26.5799 27.2073C26.5621 27.214 26.5562 27.2166 26.5258 27.209C26.3256 27.1718 25.9877 27.0045 26.2394 26.5382C26.2436 26.5298 26.269 26.496 26.2842 26.4858L27.4838 25.9992C31.3733 24.438 35.2881 22.941 39.2502 21.5615C41.2321 20.8738 43.2258 20.2174 45.2483 19.6353C46.2604 19.3473 47.2783 19.0752 48.3158 18.8539L48.5346 18.8074L48.6292 18.7888L48.8184 18.7508C48.9443 18.7255 49.0719 18.7044 49.1994 18.6807C49.1994 18.6807 49.5002 18.6452 49.9116 18.6258C50.3222 18.6055 50.8468 18.6081 51.2785 18.6841C51.6451 18.7381 51.8791 18.8438 51.994 18.9282C52.1089 19.0169 52.1165 19.0676 52.0675 19.0854C52.0152 19.109 51.9172 19.093 51.7718 19.0955C51.7026 19.0896 51.6156 19.0989 51.5277 19.0972C51.4365 19.1031 51.3385 19.1056 51.2346 19.1149C51.2557 19.1208 51.1433 19.1251 50.9608 19.1445C50.7775 19.1639 50.5249 19.1952 50.2689 19.2433C49.7562 19.3329 49.2349 19.4647 49.2349 19.4647C49.1149 19.4858 48.9941 19.5086 48.8742 19.5331L48.6934 19.5694L48.4949 19.6117C48.3707 19.6387 48.2465 19.6641 48.1223 19.6936C47.1305 19.9183 46.1429 20.1861 45.1604 20.4717C43.1946 21.0445 41.2465 21.6924 39.3068 22.3666C35.43 23.7216 31.5887 25.1924 27.7753 26.7241L26.5799 27.2073Z" fill="#5E5E5E"/>
</g>
<g id="Group_5">
<path id="Vector_4" d="M49.2214 21.3991C49.202 21.3983 49.1952 21.3983 49.1699 21.3789C49.0829 21.3214 48.979 21.2192 48.9519 21.0908C48.9274 20.9624 48.9764 20.812 49.18 20.6498C49.1876 20.6439 49.2231 20.6228 49.24 20.6194C49.5061 20.6262 49.7756 20.6262 50.0443 20.6219L50.4481 20.6135L50.4988 20.6118L50.7928 20.6008L51.3377 20.5729C52.0642 20.5282 52.789 20.4589 53.5113 20.3634C54.9551 20.175 56.3853 19.8844 57.7843 19.4899C60.5764 18.6966 63.257 17.4548 65.5236 15.6587C67.7935 13.8737 69.5938 11.515 70.7233 8.85639C71.0139 8.19491 71.2505 7.51062 71.465 6.82042L71.6154 6.31185C71.6501 6.16063 71.6788 5.98322 71.6965 5.81679C71.732 5.47972 71.7345 5.13842 71.672 4.83598C71.6408 4.6856 71.5934 4.54621 71.5292 4.42963C71.465 4.3122 71.3823 4.22519 71.2834 4.15929C71.2598 4.14155 71.2327 4.12804 71.2057 4.11452C71.1803 4.09847 71.1491 4.09002 71.1204 4.07819C71.0925 4.06468 71.0587 4.05961 71.0274 4.05031L71.0038 4.04356L70.9185 4.01652V4.01737L70.8855 4.00892C70.8619 3.99963 70.823 3.99709 70.7917 3.99033C70.7596 3.98273 70.7233 3.98188 70.687 3.97935C70.6507 3.97851 70.6152 3.97259 70.578 3.97344L70.4648 3.98019C70.3896 3.97935 70.3119 3.99709 70.235 4.01061L70.1193 4.03004L70.0035 4.06552C69.9267 4.09086 69.8481 4.10776 69.7721 4.13902L69.5448 4.2387C69.5068 4.2556 69.4688 4.26996 69.4308 4.28939L69.3209 4.3536L69.1013 4.48032C69.0261 4.51833 68.9585 4.57494 68.8884 4.62393L68.6789 4.77515L68.5741 4.85118L68.4753 4.9382L68.2776 5.11138L68.0799 5.28457L67.8958 5.47549L67.5283 5.85903L67.187 6.27298C66.9513 6.54079 66.751 6.84323 66.539 7.13384C66.321 7.41938 66.1403 7.73618 65.9434 8.03946C65.1882 9.27034 64.5157 10.5882 63.8238 11.8875C62.1089 15.1493 60.4286 18.4271 58.8462 21.7531L58.5497 22.38L58.4754 22.5371L58.4568 22.576L58.434 22.6216L58.3934 22.6993L58.2312 23.0085C58.0141 23.4191 57.7928 23.8263 57.5681 24.2318C57.1186 25.0419 56.6548 25.8445 56.1775 26.6386C55.2212 28.226 54.2134 29.7855 53.1185 31.2884C52.5702 32.0394 51.9991 32.7752 51.3959 33.4883C50.7919 34.2004 50.1566 34.8898 49.4639 35.531L49.2037 35.7709L48.9325 36.0007C48.8413 36.0767 48.7534 36.1561 48.6588 36.2279L48.3741 36.4451C48.1891 36.5946 47.9829 36.7213 47.7853 36.8573C47.6881 36.9274 47.5783 36.984 47.4735 37.0457C47.3654 37.1065 47.2674 37.1665 47.1508 37.2282C46.2908 37.6413 45.4156 37.9741 44.5007 38.2335C43.5874 38.4844 42.6362 38.6677 41.6419 38.612C41.1477 38.5816 40.6366 38.4827 40.1609 38.2462C39.6862 38.0155 39.2654 37.6362 38.9934 37.18C38.9546 37.1251 38.9258 37.0668 38.8971 37.0077L38.8109 36.8311C38.7983 36.7999 38.7797 36.7762 38.7611 36.7137C38.7425 36.6529 38.7366 36.6157 38.729 36.5752C38.7163 36.4966 38.7096 36.4222 38.7079 36.3487C38.7011 36.0548 38.7603 35.781 38.8523 35.5284C39.039 35.0216 39.3516 34.6085 39.6904 34.2469C40.0325 33.8862 40.4144 33.5829 40.8081 33.3083C41.2017 33.0312 41.6148 32.7938 42.0322 32.57C42.8702 32.1298 43.7387 31.7682 44.6173 31.4481C45.4959 31.1262 46.388 30.8559 47.2843 30.6083C48.1806 30.3566 49.0863 30.1479 49.9868 29.9443C50.8713 29.7306 51.771 29.5025 52.6615 29.2761C56.2299 28.3603 59.7865 27.3964 63.3076 26.326C65.0665 25.7879 66.8186 25.2261 68.5353 24.5883L69.1765 24.3441L69.5136 24.2106L69.5727 24.187L69.6901 24.1397L70.1573 23.9454C70.1573 23.9454 71.2674 23.5694 72.0184 23.2484C72.3335 23.1065 72.5295 23 72.6528 22.946C72.7753 22.8902 72.8294 22.8911 72.8294 22.9443C72.8277 22.9941 72.7728 23.1048 72.663 23.2273C72.5557 23.354 72.3985 23.4926 72.2178 23.6303C72.2634 23.6142 71.8182 23.9251 71.34 24.1887C70.8644 24.4582 70.366 24.6998 70.366 24.6998L69.8988 24.8932L69.6605 24.9879C68.8157 25.3216 67.9642 25.6274 67.1092 25.9197C65.3994 26.5026 63.676 27.034 61.9475 27.5434C58.4889 28.5588 55.01 29.4873 51.5176 30.3667L50.2005 30.692C49.7646 30.7933 49.3236 30.8863 48.8911 30.9944C48.0235 31.2039 47.1635 31.4388 46.3119 31.6981C45.4638 31.9634 44.624 32.2548 43.8088 32.5953C42.9944 32.9358 42.2037 33.3252 41.4746 33.7932C41.1156 34.0323 40.77 34.2883 40.4625 34.5747C40.1567 34.8611 39.8889 35.1787 39.7039 35.5225C39.6127 35.694 39.5468 35.8723 39.5104 36.0472C39.4927 36.135 39.4826 36.222 39.4842 36.304C39.4834 36.3454 39.4868 36.3851 39.4919 36.4214C39.4944 36.44 39.4969 36.4577 39.5003 36.4696C39.5045 36.4805 39.4952 36.4619 39.5071 36.4848C39.6566 36.8421 39.8931 37.1479 40.1998 37.365C40.5056 37.5847 40.8799 37.7199 41.2795 37.7874C41.6799 37.855 42.1023 37.8576 42.5264 37.8212C43.3762 37.746 44.2287 37.5256 45.0574 37.2442C45.4722 37.1023 45.8828 36.9418 46.2849 36.7678L46.5848 36.6334C46.6811 36.587 46.7876 36.5414 46.8695 36.4932L47.1441 36.3344L47.2818 36.255L47.4152 36.1646C48.1333 35.6915 48.7956 35.1103 49.42 34.4893C50.6652 33.239 51.7727 31.835 52.8076 30.3828C53.8416 28.928 54.8056 27.42 55.7196 25.8817C56.1758 25.112 56.621 24.3357 57.051 23.5509C57.2665 23.1589 57.4785 22.7643 57.6838 22.3698L57.7565 22.2287L57.8283 22.0767L57.9719 21.7726L58.2591 21.1643C59.8144 17.9127 61.4567 14.7075 63.1328 11.5209L64.171 9.56602C64.3425 9.24077 64.5275 8.91721 64.71 8.59027L64.9837 8.10198C65.0733 7.93893 65.1814 7.78349 65.2794 7.62382C65.4839 7.30871 65.6697 6.98346 65.8986 6.68271C66.1208 6.37774 66.3295 6.06432 66.5804 5.77793L66.9428 5.33948L67.3399 4.92468L67.5393 4.71855L67.7572 4.52678L67.9752 4.33586L68.0841 4.24039L68.2033 4.15422L68.4415 3.98188C68.5218 3.92528 68.5978 3.86361 68.6865 3.81715L68.9458 3.66762L69.0759 3.59328C69.1207 3.57047 69.168 3.55188 69.2145 3.53076L69.4941 3.40911C69.5887 3.37025 69.691 3.34575 69.789 3.31449L69.9385 3.27056L70.0948 3.24268C70.1995 3.2241 70.3026 3.20382 70.4124 3.20213L70.5755 3.19369C70.6304 3.19284 70.687 3.19875 70.7427 3.20129C70.7985 3.20467 70.8543 3.2072 70.9125 3.21987C70.9717 3.2317 71.0249 3.23593 71.0891 3.2562L71.1356 3.26972C71.1516 3.27479 71.1643 3.27732 71.1888 3.28661L71.2217 3.29929C71.0807 3.25536 71.1947 3.28999 71.1694 3.28239L71.2124 3.29337C71.2699 3.30942 71.3273 3.32125 71.3839 3.3449C71.4405 3.36687 71.498 3.3863 71.5521 3.41671C71.6078 3.44375 71.6619 3.47331 71.7134 3.50964C71.9221 3.64734 72.0936 3.8408 72.2068 4.04693C72.3217 4.25307 72.3901 4.46849 72.434 4.678C72.5194 5.09956 72.5101 5.50422 72.4695 5.89958C72.4467 6.09896 72.418 6.2865 72.3707 6.49432L72.2085 7.04598C71.9863 7.76237 71.7396 8.47369 71.4372 9.16305C70.262 11.9332 68.3731 14.4084 66.0059 16.2687C63.6422 18.1416 60.8662 19.4232 57.9955 20.2384C56.5568 20.6439 55.0903 20.9413 53.611 21.1347C52.871 21.2319 52.1284 21.3037 51.3833 21.3493L50.824 21.378L50.5216 21.389L50.47 21.3907L50.0544 21.4C49.7782 21.4051 49.5011 21.4059 49.2214 21.3991Z" fill="#5E5E5E"/>
</g>
<g id="Group_6">
<path id="Vector_5" d="M62.5202 16.747C62.5253 16.7284 62.527 16.7216 62.5523 16.7031C62.7044 16.5637 63.0423 16.4023 63.2586 16.8838C63.2628 16.8923 63.2747 16.9328 63.273 16.9506L62.9426 18.1958C62.0826 21.5193 61.3037 24.8681 60.6769 28.2388C60.3677 29.9242 60.0957 31.6163 59.9208 33.3127C59.8355 34.16 59.7738 35.0091 59.767 35.8513V36.131L59.7713 36.316C59.773 36.4393 59.778 36.5626 59.7848 36.6851C59.7848 36.6851 59.7738 36.9741 59.7865 37.3584C59.7966 37.7437 59.838 38.2261 59.9428 38.5995C60.0357 38.9163 60.1514 39.0928 60.219 39.2043C60.2908 39.3125 60.3043 39.3674 60.252 39.3784C60.2266 39.3826 60.1852 39.3741 60.1295 39.3539C60.0712 39.3361 60.0095 39.2956 59.9385 39.2424C59.9014 39.217 59.8667 39.1858 59.8329 39.1494C59.7991 39.1139 59.7611 39.0759 59.7265 39.0345C59.6631 38.9492 59.5913 38.8537 59.5373 38.7473C59.5449 38.7718 59.4747 38.6578 59.3995 38.4643C59.3573 38.368 59.3235 38.2531 59.2813 38.1272C59.2475 38.0013 59.2061 37.8653 59.1782 37.7285C59.114 37.4548 59.0735 37.1768 59.0447 36.9681C59.0287 36.8634 59.0219 36.7764 59.0143 36.7156C59.0076 36.6547 59.0042 36.6192 59.0042 36.6192C58.9966 36.4908 58.9966 36.3633 58.9932 36.2349C58.9915 36.1707 58.9907 36.1073 58.9915 36.0431V35.8598C58.9907 35.7516 58.994 35.6443 58.9966 35.5362C59.016 34.6745 59.0844 33.8204 59.1765 32.9722C59.3607 31.275 59.6352 29.5956 59.9444 27.9262C60.5704 24.5867 61.3401 21.2836 62.1891 17.9998L62.5202 16.747Z" fill="#5E5E5E"/>
</g>
</g>
</g>
<defs>
<clipPath id="clip0_2937_214">
<rect width="73" height="40" fill="white"/>
</clipPath>
</defs>
</svg>
