<svg width="45" height="50" viewBox="0 0 45 50" fill="none" xmlns="http://www.w3.org/2000/svg">
<path d="M44.5616 10.8789C44.5416 10.8008 44.5216 10.7324 44.5016 10.6543C44.4816 10.5859 44.4516 10.5078 44.4215 10.4395C44.3915 10.3711 44.3515 10.3027 44.3215 10.2344C44.3015 10.2051 44.2815 10.166 44.2614 10.1367C44.2214 10.0684 44.1714 10.0098 44.1314 9.95117C44.0113 9.79492 43.8712 9.6582 43.7211 9.54102C43.6611 9.49219 43.591 9.44336 43.521 9.4043C43.491 9.38477 43.451 9.36524 43.4209 9.3457C43.3509 9.30664 43.2809 9.26758 43.2008 9.23828C43.1208 9.20899 43.0507 9.16992 42.9707 9.15039L33.2248 5.92773L32.8646 3.33008C32.6845 2.03125 31.4337 1.12305 30.0829 1.30859L22.3683 2.33398L16.5548 0.390625C16.3147 0.3125 16.0645 0.273438 15.8244 0.263672C15.7443 0.263672 15.6643 0.263672 15.5842 0.263672C15.5442 0.263672 15.5042 0.273437 15.4642 0.273437C14.9438 0.332031 14.4535 0.546875 14.0733 0.878906C13.7731 1.13281 13.543 1.46484 13.4029 1.85547L12.7725 3.57422L2.32626 4.96094C0.965444 5.14648 0.00486732 6.34766 0.194981 7.63672L3.23681 29.5312L0.184976 37.8418C0.144952 37.959 0.104928 38.0762 0.0849155 38.1934C0.0548975 38.3496 0.0448914 38.5059 0.0448914 38.6621C0.0448914 38.7793 0.0548973 38.8965 0.0749093 39.0039C0.0849153 39.082 0.104927 39.1504 0.124939 39.2285C0.134945 39.2676 0.144952 39.3066 0.154958 39.3359C0.204988 39.4824 0.265024 39.6191 0.345072 39.7559C0.365084 39.7852 0.385096 39.8242 0.405108 39.8535C0.485156 39.9805 0.585216 40.1074 0.685276 40.2148C0.735306 40.2734 0.795342 40.3223 0.855378 40.3809C0.945432 40.459 1.03549 40.5273 1.14555 40.5957C1.17557 40.6152 1.21559 40.6348 1.24561 40.6543C1.31565 40.6934 1.3857 40.7324 1.46574 40.7617C1.54579 40.791 1.61584 40.8301 1.69588 40.8496L4.95784 41.9238L5.42812 45.332C5.60823 46.6309 6.85898 47.5391 8.20979 47.3535L17.6054 46.1133L28.1117 49.6094C28.2318 49.6484 28.3519 49.6777 28.482 49.6973C28.602 49.7168 28.7221 49.7266 28.8522 49.7363C29.0523 49.7461 29.2524 49.7266 29.4526 49.6875C29.5726 49.668 29.6827 49.6289 29.7928 49.5898C29.9028 49.5508 30.0129 49.502 30.123 49.4434C30.263 49.375 30.3931 49.2871 30.5232 49.1895C30.8634 48.9258 31.1336 48.5645 31.2937 48.1445L32.7645 44.1309L35.9865 43.7012C37.3373 43.5254 38.2979 42.3242 38.1178 41.0254L36.9571 32.6953L37.1372 32.207L44.4916 12.1582C44.5516 12.002 44.5916 11.8457 44.6117 11.6895C44.6217 11.6113 44.6317 11.5332 44.6317 11.4551C44.6417 11.2988 44.6317 11.1426 44.6017 10.9961C44.5816 10.957 44.5716 10.918 44.5616 10.8789ZM30.3631 3.42773C30.4832 3.4082 30.6032 3.49609 30.6132 3.61328L30.8234 5.12695L27.0411 3.87695L30.3631 3.42773ZM2.42632 7.34375C2.40631 7.22656 2.49636 7.11914 2.61644 7.09961L11.922 5.86914L9.74071 11.8164L6.33867 12.2656L6.63885 14.4043L8.90021 14.1016L4.8878 25.0391L2.42632 7.34375ZM7.91962 45.2441C7.79955 45.2637 7.67948 45.1758 7.66947 45.0586L7.34928 42.7344L10.211 43.6816L12.9226 44.5801L7.91962 45.2441ZM35.8664 41.3184C35.8864 41.4356 35.7964 41.543 35.6763 41.5625L33.585 41.8359L34.9459 38.125L35.2861 37.1875L35.8664 41.3184ZM42.3503 11.4453L34.6357 32.4707L31.0735 42.168L29.1424 47.4316C29.1123 47.5098 29.0323 47.5684 28.9422 47.5781C28.9122 47.5781 28.8822 47.5781 28.8522 47.5684L22.5484 45.4785L4.62764 39.541L2.45634 38.8184C2.44633 38.8184 2.42632 38.8086 2.41632 38.7988C2.40631 38.7891 2.3963 38.7793 2.37629 38.7695C2.35628 38.75 2.33627 38.7305 2.32626 38.7012C2.29624 38.6523 2.29624 38.5938 2.31626 38.5352L3.89721 34.2383L5.5482 29.7363L14.4335 5.51758L15.274 3.23242L15.5242 2.54883C15.5342 2.53906 15.5342 2.51953 15.5442 2.50977C15.5842 2.45117 15.6543 2.41211 15.7243 2.40234C15.7543 2.40234 15.7843 2.40234 15.8144 2.41211L17.4253 2.94922L22.1181 4.50195L29.8328 7.06055L33.555 8.29102L42.2202 11.1621C42.2302 11.1621 42.2502 11.1719 42.2602 11.1816C42.3003 11.2012 42.3303 11.2402 42.3503 11.2695C42.3603 11.3379 42.3703 11.3965 42.3503 11.4453Z" fill="#F4982A"/>
<path d="M15.9144 10.7031L36.2967 17.4512L37.0471 15.4102L16.6649 8.66211L15.9144 10.7031Z" fill="#F4982A"/>
<path d="M13.6731 16.8166L34.0553 23.5647L34.8058 21.5237L14.4235 14.7756L13.6731 16.8166Z" fill="#F4982A"/>
<path d="M11.4617 22.832L31.844 29.5801L32.5944 27.5391L12.2122 20.791L11.4617 22.832Z" fill="#F4982A"/>
<path d="M9.18038 29.0527L29.5626 35.8008L30.3131 33.7598L9.93083 27.0117L9.18038 29.0527Z" fill="#F4982A"/>
<path d="M7.30926 34.1504L27.6915 40.8984L28.4419 38.8574L8.05971 32.1094L7.30926 34.1504Z" fill="#F4982A"/>
</svg>
