<svg width="47" height="50" viewBox="0 0 47 50" fill="none" xmlns="http://www.w3.org/2000/svg">
<g clip-path="url(#clip0_2988_278)">
<path d="M45.3125 0H12.5C11.6383 0 10.9375 0.700781 10.9375 1.5625V12.5H12.5V1.5625H18.75V4.6875H14.8437C14.4125 4.6875 14.0625 5.0375 14.0625 5.46875V12.5H15.625V6.25H18.75V7.8125C18.75 8.67422 19.4508 9.375 20.3125 9.375H37.5C38.3617 9.375 39.0625 8.67422 39.0625 7.8125V6.25H42.1875V25H43.75V5.46875C43.75 5.0375 43.4 4.6875 42.9687 4.6875H39.0625V1.5625H45.3125V48.4375H12.5V43.75H10.9375V49.2188C10.9375 49.65 11.2875 50 11.7187 50H45.3125C46.1742 50 46.875 49.2992 46.875 48.4375V1.5625C46.875 0.700781 46.1742 0 45.3125 0ZM37.5 7.8125H20.3125V1.5625H37.5V7.8125Z" fill="#F4982A"/>
<path d="M43.75 26.5625H42.1875V37.5H34.375C33.9437 37.5 33.5937 37.85 33.5937 38.2812V45.3125H15.625V43.75H14.0625V46.0938C14.0625 46.525 14.4125 46.875 14.8437 46.875H34.375C34.4109 46.875 34.4469 46.8727 34.482 46.868C34.4898 46.8672 34.4977 46.8656 34.5055 46.8641C34.5094 46.8633 34.5133 46.8625 34.518 46.8617C34.5234 46.8609 34.5281 46.8594 34.5328 46.8586C34.5398 46.857 34.5469 46.8562 34.5531 46.8539C34.5555 46.8531 34.557 46.8531 34.5594 46.8523C34.5805 46.8469 34.6016 46.8414 34.6227 46.8344C34.6234 46.8344 34.6242 46.8336 34.625 46.8336C34.6469 46.8266 34.6687 46.818 34.6898 46.8086C34.6906 46.8086 34.6914 46.8078 34.6914 46.8078C34.7125 46.7984 34.7336 46.7883 34.7539 46.7766C34.7547 46.7766 34.7547 46.7758 34.7555 46.7758C34.7648 46.7703 34.775 46.7648 34.7844 46.7586C34.7883 46.7563 34.7922 46.7539 34.7961 46.7508C34.8023 46.7469 34.8086 46.743 34.8148 46.7383C34.818 46.7359 34.8211 46.7336 34.8242 46.7313C34.8312 46.7266 34.8375 46.7219 34.8437 46.7172C34.85 46.7125 34.8555 46.7078 34.8617 46.7031C34.8656 46.7 34.8687 46.6977 34.8727 46.6945C34.882 46.6867 34.8914 46.6789 34.9008 46.6703L43.4945 38.8578C43.5078 38.8461 43.5203 38.8336 43.532 38.8211C43.5352 38.8172 43.5391 38.8141 43.5422 38.8102C43.5523 38.7992 43.5625 38.7875 43.5719 38.7758C43.5734 38.7734 43.5758 38.7719 43.5773 38.7695C43.5883 38.7563 43.5984 38.7422 43.6078 38.7289C43.6109 38.725 43.6133 38.7211 43.6164 38.7164C43.6242 38.7055 43.6312 38.6938 43.6383 38.682C43.6406 38.6781 43.643 38.675 43.6445 38.6711C43.6531 38.6562 43.6609 38.6422 43.668 38.6266C43.6703 38.6227 43.6719 38.618 43.6742 38.6141C43.6797 38.6023 43.6852 38.5898 43.6906 38.5773C43.6922 38.5727 43.6945 38.5687 43.6961 38.5641C43.7023 38.5484 43.7078 38.532 43.7133 38.5156C43.7141 38.5133 43.7148 38.5109 43.7156 38.5086C43.7203 38.4938 43.7242 38.4789 43.7281 38.4641C43.7289 38.4602 43.7297 38.4563 43.7312 38.4523C43.7391 38.418 43.7445 38.3836 43.7477 38.3484C43.7477 38.3445 43.7484 38.3398 43.7484 38.3359C43.7492 38.3219 43.75 38.307 43.7508 38.2922C43.7508 38.2891 43.7508 38.2852 43.7508 38.282C43.7508 38.2805 43.7508 38.2789 43.7508 38.2773V26.5625H43.75ZM35.1562 39.0625H40.9476L37.1539 42.5117L35.1562 44.3273V39.0625Z" fill="#F4982A"/>
<path d="M23.4375 3.90625H21.875V5.46875H23.4375V3.90625Z" fill="#F4982A"/>
<path d="M35.9375 3.90625H34.375V5.46875H35.9375V3.90625Z" fill="#F4982A"/>
<path d="M38.2812 12.5H20.3125C19.8812 12.5 19.5312 12.85 19.5312 13.2812V16.4062H21.0937V14.0625H37.5V25H25.7812V26.5625H38.2812C38.7125 26.5625 39.0625 26.2125 39.0625 25.7812V13.2812C39.0625 12.85 38.7125 12.5 38.2812 12.5Z" fill="#F4982A"/>
<path d="M33.5937 29.6875H25V31.25H33.5937V29.6875Z" fill="#F4982A"/>
<path d="M39.8437 29.6875H35.1562V31.25H39.8437V29.6875Z" fill="#F4982A"/>
<path d="M31.25 34.375H22.6562V35.9375H31.25V34.375Z" fill="#F4982A"/>
<path d="M39.8437 34.375H32.8125V35.9375H39.8437V34.375Z" fill="#F4982A"/>
<path d="M32.0312 39.0625H18.75V40.625H32.0312V39.0625Z" fill="#F4982A"/>
<path d="M32.8125 3.90625H25V5.46875H32.8125V3.90625Z" fill="#F4982A"/>
<path d="M12.5 42.1875C12.6649 42.1875 12.8297 42.136 12.9688 42.0313L16.4164 39.4454C20.3985 36.4594 23.0672 32.1157 23.9321 27.2149L24.9883 21.2297C25.0469 20.8969 24.8852 20.5633 24.5868 20.4047L12.868 14.1547C12.6383 14.0321 12.3625 14.0321 12.1328 14.1547L0.414095 20.4047C0.115658 20.5641 -0.0460609 20.8969 0.0125329 21.2297L1.06019 27.1727C1.91644 32.0297 4.55159 36.3477 8.47894 39.3321L12.0282 42.029C12.1672 42.1344 12.3336 42.1875 12.5 42.1875ZM2.59847 26.9008L1.64925 21.5165L12.5 15.729L23.3508 21.5165L22.393 26.943C21.5977 31.4516 19.1422 35.4477 15.4789 38.1954L12.5032 40.4274L9.42347 38.0875C5.81019 35.3422 3.38675 31.3696 2.59847 26.9008Z" fill="#F4982A"/>
<path d="M15.4961 36.5188C18.4586 34.2969 20.4438 31.0656 21.0875 27.4195L21.8625 23.0305C21.9211 22.6977 21.7594 22.3641 21.461 22.2055L17.5532 20.1211L16.818 21.5L20.2258 23.318L19.5493 27.1484C18.975 30.4031 17.2032 33.2867 14.5594 35.2703L12.5032 36.8125L10.3703 35.1914C7.76254 33.2102 6.01332 30.343 5.44457 27.118L4.77347 23.3172L8.1805 21.5L7.44535 20.1211L3.53832 22.2047C3.23988 22.3641 3.07816 22.6969 3.13675 23.0297L3.90472 27.3875C4.54222 31.0008 6.50238 34.2141 9.42425 36.4344L12.0274 38.4117C12.1672 38.518 12.3336 38.5711 12.5 38.5711C12.6649 38.5711 12.8297 38.5195 12.9688 38.4148L15.4961 36.5188Z" fill="#F4982A"/>
<path d="M12.4992 19.1968L15.2578 20.6679L15.993 19.289L12.8664 17.6218C12.6367 17.4991 12.3609 17.4991 12.1312 17.6218L9.00703 19.2882L9.74218 20.6671L12.4992 19.1968Z" fill="#F4982A"/>
<path d="M11.6891 31.2501C11.6992 31.2501 11.7086 31.2501 11.7188 31.2501C11.9438 31.2501 12.1578 31.1533 12.3063 30.9837L17.775 24.7337L16.5992 23.7048L11.7649 29.2298L10 26.8751L8.75003 27.8126L11.0938 30.9376C11.2352 31.1259 11.4539 31.2408 11.6891 31.2501Z" fill="#F4982A"/>
<path d="M13.2812 21.875H11.7187V23.4375H13.2812V21.875Z" fill="#F4982A"/>
<path d="M13.2812 32.8125H11.7187V34.375H13.2812V32.8125Z" fill="#F4982A"/>
</g>
<defs>
<clipPath id="clip0_2988_278">
<rect width="46.875" height="50" fill="white"/>
</clipPath>
</defs>
</svg>
