<svg width="65" height="63" viewBox="0 0 65 63" fill="none" xmlns="http://www.w3.org/2000/svg">
<g clip-path="url(#clip0_1295_425)">
<path d="M62.6274 31.8874C63.7195 32.1024 64.4308 33.1609 64.217 34.2517L63.4203 38.3093C63.2 39.4325 62.0859 40.1529 60.9614 39.8769C59.9081 39.6191 59.2694 38.5425 59.478 37.4789L59.5 37.3701L54.2479 37.6097C54.0899 37.6162 53.9525 37.7211 53.9033 37.8727C53.3903 39.4222 52.7153 40.8991 51.8978 42.2801C51.8149 42.42 51.8279 42.5975 51.9328 42.7219L54.2557 45.4814C54.7169 45.0422 55.3193 44.8142 55.9282 44.8142C56.4412 44.8142 56.9595 44.9761 57.3986 45.313C58.4623 46.1266 58.6644 47.6488 57.8508 48.7137L57.1771 49.5934C56.3868 50.6272 54.9138 50.9045 53.8411 50.1647C52.9174 49.5286 52.5832 48.3847 52.9174 47.391L49.571 45.9206C49.4195 45.8545 49.2446 45.8934 49.1344 46.0151C47.585 47.7162 45.7816 49.1801 43.7839 50.3487C43.6466 50.429 43.5727 50.5845 43.5986 50.7412L44.455 55.9648L45.196 55.6681C46.2597 55.2432 47.4697 55.7873 47.8493 56.8821C48.2043 57.9068 47.6472 59.0275 46.6406 59.4291L42.8537 60.9448C41.7914 61.3698 40.5814 60.8257 40.2018 59.7309C39.8468 58.7062 40.4039 57.5855 41.4105 57.1826L41.5128 57.1425L38.458 52.862C38.366 52.7325 38.2041 52.6755 38.0499 52.7156C36.2245 53.1885 34.3097 53.4424 32.3353 53.4424C30.7729 53.4424 29.2493 53.2831 27.7763 52.9825C27.6209 52.9514 27.4615 53.0175 27.376 53.1509L24.3198 57.9457L24.4274 57.9846C25.4223 58.3473 26.039 59.2866 26.039 60.2867C26.039 60.5666 25.9911 60.8503 25.89 61.1275C25.89 62.5617 24.7875 63.3338 23.4402 62.8415L19.6844 61.4721C18.4278 61.0148 17.7722 59.6351 18.2062 58.3745C18.6519 57.0751 20.1327 56.4196 21.423 56.8898L21.5098 56.9209L22.1317 51.3022C22.1498 51.1441 22.0669 50.9939 21.9257 50.92C19.5471 49.6919 17.4134 48.0556 15.6165 46.1032C15.5076 45.9853 15.3379 45.9465 15.1902 46.0074L10.6066 47.8872C11.1249 48.8562 10.8334 50.0844 9.88763 50.7063C8.90043 51.3553 7.56733 51.0535 6.89366 50.0844L5.7199 48.3937C5.06307 47.4493 5.21594 46.133 6.12022 45.4205C7.0841 44.6613 8.45866 44.8582 9.18027 45.813L12.4087 42.1648C12.5163 42.043 12.5344 41.8668 12.4554 41.7256C11.13 39.3367 10.2232 36.6834 9.83322 33.8657C9.81119 33.7076 9.69589 33.5793 9.54172 33.5444L4.38292 32.3525L4.37773 32.9575C4.37255 33.5625 4.12381 34.1105 3.72349 34.5056C3.32447 34.9021 2.77516 35.1456 2.16885 35.1456C0.964009 35.1456 -0.0115258 34.1623 0.00013396 32.9575L0.0338178 29.2095C0.044182 27.9839 1.05729 26.9514 2.28156 26.9838C3.46957 27.0149 4.4179 27.9917 4.41142 29.1836L9.53265 27.9826C9.68812 27.9464 9.80342 27.8181 9.82415 27.6601C10.2258 24.6803 11.2065 21.8833 12.6484 19.3855C12.7287 19.2456 12.7145 19.0707 12.6095 18.9463L10.1675 16.078L9.955 16.3578C9.29687 17.2284 8.0402 17.38 7.19163 16.674C6.39617 16.0106 6.29901 14.8213 6.92345 13.9961L8.55064 11.8455C8.92894 11.3467 9.50286 11.0837 10.0845 11.0837C10.4875 11.0837 10.8943 11.2107 11.2415 11.4724C12.046 12.08 12.2351 13.1967 11.704 14.0337L15.119 15.5106C15.2693 15.5753 15.4429 15.5365 15.5543 15.416C17.1659 13.6489 19.0535 12.1383 21.1497 10.9503C21.287 10.8713 21.3634 10.7171 21.3401 10.5603L20.5537 5.32509L19.8075 5.6127C18.74 6.02339 17.5364 5.46242 17.1724 4.36381C16.8304 3.33386 17.403 2.221 18.4148 1.83234L22.2211 0.368392C23.2899 -0.0422909 24.4922 0.517379 24.8562 1.61728C25.1982 2.64594 24.6269 3.7588 23.6138 4.14875L23.5114 4.18762L26.5067 8.50692C26.5974 8.63777 26.758 8.69736 26.9122 8.65979C28.6508 8.23356 30.4658 8.00814 32.3353 8.00814H32.3379C32.5011 8.00814 32.6475 7.90838 32.7019 7.75422L33.6943 4.97919C32.5452 4.61903 31.7795 3.48544 31.9259 2.2495C32.093 0.849035 33.4339 -0.145933 34.8344 0.0302589L36.1973 0.201269C37.5861 0.376166 38.6277 1.61988 38.4761 3.01257C38.3569 4.09693 37.577 4.94162 36.5872 5.20072L36.9318 8.20895C36.95 8.37089 37.0705 8.50303 37.2311 8.53801C39.5346 9.04457 41.7072 9.90091 43.6893 11.0475C43.828 11.1265 43.999 11.1148 44.122 11.0138L48.2328 7.67778L47.6083 7.18159C46.7105 6.46905 46.5835 5.1489 47.3453 4.27701C48.0579 3.45953 49.3081 3.38698 50.1566 4.06195L53.3501 6.59731C54.2479 7.30855 54.3749 8.62999 53.6131 9.50189C52.9006 10.3181 51.6504 10.3906 50.8018 9.71695L50.715 9.64828L48.5139 14.4275C48.4465 14.5713 48.4776 14.741 48.589 14.855C50.1385 16.442 51.4573 18.2558 52.4912 20.2405C52.5663 20.3843 52.7231 20.466 52.8837 20.4439L56.0047 20.0074C55.546 18.7274 56.2262 17.3088 57.5347 16.8799C58.7823 16.4706 60.127 17.1637 60.5857 18.3944L61.3047 20.3222C61.7581 21.5413 61.214 22.9365 60.0221 23.4548C58.8794 23.9509 57.5904 23.5027 56.9763 22.4896L54.3865 24.2463C54.2505 24.3383 54.1896 24.5067 54.2337 24.6648C54.7661 26.5951 55.0511 28.6265 55.0511 30.7253C55.0511 31.0764 55.0434 31.4249 55.0265 31.7708C55.0201 31.9301 55.1094 32.0765 55.2545 32.14L60.1102 34.2608L60.2631 33.477C60.4781 32.3849 61.5366 31.6736 62.6274 31.8874Z" fill="#FDB156"/>
<path d="M42.1995 22.2226C43.9708 22.2226 45.4067 21.022 45.4067 19.5409C45.4067 18.0599 43.9708 16.8593 42.1995 16.8593C40.4282 16.8593 38.9922 18.0599 38.9922 19.5409C38.9922 21.022 40.4282 22.2226 42.1995 22.2226Z" fill="#FED402"/>
<path d="M30.6256 39.746C32.5616 39.746 34.1312 38.1765 34.1312 36.2405C34.1312 34.3044 32.5616 32.7349 30.6256 32.7349C28.6895 32.7349 27.12 34.3044 27.12 36.2405C27.12 38.1765 28.6895 39.746 30.6256 39.746Z" fill="#FED402"/>
<path d="M44.2879 36.9241C45.6741 36.9241 46.7979 35.8004 46.7979 34.4142C46.7979 33.028 45.6741 31.9042 44.2879 31.9042C42.9017 31.9042 41.7779 33.028 41.7779 34.4142C41.7779 35.8004 42.9017 36.9241 44.2879 36.9241Z" fill="white"/>
<path d="M35.0181 49.1034C36.3658 49.1034 37.4583 48.0109 37.4583 46.6631C37.4583 45.3154 36.3658 44.2229 35.0181 44.2229C33.6704 44.2229 32.5778 45.3154 32.5778 46.6631C32.5778 48.0109 33.6704 49.1034 35.0181 49.1034Z" fill="white"/>
<path d="M18.5203 29.6373C18.5203 20.9044 22.6863 13.1427 29.1366 8.23148C28.3835 8.33771 27.64 8.48126 26.9122 8.65978C26.758 8.69735 26.5974 8.63776 26.5067 8.50691L23.5114 4.18761L23.6138 4.14874C24.6269 3.75879 25.1982 2.64592 24.8562 1.61727C24.4921 0.517367 23.2899 -0.0423027 22.2211 0.368381L18.4148 1.83233C17.403 2.22099 16.8304 3.33385 17.1724 4.3638C17.5364 5.46241 18.74 6.02337 19.8075 5.61269L20.5537 5.32508L21.3401 10.5603C21.3634 10.7171 21.287 10.8713 21.1497 10.9503C19.0535 12.1383 17.1659 13.6489 15.5543 15.416C15.4429 15.5365 15.2693 15.5753 15.119 15.5105L11.704 14.0336C12.2351 13.1967 12.046 12.08 11.2415 11.4724C10.8943 11.2107 10.4875 11.0837 10.0845 11.0837C9.50286 11.0837 8.92894 11.3467 8.55064 11.8455L6.92345 13.9961C6.29901 14.8213 6.39617 16.0106 7.19163 16.6739C8.0402 17.38 9.29687 17.2284 9.955 16.3578L10.1675 16.078L12.6095 18.9463C12.7145 19.0707 12.7287 19.2456 12.6484 19.3855C11.2065 21.8833 10.2258 24.6803 9.82415 27.66C9.80342 27.8181 9.68812 27.9464 9.53265 27.9826L4.41142 29.1836C4.41789 27.9917 3.46957 27.0149 2.28156 26.9838C1.05729 26.9514 0.044182 27.9839 0.0338178 29.2095L0.00013396 32.9575C-0.0115258 34.1623 0.964009 35.1456 2.16885 35.1456C2.77516 35.1456 3.32447 34.9021 3.72349 34.5056C4.12381 34.1105 4.37255 33.5625 4.37773 32.9575L4.38292 32.3525L9.54172 33.5443C9.69589 33.5793 9.81119 33.7076 9.83322 33.8656C10.2232 36.6834 11.13 39.3367 12.4554 41.7256C12.5344 41.8668 12.5163 42.043 12.4087 42.1648L9.18027 45.813C8.45866 44.8582 7.0841 44.6613 6.12022 45.4205C5.21594 46.133 5.06307 47.4493 5.7199 48.3937L6.89365 50.0844C7.56733 51.0534 8.90043 51.3553 9.88763 50.7062C10.8334 50.0844 11.1249 48.8562 10.6066 47.8872L15.1902 46.0074C15.3379 45.9465 15.5076 45.9853 15.6165 46.1032C17.4134 48.0556 19.5471 49.6918 21.9257 50.92C22.0669 50.9939 22.1498 51.1441 22.1317 51.3022L21.5098 56.9209L21.423 56.8898C20.1327 56.4195 18.6519 57.0751 18.2062 58.3745C17.7722 59.635 18.4278 61.0148 19.6844 61.4721L23.4402 62.8415C24.7875 63.3338 25.89 62.5616 25.89 61.1275C25.9911 60.8503 26.039 60.5665 26.039 60.2867C26.039 59.2865 25.4223 58.3473 24.4274 57.9845L24.3198 57.9457L27.376 53.1509C27.4615 53.0175 27.6209 52.9514 27.7763 52.9825C29.2493 53.2831 30.7729 53.4424 32.3353 53.4424C32.5191 53.4424 32.7059 53.4401 32.8887 53.4358C24.3477 48.9319 18.5203 39.9642 18.5203 29.6373Z" fill="#F4982A"/>
<path d="M19.7488 43.368C21.1528 43.368 22.2909 42.2298 22.2909 40.8259C22.2909 39.4219 21.1528 38.2838 19.7488 38.2838C18.3449 38.2838 17.2067 39.4219 17.2067 40.8259C17.2067 42.2298 18.3449 43.368 19.7488 43.368Z" fill="#FED402"/>
<path d="M38.5628 29.6373H37.7039C37.1671 29.6373 36.7322 29.2023 36.7322 28.6656C36.7322 28.129 37.1671 27.694 37.7039 27.694H38.5628C39.0995 27.694 39.5344 28.129 39.5344 28.6656C39.5344 29.2023 39.0995 29.6373 38.5628 29.6373Z" fill="white"/>
<path d="M27.1199 46.6217H26.2374C25.7006 46.6217 25.2657 46.1867 25.2657 45.6501C25.2657 45.1134 25.7006 44.6784 26.2374 44.6784H27.1199C27.6566 44.6784 28.0915 45.1134 28.0915 45.6501C28.0915 46.1867 27.6566 46.6217 27.1199 46.6217Z" fill="white"/>
<path d="M18.0567 32.4716H17.2066C16.6699 32.4716 16.235 32.0366 16.235 31.5C16.235 30.9634 16.6699 30.5284 17.2066 30.5284H18.0567C18.5935 30.5284 19.0284 30.9634 19.0284 31.5C19.0284 32.0366 18.5935 32.4716 18.0567 32.4716Z" fill="#FED402"/>
<path d="M35.3141 15.4721H34.131C33.5943 15.4721 33.1594 15.037 33.1594 14.5004C33.1594 13.9638 33.5943 13.5288 34.131 13.5288H35.3141C35.8509 13.5288 36.2858 13.9638 36.2858 14.5004C36.2858 15.037 35.8509 15.4721 35.3141 15.4721Z" fill="white"/>
<path d="M43.0843 43.4586H41.7779C41.2412 43.4586 40.8063 43.0236 40.8063 42.487C40.8063 41.9504 41.2412 41.5154 41.7779 41.5154H43.0843C43.6211 41.5154 44.056 41.9504 44.056 42.487C44.056 43.0236 43.6209 43.4586 43.0843 43.4586Z" fill="#FED402"/>
<path d="M28.2642 26.6037C31.1655 24.316 31.9685 20.4972 30.0579 18.0742C28.1473 15.6512 24.2465 15.5416 21.3453 17.8293C18.4441 20.117 17.641 23.9358 19.5516 26.3588C21.4622 28.7818 25.363 28.8914 28.2642 26.6037Z" fill="#FED402"/>
</g>
<defs>
<clipPath id="clip0_1295_425">
<rect width="64.255" height="63" fill="white"/>
</clipPath>
</defs>
</svg>
