<svg width="63" height="63" viewBox="0 0 63 63" fill="none" xmlns="http://www.w3.org/2000/svg">
<g clip-path="url(#clip0_1294_377)">
<path d="M63 31.5C63 34.2112 60.2478 36.5245 59.5794 39.0249C58.8879 41.6121 60.0944 44.9878 58.7838 47.2531C57.4544 49.5509 53.9152 50.1858 52.0503 52.0506C50.1855 53.9153 49.5506 57.4545 47.2528 58.7839C44.9877 60.0945 41.612 58.888 39.0248 59.5794C36.5244 60.2478 34.2112 63 31.5 63C28.7888 63 26.4755 60.2478 23.9751 59.5794C21.3879 58.8879 18.0122 60.0944 15.7469 58.7838C13.4491 57.4544 12.8142 53.9152 10.9494 52.0503C9.08467 50.1855 5.54548 49.5506 4.21608 47.2528C2.90551 44.9877 4.11198 41.612 3.42058 39.0248C2.75219 36.5245 0 34.2112 0 31.5C0 28.7888 2.75219 26.4755 3.42058 23.9751C4.1121 21.3879 2.90563 18.0122 4.2162 15.7469C5.5456 13.4491 9.0848 12.8142 10.9497 10.9494C12.8145 9.08467 13.4494 5.54548 15.7472 4.21608C18.0123 2.90551 21.388 4.11198 23.9752 3.42058C26.4755 2.75219 28.7888 0 31.5 0C34.2112 0 36.5245 2.75219 39.0249 3.42058C41.6121 4.1121 44.9878 2.90563 47.2531 4.2162C49.5509 5.5456 50.1858 9.0848 52.0506 10.9497C53.9153 12.8145 57.4545 13.4494 58.7839 15.7472C60.0945 18.0123 58.888 21.388 59.5794 23.9752C60.2478 26.4756 63 28.7889 63 31.5Z" fill="#FDB156"/>
<path d="M63 31.5C63 28.7888 60.2478 26.4755 59.5794 23.9751C58.8879 21.3879 60.0945 18.0122 58.7839 15.747C57.4545 13.4493 53.9153 12.8143 52.0504 10.9496C50.1856 9.08479 49.5507 5.5456 47.2529 4.21607C46.3173 3.67467 45.1922 3.56282 44.0114 3.56934C45.0301 5.15541 45.7278 7.16219 46.9798 8.41431C48.8446 10.2791 52.3838 10.914 53.7133 13.2118C55.0238 15.477 53.8172 18.8526 54.5088 21.4398C55.1772 23.9402 57.9294 26.2535 57.9294 28.9647C57.9294 31.676 55.1772 33.9892 54.5088 36.4897C53.8172 39.0769 55.0237 42.4525 53.7132 44.7177C52.3838 47.0155 48.8446 47.6504 46.9797 49.5153C45.1149 51.3801 44.48 54.9193 42.1822 56.2487C39.917 57.5592 36.5413 56.3528 33.9542 57.0442C31.4537 57.7125 29.1404 60.4647 26.4292 60.4647C26.244 60.4647 26.0608 60.4518 25.8792 60.4277C27.6932 61.4826 29.4869 63 31.5 63C34.2112 63 36.5245 60.2478 39.0249 59.5794C41.6121 58.8879 44.9878 60.0945 47.2529 58.7839C49.5507 57.4545 50.1856 53.9153 52.0504 52.0505C53.9152 50.1858 57.4544 49.5508 58.7839 47.2529C60.0945 44.9878 58.888 41.6121 59.5795 39.0249C60.2478 36.5245 63 34.2112 63 31.5Z" fill="#F4982A"/>
<path d="M31.5 43.75C38.2655 43.75 43.75 38.2655 43.75 31.5C43.75 24.7345 38.2655 19.2499 31.5 19.2499C24.7345 19.2499 19.2499 24.7345 19.2499 31.5C19.2499 38.2655 24.7345 43.75 31.5 43.75Z" fill="#F2FBFF"/>
<path d="M36.5908 25.375L30.2925 31.6732L26.4079 27.7887L22.9944 31.202L30.2925 38.5L40.0041 28.7884L36.5908 25.375Z" fill="#FED402"/>
<path d="M11.6807 37.6196C13.1304 37.6196 14.3056 36.4444 14.3056 34.9946C14.3056 33.5449 13.1304 32.3697 11.6807 32.3697C10.231 32.3697 9.05573 33.5449 9.05573 34.9946C9.05573 36.4444 10.231 37.6196 11.6807 37.6196Z" fill="#FED402"/>
<path d="M51.3193 37.6196C52.769 37.6196 53.9442 36.4444 53.9442 34.9946C53.9442 33.5449 52.769 32.3697 51.3193 32.3697C49.8695 32.3697 48.6943 33.5449 48.6943 34.9946C48.6943 36.4444 49.8695 37.6196 51.3193 37.6196Z" fill="#FED402"/>
<path d="M39.2433 53.7491C39.3927 54.2364 39.1187 54.7525 38.6314 54.9019C37.0424 55.3891 35.3806 55.7117 33.6924 55.8611C33.6647 55.8635 33.6373 55.8646 33.61 55.8646C33.1374 55.8646 32.7348 55.5035 32.6918 55.0239C32.6305 54.338 32.1386 48.8294 32.0787 48.1575C32.0563 47.9065 32.1376 47.6573 32.3035 47.4677C32.7925 46.9089 33.2251 47.3909 36.0915 46.5398C36.5801 46.3947 37.0937 46.6732 37.2388 47.1618C37.3838 47.6504 37.1054 48.1641 36.6168 48.3091C35.8919 48.5243 34.8717 48.7608 33.9975 48.8943L34.1401 50.4908C35.1033 50.3473 36.2924 50.0768 37.0938 49.8377C37.5824 49.6915 38.0962 49.9701 38.2418 50.4585C38.3875 50.9468 38.1096 51.4608 37.6211 51.6065C36.7185 51.8756 35.4031 52.1767 34.3045 52.3322L34.4465 53.9227C35.6903 53.7615 36.9124 53.4983 38.0902 53.1372C38.5774 52.9882 39.0938 53.2617 39.2433 53.7491ZM45.0816 49.581C44.0835 50.3321 43.026 50.9992 41.9286 51.5714L41.2415 50.108C42.0329 49.6989 42.8359 49.257 44.1156 48.304C44.5244 47.9995 44.609 47.4214 44.3046 47.0126C44.0001 46.6038 43.4219 46.5193 43.0132 46.8236C41.881 47.6669 41.1795 48.0605 40.4564 48.4361L39.7794 46.9944C40.319 46.7084 41.0905 46.258 42.043 45.5501C42.452 45.2459 42.5372 44.6679 42.2331 44.2589C41.9289 43.8501 41.3511 43.7646 40.9419 44.0687C39.4209 45.1993 38.4962 45.5576 38.1141 45.7705C37.691 46.0066 37.5224 46.5299 37.7284 46.9686L39.1934 50.0884L40.6582 53.2084C40.8744 53.6689 41.4232 53.8686 41.8858 53.6516C43.3947 52.9435 44.8433 52.0701 46.1913 51.0558C46.5987 50.7495 46.6804 50.1709 46.3739 49.7636C46.0676 49.3563 45.4888 49.2745 45.0816 49.581ZM23.8844 49.0891C22.8817 48.647 22.0436 48.205 21.211 47.674L22.137 46.3642C22.8735 46.8279 23.6315 47.2264 24.5065 47.6135C24.9728 47.8197 25.5177 47.6091 25.7239 47.1431C25.9301 46.677 25.7195 46.1319 25.2535 45.9256C24.1885 45.4544 23.3183 44.9665 22.4323 44.3436C22.016 44.051 21.4415 44.1505 21.1479 44.566L17.1686 50.1951C16.8743 50.6113 16.9732 51.1871 17.3895 51.4813C17.8074 51.7768 18.3827 51.6751 18.6757 51.2605L20.1444 49.1829C21.0805 49.786 22.0161 50.2824 23.1396 50.7778C23.6058 50.9836 24.1506 50.7721 24.3564 50.3057C24.562 49.8395 24.3507 49.2947 23.8844 49.0891ZM31.3112 49.8838C31.272 50.5488 31.002 51.1432 30.5709 51.5781C30.9417 52.0808 31.1391 52.6981 31.102 53.3245L30.9973 55.0462C30.9676 55.5359 30.5611 55.9131 30.0771 55.9131C29.5416 55.9131 29.123 55.4624 29.1551 54.9343L29.2597 53.2141C29.2811 52.8524 29.0291 52.5429 28.7699 52.3972C28.493 52.2376 28.3188 52.327 26.8682 51.9829L26.198 54.4471C26.065 54.9361 25.5604 55.2297 25.0652 55.0955C24.5735 54.9617 24.2833 54.4545 24.4169 53.9627L25.3216 50.6367C25.3218 50.636 25.322 50.6351 25.3222 50.6344L26.2261 47.3108C26.3567 46.8308 26.8444 46.5406 27.3282 46.6547C28.6801 46.9731 29.0766 47.0353 29.1454 47.0449C30.3025 47.1411 31.4007 48.3658 31.3112 49.8838ZM27.3526 50.2009C27.9445 50.3411 27.9181 50.3328 28.716 50.4635C28.7184 50.4639 28.7206 50.4642 28.7229 50.4646C29.064 50.5157 29.4402 50.2581 29.4687 49.775C29.4941 49.3451 29.2428 48.9253 28.9309 48.8767L28.9311 48.8752C28.9298 48.8751 28.9284 48.875 28.9269 48.8748L28.9268 48.8759C28.6796 48.8356 28.5782 48.8294 27.7744 48.6506L27.3526 50.2009ZM18.1466 14.6662C17.1805 13.3375 17.5188 11.3687 19.2293 10.3375C19.2377 10.3324 19.2464 10.3273 19.2551 10.3225C21.0079 9.34123 22.8911 10.0523 23.5515 11.531L24.1141 12.7836C24.1146 12.7847 24.1152 12.7858 24.1157 12.7869L25.528 15.9311C25.7368 16.396 25.5293 16.9423 25.0643 17.1511C24.5991 17.3597 24.0531 17.1524 23.8442 16.6874L22.8238 14.4154C21.9122 14.884 21.4298 15.1814 21.0054 15.4603L22.4766 17.4845C22.7763 17.8968 22.6849 18.4739 22.2727 18.7735C21.861 19.0729 21.2838 18.9827 20.9837 18.5696L18.9618 15.7877C18.9602 15.7856 18.9587 15.7836 18.9571 15.7814L18.1466 14.6662ZM19.6396 13.5809L19.9151 13.9602C20.5062 13.5738 21.2994 13.1045 22.0623 12.72L21.8671 12.2856C21.6411 11.779 20.9485 11.4989 20.1713 11.9248C19.4128 12.3887 19.3043 13.12 19.6396 13.5809ZM51.7545 17.7912C50.7464 16.3213 49.7831 15.1724 48.5336 13.9493C48.3581 13.7776 48.1189 13.6781 47.8762 13.686C47.6307 13.6891 47.3967 13.79 47.2257 13.9661C46.7332 14.4739 42.9261 18.398 42.4256 18.9139C42.0709 19.2795 42.0796 19.8631 42.4445 20.2182C43.219 20.9714 43.9181 21.8056 44.5224 22.6978C44.807 23.118 45.3799 23.2314 45.8041 22.9444C46.2261 22.6586 46.3364 22.0848 46.0506 21.6628C45.5479 20.9206 44.9865 20.2144 44.3754 19.5547L45.4915 18.4042C46.178 19.1355 46.7568 19.8637 47.3794 20.7695C47.6681 21.1893 48.2427 21.2956 48.6628 21.0072C49.0828 20.7184 49.1892 20.1438 48.9005 19.7238C48.2032 18.7094 47.5556 17.8989 46.7782 17.078L47.8943 15.9277C48.7563 16.8321 49.4674 17.7196 50.2323 18.835C50.5198 19.254 51.0936 19.3631 51.5154 19.0741C51.9357 18.7861 52.0428 18.2116 51.7545 17.7912ZM17.1979 22.9423C17.624 23.2308 18.1964 23.1141 18.4797 22.6961C18.7655 22.2741 18.6554 21.7003 18.2334 21.4143L16.1624 20.0109C16.5821 19.4511 17.0327 18.9135 17.5108 18.402L19.2524 20.1968C19.6074 20.5626 20.1915 20.5713 20.5573 20.2165C20.9231 19.8615 20.9319 19.2773 20.577 18.9116L18.1766 16.4378C18.175 16.4362 18.1734 16.4346 18.1718 16.433L15.7761 13.9642C15.4213 13.5985 14.8368 13.5894 14.4713 13.9447C14.1055 14.2995 14.0967 14.8839 14.4516 15.2494L16.224 17.0758C15.6573 17.677 15.1253 18.3117 14.6328 18.9743L12.5269 17.547C12.1048 17.2609 11.5309 17.371 11.2452 17.7931C10.9593 18.215 11.0694 18.7889 11.4913 19.0747L14.3381 21.0042C14.3402 21.0057 14.3423 21.0072 14.3445 21.0087L17.1979 22.9423ZM37.4527 16.6398C37.5401 16.8687 37.715 17.0537 37.9389 17.1537C38.8999 17.5827 39.8387 18.1285 40.7294 18.7762C41.1427 19.0764 41.7193 18.984 42.0186 18.5726C42.3184 18.1602 42.2271 17.5832 41.815 17.2833C41.0789 16.748 40.3117 16.2745 39.5257 15.8694L41.9841 10.4023C42.1931 9.93739 41.9858 9.39106 41.5209 9.18213C41.0559 8.97319 40.5097 9.18028 40.3008 9.64528L37.4735 15.9326C37.3728 16.1561 37.3654 16.4106 37.4527 16.6398ZM27.8326 12.688C27.8857 12.68 27.8561 12.6842 28.4623 12.5775C28.7026 12.5441 28.8679 12.6288 28.965 12.7066C29.121 12.8316 29.2156 13.0237 29.2315 13.2475C29.26 13.6507 29.0511 13.9738 28.8937 14.0747C28.8856 14.08 28.8774 14.0853 28.8694 14.0908C28.6698 14.2056 28.005 14.351 27.7176 14.149C27.3008 13.8561 26.7251 13.9566 26.4319 14.3732C26.1388 14.7902 26.2392 15.3657 26.6561 15.6589C27.1084 15.9769 27.6382 16.0935 28.146 16.0935C28.8761 16.0935 29.5606 15.8521 29.9028 15.6201C30.6736 15.1183 31.1431 14.115 31.0726 13.1168C31.0205 12.3843 30.6729 11.7095 30.1187 11.2658C29.5733 10.8292 28.884 10.6474 28.1788 10.7537C28.1737 10.7544 28.1684 10.7553 28.1632 10.7561C28.1509 10.7582 27.4709 10.8782 27.4508 10.8823C26.9976 10.9731 26.4944 10.6883 26.3743 10.2712C26.254 9.85359 26.6067 9.56099 26.7403 9.46772C27.0811 9.26494 27.6904 9.21843 27.9289 9.17253C28.1484 9.14435 28.3358 9.15875 28.4725 9.21486C28.9437 9.40804 29.483 9.18274 29.6765 8.7111C29.8699 8.23959 29.6444 7.70052 29.1728 7.50709C28.7212 7.3219 28.2066 7.26838 27.6441 7.34873C26.9822 7.44089 26.3235 7.55299 25.7514 7.90908C25.742 7.91499 25.7327 7.92102 25.7234 7.92705C24.7338 8.59335 24.293 9.71406 24.6006 10.7821C24.9762 12.0858 26.387 12.9771 27.8326 12.688ZM33.5883 12.2368C34.0845 12.5194 34.4623 12.569 34.7127 12.6021C34.7586 12.6081 34.8658 12.6269 34.8843 12.6299C35.4093 12.7125 35.5136 12.8073 35.6259 13.0029C35.8471 13.3892 35.628 13.9072 35.2833 14.1493C34.9815 14.3618 34.3074 14.2095 34.1071 14.0736C34.0485 14.0347 33.9907 13.9733 33.9395 13.8961C33.6582 13.4712 33.0854 13.3546 32.6606 13.6359C32.2356 13.9172 32.1192 14.4898 32.4004 14.9149C32.5892 15.2 32.8197 15.4343 33.0781 15.6058C33.4735 15.8743 34.1432 16.1006 34.844 16.1006C35.3601 16.1006 35.893 15.9779 36.3456 15.6588C37.5162 14.8363 37.9037 13.267 37.2272 12.0849C36.4183 10.6767 35.0562 10.9252 34.4862 10.6244C34.1945 10.4634 33.9989 10.1217 34.0215 9.81176C34.0347 9.62731 34.1119 9.48101 34.2573 9.36461C34.622 9.07311 35.053 9.17142 35.3761 9.22089C35.7522 9.27872 36.1075 9.33311 36.3392 9.52309C36.733 9.84596 37.3148 9.78875 37.6379 9.39451C37.961 9.00039 37.9035 8.41887 37.5093 8.09575C36.8919 7.58953 36.2123 7.47424 35.3669 7.34934C34.54 7.22519 33.7148 7.43486 33.104 7.9236C32.5588 8.36005 32.2309 8.98316 32.1806 9.67862C32.1064 10.701 32.6719 11.7281 33.5883 12.2368Z" fill="#F2FBFF"/>
<path d="M46.5167 50.0406C46.1694 50.4826 45.8644 50.982 45.5756 51.5042C45.7829 51.358 45.9883 51.2085 46.1912 51.0558C46.5125 50.8142 46.6312 50.4033 46.5167 50.0406Z" fill="#DFF6FD"/>
</g>
<defs>
<clipPath id="clip0_1294_377">
<rect width="63" height="63" fill="white"/>
</clipPath>
</defs>
</svg>
