<svg width="49" height="49" viewBox="0 0 49 49" fill="none" xmlns="http://www.w3.org/2000/svg">
<g clip-path="url(#clip0_2988_272)">
<path d="M4.38776 49H44.8993C45.8773 48.9986 46.8148 48.6094 47.5064 47.9179C48.1979 47.2263 48.5871 46.2888 48.5885 45.3108V17.0391C48.5871 16.0611 48.1979 15.1236 47.5064 14.432C46.8148 13.7405 45.8773 13.3513 44.8993 13.3499H38.3742V10.6491C38.3742 9.78958 38.0328 8.96523 37.425 8.35744C36.8172 7.74965 35.9928 7.4082 35.1333 7.4082H30.1585V5.51766C30.1585 4.05429 29.5771 2.65085 28.5424 1.61609C27.5076 0.581324 26.1042 0 24.6408 0C23.1774 0 21.774 0.581324 20.7392 1.61609C19.7045 2.65085 19.1231 4.05429 19.1231 5.51766V7.4082H14.1321C13.2726 7.4082 12.4482 7.74965 11.8405 8.35744C11.2327 8.96523 10.8912 9.78958 10.8912 10.6491V13.3499H4.38776C3.40975 13.3513 2.47221 13.7405 1.78065 14.432C1.08909 15.1236 0.699946 16.0611 0.698517 17.0391V45.3054C0.698516 46.2843 1.08703 47.2232 1.77874 47.916C2.47046 48.6087 3.40882 48.9986 4.38776 49ZM21.8293 5.51766C21.8293 4.77058 22.1261 4.05409 22.6544 3.52582C23.1826 2.99755 23.8991 2.70077 24.6462 2.70077C25.3933 2.70077 26.1098 2.99755 26.6381 3.52582C27.1663 4.05409 27.4631 4.77058 27.4631 5.51766V7.4082H21.8293V5.51766ZM13.619 10.6275C13.619 10.4843 13.6759 10.3469 13.7772 10.2456C13.8785 10.1443 14.0159 10.0874 14.1591 10.0874H35.1549C35.2981 10.0874 35.4355 10.1443 35.5368 10.2456C35.6381 10.3469 35.695 10.4843 35.695 10.6275V13.3283H13.6136L13.619 10.6275ZM3.39928 17.0391C3.4007 16.7774 3.5053 16.5268 3.69037 16.3417C3.87544 16.1567 4.12604 16.0521 4.38776 16.0507H44.8993C45.161 16.0521 45.4116 16.1567 45.5966 16.3417C45.7817 16.5268 45.8863 16.7774 45.8877 17.0391V45.3054C45.8863 45.5671 45.7817 45.8177 45.5966 46.0027C45.4116 46.1878 45.161 46.2924 44.8993 46.2938H4.38776C4.12604 46.2924 3.87544 46.1878 3.69037 46.0027C3.5053 45.8177 3.4007 45.5671 3.39928 45.3054V17.0391ZM17.157 31.3154C18.3932 31.3154 19.6017 30.9491 20.6298 30.2627C21.658 29.5764 22.4597 28.6007 22.9337 27.459C23.4078 26.3174 23.5329 25.0608 23.2933 23.848C23.0537 22.6353 22.4601 21.5207 21.5875 20.6451C20.7149 19.7695 19.6024 19.1721 18.3905 18.9283C17.1785 18.6845 15.9216 18.8053 14.7782 19.2754C13.6349 19.7455 12.6565 20.5439 11.9667 21.5696C11.2768 22.5954 10.9063 23.8026 10.902 25.0388C10.8999 25.8618 11.0601 26.6772 11.3734 27.4383C11.6867 28.1993 12.147 28.8911 12.728 29.4741C13.309 30.0571 13.9992 30.5198 14.7592 30.8357C15.5191 31.1517 16.334 31.3147 17.157 31.3154ZM17.157 21.5116C17.8611 21.5116 18.5493 21.7208 19.1344 22.1125C19.7194 22.5043 20.175 23.061 20.4431 23.712C20.7113 24.363 20.7801 25.079 20.6408 25.7692C20.5015 26.4594 20.1603 27.0926 19.6605 27.5886C19.1607 28.0846 18.5249 28.4209 17.8337 28.555C17.1425 28.6891 16.427 28.6148 15.778 28.3417C15.1291 28.0685 14.5759 27.6087 14.1886 27.0207C13.8013 26.4327 13.5974 25.7429 13.6028 25.0388C13.6099 24.1009 13.9875 23.2038 14.6533 22.543C15.3191 21.8823 16.219 21.5116 17.157 21.5116ZM6.65641 41.3514V37.3867C6.65641 35.9541 7.2255 34.5802 8.23848 33.5672C9.25146 32.5543 10.6254 31.9852 12.0579 31.9852H13.5164C13.6938 31.9849 13.8696 32.0195 14.0336 32.0872C14.1977 32.1548 14.3468 32.2542 14.4724 32.3795L17.1732 35.0802L19.874 32.3795C19.9996 32.2542 20.1487 32.1548 20.3127 32.0872C20.4768 32.0195 20.6526 31.9849 20.83 31.9852H22.2884C22.9978 31.9852 23.7002 32.1249 24.3555 32.3963C25.0109 32.6678 25.6063 33.0657 26.1079 33.5672C26.6095 34.0688 27.0074 34.6643 27.2788 35.3196C27.5503 35.975 27.69 36.6774 27.69 37.3867V41.3514C27.69 41.7096 27.5477 42.053 27.2945 42.3063C27.0412 42.5595 26.6977 42.7018 26.3396 42.7018C25.9814 42.7018 25.638 42.5595 25.3847 42.3063C25.1315 42.053 24.9892 41.7096 24.9892 41.3514V37.3867C24.9892 36.6704 24.7047 35.9835 24.1982 35.477C23.6917 34.9705 23.0047 34.6859 22.2884 34.6859H21.3648L18.5506 37.5163C18.368 37.6999 18.1508 37.8455 17.9116 37.9447C17.6724 38.0439 17.4159 38.0948 17.157 38.0943C16.898 38.0951 16.6414 38.0444 16.4022 37.9451C16.163 37.8459 15.9458 37.7002 15.7634 37.5163L12.9492 34.7021H12.0471C11.3308 34.7021 10.6439 34.9867 10.1374 35.4932C9.63091 35.9997 9.34637 36.6866 9.34637 37.4029V41.3514C9.34637 41.7096 9.2041 42.053 8.95085 42.3063C8.69761 42.5595 8.35413 42.7018 7.99599 42.7018C7.63784 42.7018 7.29437 42.5595 7.04112 42.3063C6.78788 42.053 6.6456 41.7096 6.6456 41.3514H6.65641ZM27.4361 24.6067C27.4361 24.2485 27.5784 23.9051 27.8316 23.6518C28.0849 23.3986 28.4283 23.2563 28.7865 23.2563H41.2802C41.6384 23.2563 41.9818 23.3986 42.2351 23.6518C42.4883 23.9051 42.6306 24.2485 42.6306 24.6067C42.6306 24.9648 42.4883 25.3083 42.2351 25.5615C41.9818 25.8148 41.6384 25.9571 41.2802 25.9571H28.7811C28.6024 25.9571 28.4254 25.9216 28.2605 25.8527C28.0956 25.7839 27.9461 25.6829 27.8204 25.5558C27.6948 25.4287 27.5957 25.2779 27.5288 25.1122C27.4619 24.9465 27.4286 24.7692 27.4307 24.5905L27.4361 24.6067ZM27.4361 31.1857C27.4361 30.8276 27.5784 30.4841 27.8316 30.2309C28.0849 29.9776 28.4283 29.8354 28.7865 29.8354H41.2802C41.6384 29.8354 41.9818 29.9776 42.2351 30.2309C42.4883 30.4841 42.6306 30.8276 42.6306 31.1857C42.6306 31.5439 42.4883 31.8874 42.2351 32.1406C41.9818 32.3939 41.6384 32.5361 41.2802 32.5361H28.7811C28.6028 32.5361 28.4264 32.5009 28.2618 32.4323C28.0973 32.3638 27.9479 32.2633 27.8224 32.1368C27.6968 32.0103 27.5976 31.8601 27.5304 31.695C27.4632 31.5299 27.4293 31.3532 27.4307 31.1749L27.4361 31.1857ZM42.6306 37.754C42.6249 38.1084 42.4802 38.4463 42.2275 38.6949C41.9749 38.9435 41.6347 39.0828 41.2802 39.0828H32.9457C32.5875 39.0828 32.244 38.9405 31.9908 38.6873C31.7376 38.434 31.5953 38.0905 31.5953 37.7324C31.5953 37.3743 31.7376 37.0308 31.9908 36.7775C32.244 36.5243 32.5875 36.382 32.9457 36.382H41.2802C41.4594 36.382 41.6368 36.4176 41.802 36.4868C41.9673 36.556 42.1171 36.6575 42.2428 36.7851C42.3685 36.9128 42.4675 37.0643 42.5341 37.2306C42.6007 37.3969 42.6335 37.5749 42.6306 37.754Z" fill="#F4982A"/>
</g>
<defs>
<clipPath id="clip0_2988_272">
<rect width="49" height="49" fill="white"/>
</clipPath>
</defs>
</svg>
