<svg width="50" height="63" viewBox="0 0 50 63" fill="none" xmlns="http://www.w3.org/2000/svg">
<g clip-path="url(#clip0_1372_1106)">
<path d="M12.8168 56.0521L21.5959 34.8582L14.5459 31.9379L4.4312 56.3562C4.00509 57.385 4.96916 58.4452 6.03364 58.1186L11.769 56.3586C11.9392 56.3064 12.1029 56.2905 12.2715 56.3069L12.8168 56.0521Z" fill="#FDB156"/>
<path d="M21.2205 34.7026L12.2715 56.3068C12.7046 56.3454 13.1043 56.5968 13.3183 57.0003L16.1291 62.3004C16.6509 63.2841 18.0823 63.2161 18.5085 62.1874L28.6232 37.769L21.2205 34.7026Z" fill="#DE8418"/>
<path d="M28.8857 34.621L21.286 37.769L31.4007 62.1874C31.8268 63.2162 33.2583 63.2841 33.7801 62.3004L36.591 57.0003C36.6775 56.8371 36.7945 56.6985 36.9317 56.5889L37.6199 55.7191L28.8857 34.621Z" fill="#FDB156"/>
<path d="M45.4779 56.3561L35.3632 31.9377L27.9864 34.9933L36.9322 56.5895C37.2638 56.3246 37.7133 56.2274 38.1401 56.3583L43.8755 58.1184C44.9401 58.4452 45.9042 57.3849 45.4779 56.3561Z" fill="#DE8418"/>
<path d="M27.4944 0.885199C28.5522 1.7245 29.9564 1.98696 31.2461 1.58657C33.0595 1.02338 35.0219 1.78369 35.9826 3.42157C36.6659 4.58633 37.8804 5.33839 39.2276 5.4308C41.1221 5.56074 42.6772 6.97861 42.9815 8.85298C43.1979 10.1859 44.0588 11.3259 45.2817 11.8988C47.0012 12.7043 47.9392 14.5882 47.5458 16.4458C47.266 17.7669 47.657 19.1409 48.5903 20.1168C49.9027 21.4892 50.0969 23.5846 49.059 25.1748C48.3208 26.3056 48.189 27.728 48.7068 28.9752C49.4349 30.729 48.8589 32.7531 47.3167 33.8609C46.22 34.6487 45.5833 35.9275 45.6155 37.2774C45.6609 39.1758 44.3926 40.8551 42.5543 41.3311C41.2471 41.6695 40.1913 42.6319 39.7337 43.9024C39.0903 45.6889 37.301 46.7968 35.4149 46.5765C34.0737 46.4198 32.7416 46.9358 31.8559 47.9552C30.6105 49.3887 28.5419 49.7753 26.8628 48.8886C25.6687 48.258 24.2401 48.258 23.0461 48.8886C21.367 49.7754 19.2983 49.3887 18.053 47.9552C17.1673 46.9358 15.8353 46.4198 14.494 46.5765C12.6079 46.7968 10.8187 45.6889 10.1751 43.9024C9.71753 42.6319 8.66191 41.6695 7.35454 41.3311C5.51622 40.8553 4.24797 39.1758 4.29338 37.2774C4.32561 35.9275 3.68885 34.6487 2.59213 33.8609C1.04986 32.7531 0.473999 30.729 1.20207 28.9752C1.71985 27.728 1.58807 26.3056 0.849908 25.1748C-0.187993 23.5846 0.00617443 21.4892 1.31859 20.1168C2.2519 19.1409 2.64282 17.7669 2.36314 16.4458C1.96976 14.5882 2.90774 12.7042 4.62733 11.8988C5.85017 11.3259 6.711 10.1859 6.92744 8.85298C7.23161 6.97861 8.78693 5.56086 10.6814 5.4308C12.0286 5.33839 13.2431 4.58633 13.9263 3.42157C14.8871 1.78369 16.8496 1.0235 18.6629 1.58657C19.9526 1.98708 21.3568 1.7245 22.4146 0.885199C23.9023 -0.295066 26.0068 -0.295066 27.4944 0.885199Z" fill="#F4982A"/>
<path d="M36.1033 24.6809C36.1033 16.35 30.7289 9.27481 23.2582 6.73204C14.0973 7.58697 6.92682 15.2965 6.92682 24.6809C6.92682 34.0653 14.0973 41.7748 23.2582 42.6297C30.729 40.087 36.1033 33.0119 36.1033 24.6809Z" fill="#FDB156"/>
<path d="M24.9546 6.65315C23.5745 6.65315 22.2308 6.80881 20.9395 7.10252C28.9632 8.92755 34.9521 16.1045 34.9521 24.6808C34.9521 33.257 28.9632 40.434 20.9395 42.259C22.2308 42.5527 23.5745 42.7084 24.9546 42.7084C34.9109 42.7084 42.9822 34.6371 42.9822 24.6808C42.9822 14.7244 34.9109 6.65315 24.9546 6.65315Z" fill="#FCA947"/>
<path d="M25.4512 31.6L31.6733 35.7883C31.9179 35.953 32.1882 35.9772 32.4248 35.9044C32.6447 35.6055 32.8561 35.2999 33.0587 34.9881C33.0539 34.9287 33.0429 34.8679 33.0253 34.8062L30.9648 27.5944C30.8654 27.2463 30.9867 26.8727 31.2718 26.6496L36.0236 22.9298C35.9447 22.0685 35.8081 21.2238 35.6179 20.3996L29.1658 20.1681C28.8041 20.1552 28.4862 19.9243 28.3622 19.5843L25.79 12.5385C25.5056 11.7592 24.4034 11.7592 24.1189 12.5385L21.5469 19.584C21.4227 19.924 21.105 20.155 20.7433 20.1679L13.2477 20.4367C12.4186 20.4665 12.0782 21.5146 12.7313 22.026L18.6373 26.6494C18.9223 26.8725 19.0437 27.246 18.9443 27.5941L16.8838 34.8059C16.6559 35.6036 17.5475 36.2513 18.2357 35.7882L24.4578 31.5999C24.7582 31.398 25.1509 31.398 25.4512 31.6Z" fill="#FED402"/>
<path d="M31.6733 35.7883C32.3615 36.2516 33.2531 35.6038 33.0252 34.806L32.6516 33.4984C32.2506 34.212 31.802 34.8951 31.3109 35.5445L31.6733 35.7883Z" fill="#FED402"/>
<path d="M36.6614 20.4369L34.4298 20.3568C34.7022 21.4632 34.872 22.6098 34.9296 23.7861L37.1778 22.0261C37.8309 21.5149 37.4903 20.4666 36.6614 20.4369Z" fill="#FED402"/>
</g>
<defs>
<clipPath id="clip0_1372_1106">
<rect width="49.9091" height="63.0001" fill="white"/>
</clipPath>
</defs>
</svg>
