<svg width="84" height="64" viewBox="0 0 84 64" fill="none" xmlns="http://www.w3.org/2000/svg">
<g clip-path="url(#clip0_1293_340)">
<path d="M82.1445 16.9688H75.4258C74.8092 16.9688 74.2717 17.3883 74.1222 17.9866L72.7784 23.3616C72.678 23.7631 72.7682 24.1884 73.0228 24.5144C73.2775 24.8406 73.6681 25.0312 74.082 25.0312H82.1445C82.8866 25.0312 83.4883 24.4296 83.4883 23.6875V18.3125C83.4883 17.5704 82.8866 16.9688 82.1445 16.9688Z" fill="#F4982A"/>
<path d="M9.54189 17.9866C9.3924 17.3883 8.85489 16.9688 8.23828 16.9688H1.51953C0.777445 16.9688 0.175781 17.5704 0.175781 18.3125V23.6875C0.175781 24.4296 0.777445 25.0312 1.51953 25.0312H9.58203C9.99574 25.0312 10.3866 24.8406 10.6412 24.5144C10.8959 24.1884 10.9861 23.7629 10.8858 23.3616L9.54189 17.9866Z" fill="#F4982A"/>
<path d="M79.5492 32.2549L74.082 25.0312L67.2086 5.32633C66.2622 2.64521 63.7162 0.84375 60.8728 0.84375H22.7913C19.9481 0.84375 17.4018 2.64522 16.4555 5.3265L9.58203 25.0312L4.11482 32.2547C3.29597 33.401 2.86328 34.7513 2.86328 36.16V51.9062C2.86328 52.6483 3.46495 53.25 4.20703 53.25H79.457C80.1991 53.25 80.8008 52.6483 80.8008 51.9062V36.16C80.8008 34.7513 80.3679 33.4008 79.5492 32.2549Z" fill="#FDB156"/>
<path d="M60.8728 0.84375H22.7913C19.9481 0.84375 17.4018 2.64522 16.4555 5.3265L9.58203 25.0312H74.082L67.2086 5.32633C66.2622 2.64521 63.7162 0.84375 60.8728 0.84375Z" fill="#F4982A"/>
<path d="M14.7242 23.6875C13.797 23.6875 13.1485 22.7707 13.4571 21.8965L18.9896 6.22077C19.5574 4.61196 21.085 3.53108 22.7911 3.53108H60.8728C62.5787 3.53108 64.1065 4.61196 64.6743 6.2206L70.2068 21.8965C70.5154 22.7707 69.8669 23.6875 68.9397 23.6875H14.7242Z" fill="#FDB156"/>
<path d="M68.3076 20.5529L63.4071 6.66823C63.0287 5.59559 62.0103 4.875 60.8728 4.875H22.7913C21.6539 4.875 20.6354 5.59559 20.2569 6.66807L15.3565 20.5529C15.2113 20.9641 15.2748 21.4201 15.5266 21.776C15.7786 22.1321 16.1876 22.3438 16.6236 22.3438H67.0406C67.4768 22.3438 67.8857 22.1321 68.1374 21.776C68.3892 21.4201 68.4527 20.9641 68.3076 20.5529Z" fill="#878493"/>
<path d="M22.7913 4.875C21.6539 4.875 20.6354 5.59559 20.2569 6.66807L15.3565 20.5529C15.2113 20.9641 15.2748 21.4201 15.5266 21.776C15.7786 22.1321 16.1876 22.3438 16.6236 22.3438H37.2863L42.5063 4.875H22.7913Z" fill="#787485"/>
<path d="M66.0195 37.125C61.4985 37.125 57.957 39.486 57.957 42.5C57.957 45.514 61.4985 47.875 66.0195 47.875C70.5406 47.875 74.082 45.514 74.082 42.5C74.082 39.486 70.5406 37.125 66.0195 37.125Z" fill="#F59F3F"/>
<path d="M66.0195 46.5312C62.3148 46.5312 59.3008 44.7227 59.3008 42.5C59.3008 40.2773 62.3148 38.4688 66.0195 38.4688C69.7242 38.4688 72.7383 40.2773 72.7383 42.5C72.7383 44.7227 69.7242 46.5312 66.0195 46.5312Z" fill="#FCDE76"/>
<path d="M60.6445 41.8281C60.6445 40.9846 60.965 40.1929 61.5228 39.5076C60.1594 40.246 59.3008 41.3138 59.3008 42.5C59.3008 44.7227 62.3148 46.5312 66.0195 46.5312C66.2564 46.5312 66.4902 46.5237 66.7206 46.5092C63.3164 46.282 60.6445 44.2695 60.6445 41.8281Z" fill="#FCCF6F"/>
<path d="M17.6445 37.125C13.1235 37.125 9.58203 39.486 9.58203 42.5C9.58203 45.514 13.1235 47.875 17.6445 47.875C22.1656 47.875 25.707 45.514 25.707 42.5C25.707 39.486 22.1656 37.125 17.6445 37.125Z" fill="#F59F3F"/>
<path d="M17.6445 46.5312C13.9398 46.5312 10.9258 44.7227 10.9258 42.5C10.9258 40.2773 13.9398 38.4688 17.6445 38.4688C21.3492 38.4688 24.3633 40.2773 24.3633 42.5C24.3633 44.7227 21.3492 46.5312 17.6445 46.5312Z" fill="#FCDE76"/>
<path d="M12.2695 41.8281C12.2695 40.9846 12.59 40.1929 13.1478 39.5076C11.7844 40.2459 10.9258 41.3138 10.9258 42.5C10.9258 44.7227 13.9398 46.5312 17.6445 46.5312C17.8814 46.5312 18.1152 46.5237 18.3456 46.5092C14.9414 46.282 12.2695 44.2695 12.2695 41.8281Z" fill="#FCCF6F"/>
<path d="M17.6445 55.9375H6.89453C6.15245 55.9375 5.55078 56.5392 5.55078 57.2812V61.3125C5.55078 62.7943 6.75646 64 8.23828 64H16.3008C17.7826 64 18.9883 62.7943 18.9883 61.3125V57.2812C18.9883 56.5392 18.3866 55.9375 17.6445 55.9375Z" fill="#787485"/>
<path d="M76.7695 55.9375H66.0195C65.2774 55.9375 64.6758 56.5392 64.6758 57.2812V61.3125C64.6758 62.7943 65.8815 64 67.3633 64H75.4258C76.9076 64 78.1133 62.7943 78.1133 61.3125V57.2812C78.1133 56.5392 77.5116 55.9375 76.7695 55.9375Z" fill="#787485"/>
<path d="M17.6445 55.9375H6.89453C6.15245 55.9375 5.55078 56.5392 5.55078 57.2812V59.9609C6.70204 60.8214 8.11835 61.3081 9.60353 61.3122C9.6855 61.3123 9.76764 61.3125 9.84961 61.3125C9.92973 61.3125 10.01 61.3123 10.0901 61.3123H18.9883V57.2812C18.9883 56.5392 18.3866 55.9375 17.6445 55.9375Z" fill="#696578"/>
<path d="M76.7695 55.9375H66.0195C65.2774 55.9375 64.6758 56.5392 64.6758 57.2812V61.3122H74.082C74.8921 61.3122 75.6848 61.1691 76.4381 60.8872C77.0472 60.6591 77.6089 60.3453 78.1133 59.9642V57.2812C78.1133 56.5392 77.5116 55.9375 76.7695 55.9375Z" fill="#696578"/>
<path d="M48.5508 34.4375H35.1133C31.4086 34.4375 28.3945 37.4515 28.3945 41.1562V51.9062C28.3945 52.6483 28.9962 53.25 29.7383 53.25H53.9258C54.6679 53.25 55.2695 52.6483 55.2695 51.9062V41.1562C55.2695 37.4515 52.2555 34.4375 48.5508 34.4375Z" fill="#D2D1D6"/>
<path d="M55.2695 41.1562C55.2695 40.6962 55.2228 40.2469 55.1343 39.8125H28.5297C28.4412 40.2469 28.3945 40.6962 28.3945 41.1562V42.5H55.2695V41.1562Z" fill="#9693A0"/>
<path d="M55.2695 45.1875H28.3945V47.875H55.2695V45.1875Z" fill="#9693A0"/>
<path d="M21.6758 35.7812H13.6133C12.8712 35.7812 12.2695 35.1796 12.2695 34.4375C12.2695 33.6954 12.8712 33.0938 13.6133 33.0938H21.6758C22.4179 33.0938 23.0195 33.6954 23.0195 34.4375C23.0195 35.1796 22.4179 35.7812 21.6758 35.7812Z" fill="#F4982A"/>
<path d="M70.0508 35.7812H61.9883C61.2462 35.7812 60.6445 35.1796 60.6445 34.4375C60.6445 33.6954 61.2462 33.0938 61.9883 33.0938H70.0508C70.7929 33.0938 71.3945 33.6954 71.3945 34.4375C71.3945 35.1796 70.7929 35.7812 70.0508 35.7812Z" fill="#F4982A"/>
<path d="M80.4077 50.9566C80.1556 50.7043 79.8136 50.5625 79.457 50.5625H4.20703C3.46495 50.5625 2.86328 51.1642 2.86328 51.9062C2.86328 53.2525 3.28203 54.6032 4.04259 55.7094C5.29396 57.529 7.37274 58.619 9.60353 58.625C9.6855 58.6252 9.76764 58.6253 9.84961 58.6253C9.92973 58.6253 10.01 58.6252 10.0901 58.6252L74.082 58.625C74.8921 58.625 75.6848 58.4819 76.4381 58.2C79.0447 57.2238 80.7978 54.6952 80.8008 51.9076C80.8011 51.551 80.6597 51.209 80.4077 50.9566Z" fill="#F4982A"/>
<path d="M17.6445 43.8438C18.3867 43.8438 18.9883 43.2421 18.9883 42.5C18.9883 41.7579 18.3867 41.1562 17.6445 41.1562C16.9024 41.1562 16.3008 41.7579 16.3008 42.5C16.3008 43.2421 16.9024 43.8438 17.6445 43.8438Z" fill="#FDFAB6"/>
<path d="M66.0195 43.8438C66.7617 43.8438 67.3633 43.2421 67.3633 42.5C67.3633 41.7579 66.7617 41.1562 66.0195 41.1562C65.2774 41.1562 64.6758 41.7579 64.6758 42.5C64.6758 43.2421 65.2774 43.8438 66.0195 43.8438Z" fill="#FDFAB6"/>
</g>
<defs>
<clipPath id="clip0_1293_340">
<rect width="84" height="64" fill="white"/>
</clipPath>
</defs>
</svg>
