<svg width="38" height="39" viewBox="0 0 38 39" fill="none" xmlns="http://www.w3.org/2000/svg">
<g clip-path="url(#clip0_2937_1029)">
<path d="M0.266479 7.45876C0.266479 3.81982 3.21642 0.869873 6.85536 0.869873H37.5437V31.5582C37.5437 35.1972 34.5938 38.1471 30.9548 38.1471H6.85537C3.21643 38.1471 0.266479 35.1972 0.266479 31.5582V7.45876Z" fill="#F4982A"/>
<path fill-rule="evenodd" clip-rule="evenodd" d="M14.2948 8.39205C15.4874 8.33715 15.8676 8.32495 18.9053 8.32495C21.9431 8.32495 22.3233 8.33817 23.5148 8.39205C24.7064 8.44593 25.5197 8.63605 26.2313 8.91156C26.9765 9.19317 27.6526 9.63338 28.2118 10.2027C28.7811 10.7609 29.2203 11.4359 29.5009 12.1821C29.7774 12.8938 29.9665 13.7071 30.0214 14.8966C30.0763 16.0912 30.0885 16.4714 30.0885 19.5081C30.0885 22.5459 30.0753 22.9261 30.0214 24.1187C29.9675 25.3081 29.7774 26.1215 29.5009 26.8331C29.2203 27.5794 28.7804 28.2556 28.2118 28.8146C27.6526 29.3839 26.9765 29.8231 26.2313 30.1037C25.5197 30.3802 24.7064 30.5693 23.5169 30.6242C22.3233 30.6791 21.9431 30.6913 18.9053 30.6913C15.8676 30.6913 15.4874 30.6781 14.2948 30.6242C13.1053 30.5703 12.292 30.3802 11.5804 30.1037C10.8341 29.8231 10.1579 29.3831 9.59891 28.8146C9.02997 28.2561 8.58969 27.5802 8.30878 26.8341C8.03326 26.1225 7.84417 25.3092 7.78927 24.1197C7.73437 22.9251 7.72217 22.5449 7.72217 19.5081C7.72217 16.4704 7.73538 16.0901 7.78927 14.8986C7.84315 13.7071 8.03326 12.8938 8.30878 12.1821C8.59011 11.436 9.03072 10.7602 9.59992 10.2017C10.1581 9.63288 10.8336 9.19261 11.5793 8.91156C12.291 8.63605 13.1043 8.44695 14.2938 8.39205H14.2948ZM23.4244 10.405C22.245 10.3511 21.8912 10.34 18.9053 10.34C15.9194 10.34 15.5656 10.3511 14.3863 10.405C13.2955 10.4548 12.7038 10.6368 12.3093 10.7903C11.7878 10.9937 11.4146 11.2346 11.0232 11.626C10.6522 11.987 10.3667 12.4264 10.1875 12.9121C10.034 13.3065 9.85205 13.8982 9.80224 14.9891C9.74836 16.1684 9.73717 16.5222 9.73717 19.5081C9.73717 22.494 9.74836 22.8478 9.80224 24.0272C9.85205 25.118 10.034 25.7097 10.1875 26.1042C10.3665 26.5891 10.6522 27.0293 11.0232 27.3902C11.3841 27.7613 11.8244 28.047 12.3093 28.2259C12.7038 28.3794 13.2955 28.5614 14.3863 28.6112C15.5656 28.6651 15.9184 28.6763 18.9053 28.6763C21.8923 28.6763 22.245 28.6651 23.4244 28.6112C24.5152 28.5614 25.1069 28.3794 25.5014 28.2259C26.0229 28.0226 26.396 27.7817 26.7874 27.3902C27.1585 27.0293 27.4442 26.5891 27.6231 26.1042C27.7766 25.7097 27.9586 25.118 28.0084 24.0272C28.0623 22.8478 28.0735 22.494 28.0735 19.5081C28.0735 16.5222 28.0623 16.1684 28.0084 14.9891C27.9586 13.8982 27.7766 13.3065 27.6231 12.9121C27.4198 12.3905 27.1789 12.0174 26.7874 11.626C26.4265 11.255 25.987 10.9695 25.5014 10.7903C25.1069 10.6368 24.5152 10.4548 23.4244 10.405V10.405ZM17.4769 22.9556C18.2747 23.2877 19.1629 23.3325 19.99 23.0824C20.8171 22.8323 21.5318 22.3028 22.0118 21.5844C22.4919 20.8659 22.7077 20.0031 22.6223 19.1433C22.5369 18.2834 22.1556 17.4799 21.5436 16.8699C21.1534 16.48 20.6816 16.1815 20.1623 15.9957C19.6429 15.81 19.0888 15.7418 18.5398 15.7959C17.9909 15.8501 17.4608 16.0253 16.9877 16.3089C16.5146 16.5925 16.1103 16.9774 15.8038 17.436C15.4974 17.8947 15.2964 18.4155 15.2154 18.9611C15.1344 19.5067 15.1754 20.0635 15.3354 20.5914C15.4954 21.1193 15.7705 21.6051 16.1408 22.0139C16.5111 22.4227 16.9674 22.7443 17.4769 22.9556ZM14.8408 15.4436C15.3745 14.9098 16.0082 14.4864 16.7056 14.1975C17.403 13.9086 18.1505 13.76 18.9053 13.76C19.6602 13.76 20.4077 13.9086 21.1051 14.1975C21.8025 14.4864 22.4361 14.9098 22.9699 15.4436C23.5037 15.9773 23.9271 16.611 24.216 17.3084C24.5048 18.0058 24.6535 18.7533 24.6535 19.5081C24.6535 20.263 24.5048 21.0105 24.216 21.7079C23.9271 22.4053 23.5037 23.0389 22.9699 23.5727C21.8919 24.6507 20.4299 25.2563 18.9053 25.2563C17.3808 25.2563 15.9188 24.6507 14.8408 23.5727C13.7628 22.4947 13.1572 21.0326 13.1572 19.5081C13.1572 17.9836 13.7628 16.5215 14.8408 15.4436V15.4436ZM25.9284 14.616C26.0606 14.4912 26.1665 14.3412 26.2398 14.1747C26.313 14.0083 26.3521 13.8289 26.3548 13.6471C26.3574 13.4652 26.3236 13.2847 26.2552 13.1162C26.1869 12.9477 26.0854 12.7947 25.9568 12.6661C25.8282 12.5375 25.6752 12.436 25.5067 12.3677C25.3382 12.2993 25.1577 12.2655 24.9758 12.2681C24.794 12.2708 24.6146 12.3099 24.4482 12.3831C24.2817 12.4564 24.1317 12.5623 24.0069 12.6945C23.7642 12.9518 23.6314 13.2935 23.6365 13.6471C23.6417 14.0007 23.7845 14.3383 24.0345 14.5884C24.2846 14.8384 24.6222 14.9812 24.9758 14.9864C25.3294 14.9915 25.6711 14.8587 25.9284 14.616V14.616Z" fill="white"/>
</g>
<defs>
<clipPath id="clip0_2937_1029">
<rect width="37.2772" height="37.2772" fill="white" transform="translate(0.266479 0.869873)"/>
</clipPath>
</defs>
</svg>
