<svg width="263" height="82" viewBox="0 0 263 82" fill="none" xmlns="http://www.w3.org/2000/svg">
<path fill-rule="evenodd" clip-rule="evenodd" d="M40.4056 4.97942C49.8674 4.97942 58.7652 8.66292 65.4552 15.356C65.5433 15.4441 65.6308 15.5325 65.7178 15.6213H72.319C64.926 6.11569 53.3796 0 40.4056 0C27.7986 0 16.5395 5.77463 9.12945 14.823H15.4047C15.566 14.823 15.7269 14.8272 15.8871 14.8357C22.5132 8.47507 31.1891 4.97942 40.4056 4.97942ZM8.09042 25.8413L5.28249 20.4179C1.92075 26.3122 0 33.1347 0 40.4056C0 62.72 18.0912 80.8112 40.4056 80.8112C62.72 80.8112 80.8112 62.72 80.8112 40.4056C80.8112 32.5106 78.5466 25.1443 74.6315 18.9208L71.9125 24.1723C74.4745 29.131 75.8318 34.6644 75.8318 40.4056C75.8318 49.8674 72.1483 58.7651 65.4552 65.4552C58.7652 72.1453 49.8674 75.8318 40.4056 75.8318C30.9438 75.8318 22.0461 72.1483 15.356 65.4552C8.66597 58.7651 4.97943 49.8674 4.97943 40.4056C4.97943 35.3006 6.05171 30.3598 8.09042 25.8413Z" fill="#F4982A"/>
<path d="M49.6539 62.0065H39.1584C35.9811 62.0065 33.0355 60.3386 31.3981 57.6156L7.20837 17.3472H18.1552C21.052 17.3472 23.7353 18.8657 25.2264 21.3478L49.6539 62.0065Z" fill="#498BEA"/>
<path d="M68.4464 62.0065H57.954C54.7766 62.0065 51.8311 60.3386 50.1936 57.6156L26.0039 17.3472H36.9507C39.8475 17.3472 42.5308 18.8657 44.0219 21.3478L68.4464 62.0065Z" fill="#498BEA"/>
<path d="M51.8431 31.4564H60.9787C63.7444 31.4564 66.3088 30.0049 67.7358 27.6326L72.8525 17.75H63.3205C60.7988 17.75 58.46 19.0734 57.1641 21.2353L51.8431 31.4564Z" fill="#F4982A"/>
<path d="M119.879 4.74071L113.552 26.0854H109.59L105.106 9.93102L100.346 26.0854L96.4148 26.1162L90.3645 4.74071H94.0807L98.5032 22.1236L103.294 4.74071H107.225L111.679 22.0315L116.132 4.74071H119.879ZM143.804 17.2097C143.804 17.8444 143.763 18.4177 143.681 18.9296H130.751C130.854 20.2809 131.355 21.3661 132.256 22.185C133.157 23.004 134.263 23.4135 135.573 23.4135C137.457 23.4135 138.788 22.6252 139.566 21.0487H143.343C142.831 22.6048 141.9 23.8844 140.548 24.8877C139.218 25.8705 137.559 26.3619 135.573 26.3619C133.956 26.3619 132.502 26.0036 131.212 25.2869C129.943 24.5499 128.939 23.5261 128.202 22.2158C127.486 20.8849 127.127 19.3493 127.127 17.609C127.127 15.8686 127.475 14.3433 128.172 13.0329C128.888 11.7021 129.881 10.6783 131.151 9.96173C132.44 9.24512 133.915 8.88681 135.573 8.88681C137.17 8.88681 138.593 9.23488 139.842 9.93102C141.091 10.6272 142.064 11.6099 142.76 12.8794C143.456 14.1283 143.804 15.5718 143.804 17.2097ZM140.149 16.1041C140.129 14.8142 139.668 13.7802 138.767 13.0022C137.866 12.2242 136.75 11.8352 135.42 11.8352C134.212 11.8352 133.178 12.2242 132.318 13.0022C131.458 13.7598 130.946 14.7937 130.782 16.1041H140.149ZM165.116 15.367C165.116 13.2786 165.598 11.4052 166.56 9.74675C167.543 8.0883 168.863 6.79841 170.522 5.87705C172.201 4.93522 174.033 4.46431 176.019 4.46431C178.292 4.46431 180.309 5.02736 182.069 6.15346C183.851 7.25908 185.141 8.83563 185.939 10.8831H181.732C181.179 9.75698 180.411 8.91753 179.428 8.36471C178.445 7.8119 177.309 7.53549 176.019 7.53549C174.606 7.53549 173.347 7.85285 172.242 8.48756C171.136 9.12227 170.266 10.0334 169.631 11.2209C169.017 12.4084 168.71 13.7905 168.71 15.367C168.71 16.9436 169.017 18.3256 169.631 19.5131C170.266 20.7006 171.136 21.622 172.242 22.2772C173.347 22.9119 174.606 23.2292 176.019 23.2292C177.309 23.2292 178.445 22.9528 179.428 22.4C180.411 21.8472 181.179 21.0078 181.732 19.8817H185.939C185.141 21.9291 183.851 23.5057 182.069 24.6113C180.309 25.7169 178.292 26.2697 176.019 26.2697C174.013 26.2697 172.18 25.809 170.522 24.8877C168.863 23.9459 167.543 22.6457 166.56 20.9873C165.598 19.3288 165.116 17.4554 165.116 15.367ZM194.398 17.5476C194.398 15.8482 194.746 14.3433 195.442 13.0329C196.159 11.7225 197.121 10.709 198.329 9.99244C199.558 9.25536 200.909 8.88681 202.383 8.88681C203.714 8.88681 204.871 9.15298 205.854 9.68532C206.857 10.1972 207.656 10.8421 208.249 11.6202V9.16322H211.781V26.0854H208.249V23.5671C207.656 24.3656 206.847 25.031 205.823 25.5633C204.799 26.0957 203.632 26.3619 202.322 26.3619C200.868 26.3619 199.537 25.9933 198.329 25.2562C197.121 24.4987 196.159 23.4545 195.442 22.1236C194.746 20.7723 194.398 19.2469 194.398 17.5476ZM208.249 17.609C208.249 16.4419 208.004 15.4284 207.512 14.5685C207.041 13.7086 206.417 13.0534 205.639 12.6029C204.861 12.1525 204.021 11.9273 203.12 11.9273C202.22 11.9273 201.38 12.1525 200.602 12.6029C199.824 13.0329 199.189 13.6779 198.698 14.5378C198.227 15.3773 197.992 16.3805 197.992 17.5476C197.992 18.7146 198.227 19.7383 198.698 20.6187C199.189 21.4991 199.824 22.1748 200.602 22.6457C201.401 23.0962 202.24 23.3214 203.12 23.3214C204.021 23.3214 204.861 23.0962 205.639 22.6457C206.417 22.1953 207.041 21.5401 207.512 20.6802C208.004 19.7998 208.249 18.776 208.249 17.609ZM228.05 26.3619C226.719 26.3619 225.522 26.1264 224.457 25.6555C223.413 25.1641 222.584 24.5089 221.969 23.6899C221.355 22.8505 221.028 21.9189 220.987 20.8951H224.611C224.672 21.6118 225.01 22.2158 225.624 22.7071C226.259 23.1781 227.047 23.4135 227.989 23.4135C228.972 23.4135 229.729 23.2292 230.262 22.8607C230.814 22.4717 231.091 21.9803 231.091 21.3865C231.091 20.7518 230.784 20.2809 230.169 19.9738C229.576 19.6667 228.624 19.3288 227.313 18.9603C226.044 18.6122 225.01 18.2744 224.211 17.9468C223.413 17.6192 222.717 17.1176 222.123 16.4419C221.55 15.7663 221.263 14.8756 221.263 13.77C221.263 12.8691 221.529 12.0501 222.062 11.313C222.594 10.5555 223.351 9.96173 224.334 9.53176C225.337 9.1018 226.484 8.88681 227.774 8.88681C229.699 8.88681 231.244 9.3782 232.411 10.361C233.599 11.3233 234.234 12.6439 234.316 14.3228H230.814C230.753 13.5653 230.446 12.9613 229.893 12.5108C229.34 12.0604 228.593 11.8352 227.651 11.8352C226.73 11.8352 226.023 12.0092 225.532 12.3573C225.041 12.7053 224.795 13.166 224.795 13.7393C224.795 14.1897 224.959 14.5685 225.286 14.8756C225.614 15.1827 226.013 15.4284 226.484 15.6127C226.955 15.7765 227.651 15.9915 228.572 16.2577C229.801 16.5852 230.804 16.9231 231.582 17.2711C232.381 17.5987 233.067 18.0901 233.64 18.7453C234.213 19.4005 234.51 20.2707 234.531 21.3558C234.531 22.3181 234.264 23.1781 233.732 23.9356C233.2 24.6932 232.442 25.2869 231.459 25.7169C230.497 26.1469 229.361 26.3619 228.05 26.3619ZM252.595 8.88681C253.884 8.88681 255.031 9.16322 256.034 9.71603C257.058 10.2688 257.857 11.0878 258.43 12.173C259.024 13.2581 259.32 14.5685 259.32 16.1041V26.0854H255.85V16.6262C255.85 15.1111 255.471 13.9543 254.714 13.1558C253.956 12.3368 252.922 11.9273 251.612 11.9273C250.301 11.9273 249.257 12.3368 248.479 13.1558C247.722 13.9543 247.343 15.1111 247.343 16.6262V26.0854H243.842V3.35868H247.343V11.1288C247.937 10.4122 248.684 9.85936 249.585 9.47034C250.506 9.08132 251.509 8.88681 252.595 8.88681Z" fill="#375177"/>
<path d="M114.201 68.3171H99.811L97.6237 74.9365H85.7663L100.559 34.3565H113.568L128.303 74.9365H116.388L114.201 68.3171ZM111.381 59.6831L107.006 46.5593L102.689 59.6831H111.381ZM165.02 42.6452V74.9365H153.681V70.3317C152.721 71.7899 151.397 72.9795 149.709 73.9004C148.021 74.783 146.083 75.2243 143.895 75.2243C140.135 75.2243 137.161 73.9964 134.974 71.5405C132.825 69.0462 131.75 65.6693 131.75 61.4099V42.6452H142.974V59.9709C142.974 61.8128 143.454 63.271 144.413 64.3454C145.411 65.3815 146.716 65.8996 148.328 65.8996C149.978 65.8996 151.282 65.3815 152.242 64.3454C153.201 63.271 153.681 61.8128 153.681 59.9709V42.6452H165.02ZM190.493 65.324V74.9365H185.6C177.35 74.9365 173.225 70.8497 173.225 62.6762V52.0275H169.253V42.6452H173.225V34.817H184.564V42.6452H190.436V52.0275H184.564V62.8489C184.564 63.7315 184.756 64.3646 185.14 64.7484C185.562 65.1321 186.253 65.324 187.212 65.324H190.493ZM210.691 75.3394C207.468 75.3394 204.57 74.6679 201.999 73.3248C199.467 71.9818 197.471 70.0631 196.013 67.5688C194.555 65.0745 193.826 62.139 193.826 58.7621C193.826 55.4236 194.555 52.5072 196.013 50.0129C197.51 47.5187 199.524 45.6 202.057 44.2569C204.628 42.9138 207.525 42.2423 210.748 42.2423C213.972 42.2423 216.85 42.9138 219.383 44.2569C221.954 45.6 223.968 47.5187 225.426 50.0129C226.923 52.5072 227.671 55.4236 227.671 58.7621C227.671 62.1006 226.923 65.0362 225.426 67.5688C223.968 70.0631 221.954 71.9818 219.383 73.3248C216.811 74.6679 213.914 75.3394 210.691 75.3394ZM210.691 65.5542C212.264 65.5542 213.569 64.9786 214.605 63.8274C215.679 62.6378 216.217 60.9494 216.217 58.7621C216.217 56.5748 215.679 54.9056 214.605 53.7543C213.569 52.6031 212.283 52.0275 210.748 52.0275C209.214 52.0275 207.928 52.6031 206.892 53.7543C205.856 54.9056 205.338 56.5748 205.338 58.7621C205.338 60.9878 205.837 62.6762 206.834 63.8274C207.832 64.9786 209.118 65.5542 210.691 65.5542ZM246.018 75.3394C243.102 75.3394 240.492 74.8598 238.19 73.9004C235.926 72.9027 234.122 71.5597 232.779 69.8712C231.474 68.1444 230.745 66.2066 230.592 64.0576H241.528C241.682 65.0937 242.162 65.8996 242.967 66.4752C243.773 67.0508 244.771 67.3386 245.96 67.3386C246.881 67.3386 247.611 67.1467 248.148 66.763C248.685 66.3792 248.954 65.8804 248.954 65.2664C248.954 64.4606 248.512 63.8658 247.63 63.482C246.747 63.0983 245.289 62.6762 243.255 62.2157C240.953 61.7552 239.034 61.2372 237.499 60.6616C235.964 60.086 234.621 59.1458 233.47 57.8411C232.357 56.5364 231.801 54.7712 231.801 52.5456C231.801 50.6269 232.319 48.9001 233.355 47.3652C234.391 45.7918 235.907 44.5447 237.902 43.6237C239.936 42.7028 242.373 42.2423 245.212 42.2423C249.433 42.2423 252.753 43.2784 255.17 45.3506C257.588 47.4227 258.988 50.1472 259.372 53.5241H249.184C248.992 52.488 248.532 51.7014 247.802 51.1641C247.112 50.5885 246.172 50.3007 244.982 50.3007C244.061 50.3007 243.351 50.4734 242.852 50.8188C242.392 51.1641 242.162 51.6438 242.162 52.2578C242.162 53.0253 242.603 53.62 243.485 54.0422C244.368 54.4259 245.788 54.8288 247.745 55.2509C250.086 55.7498 252.024 56.3062 253.558 56.9202C255.132 57.5341 256.494 58.5319 257.645 59.9133C258.835 61.2564 259.43 63.0983 259.43 65.4391C259.43 67.3194 258.873 69.0078 257.76 70.5044C256.686 72.001 255.132 73.1905 253.098 74.0731C251.103 74.9173 248.743 75.3394 246.018 75.3394Z" fill="#375177"/>
</svg>
