<svg width="60" height="59" viewBox="0 0 60 59" fill="none" xmlns="http://www.w3.org/2000/svg">
<g id="Frame 57">
<g id="Vector">
<path d="M36.6272 20.6771L37.7964 22.0209L35.0302 24.6132L33.5359 22.9728C32.4124 23.4879 31.1689 23.8013 29.8001 23.8013C24.7184 23.8013 20.9086 19.7421 20.9086 15.1454C20.9086 10.5486 24.7184 6.59009 29.8001 6.59009C34.882 6.59009 38.7145 10.5486 38.7145 15.1454C38.7145 17.2282 37.9447 19.1822 36.6272 20.6771ZM29.8001 20.0893C30.148 20.0893 30.496 20.0389 30.8212 19.9661L28.4542 17.3514L31.3173 14.7366L33.9067 17.693C34.3573 16.9818 34.6024 16.0524 34.6024 15.151C34.6024 12.3907 32.5606 10.3078 29.7944 10.3078C27.0568 10.3078 24.9864 12.3851 24.9864 15.151C24.9921 17.788 27.0625 20.0893 29.8001 20.0893Z" fill="url(#paint0_linear_2937_275)"/>
<path d="M34.0667 45.6816H25.8938L24.7703 48.2739H20.4356L27.6847 31.6506H32.2417L39.5136 48.2739H35.1562L34.0667 45.6816ZM32.6466 42.4062L30.0059 36.1969L27.3139 42.4062H32.6466Z" fill="url(#paint1_linear_2937_275)"/>
<path d="M39.9411 26.0913H20.0647V29.4618H39.9411V26.0913Z" fill="url(#paint2_linear_2937_275)"/>
<path d="M0 0V3.3706H0.028517V57.7761H8.19582V54.4055H3.45627V3.3706H56.5665V54.4055H51.8327V57.7761H60V0H0Z" fill="url(#paint3_linear_2937_275)"/>
<path d="M10.2377 53.5092C10.2377 53.487 10.2434 53.4701 10.2605 53.4533C10.2776 53.4366 10.2948 53.4308 10.3176 53.4308H11.7776C12.0913 53.4308 12.3879 53.4868 12.6617 53.6044C12.9354 53.7221 13.175 53.8788 13.3803 54.0748C13.5856 54.2764 13.751 54.506 13.8765 54.7746C14.002 55.0434 14.0647 55.3289 14.0704 55.6313C14.0818 55.9505 14.0191 56.2471 13.8993 56.5271C13.7738 56.807 13.6084 57.0479 13.3917 57.255C13.1807 57.4621 12.9297 57.6246 12.6446 57.7476C12.3594 57.8653 12.0571 57.9268 11.732 57.9268H10.3233C10.3005 57.9268 10.2834 57.9212 10.2662 57.9045C10.2491 57.8877 10.2434 57.8708 10.2434 57.8484V53.5092H10.2377ZM11.0761 57.1149H11.7776C11.9773 57.1149 12.1655 57.0758 12.3423 57.003C12.5191 56.9302 12.6731 56.8239 12.8043 56.6951C12.9354 56.5663 13.0438 56.4152 13.118 56.2416C13.1921 56.068 13.232 55.8833 13.232 55.6873C13.232 55.4912 13.1921 55.3065 13.118 55.1329C13.0438 54.9595 12.9354 54.8083 12.8043 54.6796C12.6731 54.5506 12.5191 54.4443 12.3423 54.3715C12.1655 54.2987 11.9773 54.2596 11.7776 54.2596H11.0761V57.1149Z" fill="url(#paint4_linear_2937_275)"/>
<path d="M16.42 55.6592C16.42 55.3289 16.4827 55.021 16.6082 54.7355C16.7337 54.45 16.8991 54.2036 17.1101 53.9964C17.3211 53.7891 17.5721 53.6268 17.8573 53.5092C18.1481 53.3917 18.4561 53.3357 18.7869 53.3413C19.1063 53.3469 19.4029 53.4028 19.6823 53.5205C19.9619 53.6324 20.2071 53.7891 20.4181 53.9907C20.4524 54.0244 20.4524 54.0579 20.4238 54.0915L20.0075 54.6234C19.996 54.6458 19.9733 54.6571 19.9504 54.6571C19.9277 54.6571 19.9048 54.6514 19.8877 54.6291C19.7508 54.4722 19.5797 54.3434 19.3857 54.2484C19.1919 54.1532 18.9808 54.1083 18.7584 54.1139C18.5532 54.1139 18.3591 54.1587 18.1766 54.2427C17.9942 54.3268 17.8344 54.4442 17.6976 54.5843C17.5607 54.7242 17.458 54.8922 17.3782 55.0825C17.2983 55.2729 17.2584 55.4745 17.2584 55.6872C17.2584 55.9001 17.2983 56.0959 17.3839 56.2864C17.4694 56.4766 17.5778 56.6391 17.7204 56.779C17.8573 56.9191 18.0227 57.031 18.2052 57.1151C18.3877 57.199 18.5872 57.2381 18.7926 57.2381C18.9637 57.2325 19.1235 57.2046 19.2774 57.1431C19.4315 57.0814 19.574 57.003 19.7052 56.8966C19.8364 56.7959 19.9447 56.6727 20.0359 56.5328C20.1272 56.3927 20.1957 56.2415 20.2413 56.0792H18.9637C18.9408 56.0792 18.9238 56.0679 18.9124 56.0513C18.9009 56.0344 18.9009 56.012 18.9181 55.9896L19.3344 55.3848C19.3916 55.3065 19.4656 55.2674 19.5568 55.2674H21.1083C21.1197 55.3402 21.131 55.4128 21.1367 55.4801C21.1424 55.5473 21.1424 55.6201 21.1424 55.6929C21.1367 56.0175 21.074 56.3199 20.9485 56.6054C20.823 56.8855 20.6519 57.1318 20.4352 57.3446C20.2184 57.5518 19.9676 57.7196 19.6766 57.8373C19.3857 57.9549 19.0777 58.0164 18.747 58.0164C18.422 58.0164 18.114 57.9549 17.8287 57.8317C17.5436 57.7085 17.2926 57.5405 17.0873 57.3278C16.8763 57.1151 16.7166 56.8687 16.5968 56.5774C16.4827 56.2975 16.42 55.9896 16.42 55.6592Z" fill="url(#paint5_linear_2937_275)"/>
<path d="M23.4524 53.4986C23.4524 53.4762 23.4581 53.4593 23.4751 53.4426C23.4923 53.4258 23.5094 53.4202 23.5321 53.4202H26.3725C26.4581 53.4202 26.5321 53.4538 26.5893 53.521L27.0741 54.1424C27.0911 54.1648 27.0968 54.1817 27.0854 54.2041C27.0741 54.221 27.0568 54.2321 27.0284 54.2321H25.5684V57.8378C25.5684 57.8882 25.5398 57.9162 25.4885 57.9162H24.8097C24.7584 57.9162 24.73 57.8882 24.73 57.8378V54.2321H23.5264C23.5037 54.2321 23.4865 54.2265 23.4694 54.2097C23.4524 54.1928 23.4465 54.1761 23.4465 54.1537V53.4986H23.4524Z" fill="url(#paint6_linear_2937_275)"/>
<path d="M27.1767 57.8373L30.5417 53.5316C30.5989 53.4646 30.6729 53.4308 30.7584 53.4308H31.3801C31.4314 53.4308 31.46 53.4588 31.46 53.5092V57.8542C31.46 57.9046 31.4314 57.9325 31.3801 57.9325H30.7584C30.6729 57.9325 30.5989 57.8988 30.5417 57.8317L29.4068 56.3816L28.2661 57.8317C28.209 57.8988 28.135 57.9325 28.0494 57.9325H27.2167C27.1938 57.9325 27.1767 57.9212 27.1654 57.9046C27.1538 57.8821 27.1597 57.8597 27.1767 57.8373ZM29.9486 55.6817L30.6216 56.5439V54.8194L29.9486 55.6817Z" fill="url(#paint7_linear_2937_275)"/>
<path d="M32.4752 53.4308H33.1482C33.2054 53.4308 33.2338 53.4588 33.2338 53.5092V57.1149H35.0647C35.0931 57.1149 35.1103 57.1262 35.1216 57.1487C35.133 57.1711 35.133 57.1878 35.116 57.2046L34.6255 57.826C34.5685 57.8933 34.5 57.9268 34.4144 57.9268H32.4696C32.4467 57.9268 32.4296 57.9212 32.4126 57.9045C32.3954 57.8877 32.3897 57.8708 32.3897 57.8484V53.5037C32.3897 53.4812 32.3954 53.4646 32.4126 53.4477C32.4353 53.4421 32.4525 53.4308 32.4752 53.4308Z" fill="url(#paint8_linear_2937_275)"/>
<path d="M37.4715 57.8542V53.5092C37.4715 53.487 37.4772 53.4701 37.4944 53.4533C37.5115 53.4366 37.5287 53.4308 37.5514 53.4308H38.1731C38.2586 53.4308 38.3328 53.4646 38.3898 53.5316L41.7606 57.8373C41.772 57.8597 41.772 57.8764 41.7663 57.8988C41.7548 57.9157 41.7377 57.9268 41.7092 57.9268H40.8766C40.791 57.9268 40.7168 57.8933 40.6599 57.826L39.5248 56.3759L38.3841 57.826C38.3271 57.8933 38.2529 57.9268 38.1674 57.9268H37.5457C37.523 57.9268 37.5058 57.9212 37.4887 57.9045C37.4774 57.8933 37.4715 57.8764 37.4715 57.8542ZM38.3099 54.8194V56.5439L38.9831 55.6817L38.3099 54.8194Z" fill="url(#paint9_linear_2937_275)"/>
<path d="M42.2738 53.5092C42.2738 53.487 42.2794 53.4701 42.2967 53.4533C42.3137 53.4366 42.3307 53.4308 42.3536 53.4308H43.8137C44.1274 53.4308 44.424 53.4868 44.6977 53.6044C44.9715 53.7221 45.2111 53.8788 45.4163 54.0748C45.6217 54.2764 45.7871 54.506 45.9126 54.7746C46.038 55.0434 46.1008 55.3289 46.1065 55.6313C46.1178 55.9505 46.0552 56.2471 45.9354 56.5271C45.8099 56.807 45.6446 57.0479 45.4278 57.255C45.2168 57.4621 44.9658 57.6246 44.6807 57.7476C44.3954 57.8653 44.0931 57.9268 43.7681 57.9268H42.3593C42.3364 57.9268 42.3194 57.9212 42.3023 57.9045C42.2851 57.8877 42.2794 57.8708 42.2794 57.8484V53.5092H42.2738ZM43.1122 57.1149H43.8137C44.0134 57.1149 44.2016 57.0758 44.3784 57.003C44.5552 56.9302 44.7091 56.8239 44.8403 56.6951C44.9715 56.5663 45.0799 56.4152 45.1539 56.2416C45.2281 56.068 45.2681 55.8833 45.2681 55.6873C45.2681 55.4912 45.2281 55.3065 45.1539 55.1329C45.0799 54.9595 44.9715 54.8083 44.8403 54.6796C44.7091 54.5506 44.5552 54.4443 44.3784 54.3715C44.2016 54.2987 44.0134 54.2596 43.8137 54.2596H43.1122V57.1149Z" fill="url(#paint10_linear_2937_275)"/>
<path d="M46.7396 54.7461C46.7396 54.5445 46.7796 54.3598 46.8651 54.1862C46.9507 54.0126 47.0648 53.8672 47.2131 53.744C47.3613 53.6208 47.5267 53.52 47.7264 53.4472C47.9203 53.3744 48.1257 53.3353 48.3424 53.3353C48.6845 53.3353 48.9754 53.3968 49.2321 53.5144C49.483 53.6319 49.6713 53.7664 49.7968 53.9231C49.8252 53.9622 49.8252 53.9959 49.7909 54.0239L49.3404 54.4886C49.3234 54.5054 49.3005 54.5166 49.2777 54.5166C49.2548 54.5166 49.2321 54.5054 49.2149 54.483C49.1751 54.4382 49.1293 54.3991 49.0667 54.3543C49.0097 54.3094 48.9412 54.2702 48.8613 54.2366C48.7873 54.2031 48.7017 54.1694 48.6161 54.1527C48.5306 54.1303 48.4393 54.119 48.3481 54.119C48.2396 54.119 48.137 54.1358 48.0515 54.1694C47.9602 54.2031 47.886 54.2422 47.8234 54.2926C47.7605 54.343 47.7149 54.4047 47.6808 54.4717C47.6466 54.539 47.6293 54.6118 47.6293 54.6902C47.6293 54.8134 47.6693 54.9197 47.7548 55.0094C47.8404 55.0989 47.9602 55.1605 48.1257 55.1941L48.7644 55.3173C48.9754 55.3564 49.1579 55.4181 49.3177 55.502C49.4773 55.5859 49.6085 55.6867 49.7169 55.7988C49.8252 55.9163 49.9051 56.045 49.9621 56.1851C50.0192 56.3307 50.0476 56.4819 50.0476 56.6386C50.0476 56.8122 50.0135 56.9801 49.9393 57.1481C49.8651 57.3162 49.7625 57.4673 49.62 57.5961C49.4773 57.7304 49.3061 57.8368 49.1009 57.9151C48.8956 57.9935 48.6618 58.0328 48.3937 58.0328C48.2056 58.0328 48.0288 58.0159 47.869 57.9768C47.7035 57.9376 47.5553 57.8872 47.4241 57.8257C47.293 57.764 47.1731 57.6969 47.0762 57.6184C46.9736 57.5457 46.8937 57.4673 46.8252 57.3945C46.7968 57.3666 46.7968 57.3328 46.8252 57.2937L47.236 56.773C47.2473 56.7505 47.27 56.7394 47.2929 56.7394C47.3157 56.7394 47.3386 56.745 47.3556 56.7618C47.4185 56.8178 47.4868 56.8737 47.561 56.9297C47.6352 56.9858 47.7149 57.0418 47.8005 57.0864C47.886 57.1313 47.9831 57.1705 48.0801 57.2041C48.1827 57.2321 48.2853 57.2489 48.3994 57.2489C48.6389 57.2489 48.8215 57.1985 48.9469 57.0922C49.0724 56.9914 49.1352 56.8569 49.1352 56.6946C49.1352 56.5658 49.0896 56.4539 48.9925 56.3587C48.9012 56.2635 48.7587 56.1962 48.5762 56.1627L47.9373 56.0339C47.5724 55.9611 47.2757 55.8155 47.0592 55.5917C46.8481 55.3732 46.7396 55.0933 46.7396 54.7461Z" fill="url(#paint11_linear_2937_275)"/>
<path d="M14.9031 53.4308C14.9031 53.4308 15.6616 54.2092 15.6616 54.2203V57.8484C15.6616 57.8988 15.6331 57.9268 15.5761 57.9268H14.9031C14.8803 57.9268 14.8631 57.9212 14.846 57.9045C14.8289 57.8877 14.8232 57.8708 14.8232 57.8484V53.5037C14.8232 53.4812 14.8289 53.4646 14.846 53.4477C14.8631 53.4421 14.8803 53.4308 14.9031 53.4308Z" fill="url(#paint12_linear_2937_275)"/>
<path d="M21.9808 53.4308C21.9808 53.4308 22.7394 54.2092 22.7394 54.2203V57.8484C22.7394 57.8988 22.7109 57.9268 22.654 57.9268H21.9808C21.9581 57.9268 21.9409 57.9212 21.9239 57.9045C21.9068 57.8877 21.901 57.8708 21.901 57.8484V53.5037C21.901 53.4812 21.9068 53.4646 21.9239 53.4477C21.9352 53.4421 21.9581 53.4308 21.9808 53.4308Z" fill="url(#paint13_linear_2937_275)"/>
</g>
</g>
<defs>
<linearGradient id="paint0_linear_2937_275" x1="-13.2203" y1="-13.437" x2="63.4349" y2="63.3574" gradientUnits="userSpaceOnUse">
<stop offset="0.0260417" stop-color="#F4982A"/>
<stop offset="0.180069" stop-color="#F4982A"/>
<stop offset="0.28125" stop-color="#FFC176"/>
<stop offset="0.375" stop-color="#FCD19E"/>
<stop offset="0.526042" stop-color="#FFB65E"/>
<stop offset="0.637635" stop-color="#FCD19E"/>
<stop offset="0.795428" stop-color="#FFC176"/>
<stop offset="0.885712" stop-color="#F4982A"/>
<stop offset="1" stop-color="#F4982A"/>
</linearGradient>
<linearGradient id="paint1_linear_2937_275" x1="-13.2203" y1="-13.437" x2="63.4349" y2="63.3574" gradientUnits="userSpaceOnUse">
<stop offset="0.0260417" stop-color="#F4982A"/>
<stop offset="0.180069" stop-color="#F4982A"/>
<stop offset="0.28125" stop-color="#FFC176"/>
<stop offset="0.375" stop-color="#FCD19E"/>
<stop offset="0.526042" stop-color="#FFB65E"/>
<stop offset="0.637635" stop-color="#FCD19E"/>
<stop offset="0.795428" stop-color="#FFC176"/>
<stop offset="0.885712" stop-color="#F4982A"/>
<stop offset="1" stop-color="#F4982A"/>
</linearGradient>
<linearGradient id="paint2_linear_2937_275" x1="-13.2203" y1="-13.437" x2="63.4349" y2="63.3574" gradientUnits="userSpaceOnUse">
<stop offset="0.0260417" stop-color="#F4982A"/>
<stop offset="0.180069" stop-color="#F4982A"/>
<stop offset="0.28125" stop-color="#FFC176"/>
<stop offset="0.375" stop-color="#FCD19E"/>
<stop offset="0.526042" stop-color="#FFB65E"/>
<stop offset="0.637635" stop-color="#FCD19E"/>
<stop offset="0.795428" stop-color="#FFC176"/>
<stop offset="0.885712" stop-color="#F4982A"/>
<stop offset="1" stop-color="#F4982A"/>
</linearGradient>
<linearGradient id="paint3_linear_2937_275" x1="-13.2203" y1="-13.437" x2="63.4349" y2="63.3574" gradientUnits="userSpaceOnUse">
<stop offset="0.0260417" stop-color="#F4982A"/>
<stop offset="0.180069" stop-color="#F4982A"/>
<stop offset="0.28125" stop-color="#FFC176"/>
<stop offset="0.375" stop-color="#FCD19E"/>
<stop offset="0.526042" stop-color="#FFB65E"/>
<stop offset="0.637635" stop-color="#FCD19E"/>
<stop offset="0.795428" stop-color="#FFC176"/>
<stop offset="0.885712" stop-color="#F4982A"/>
<stop offset="1" stop-color="#F4982A"/>
</linearGradient>
<linearGradient id="paint4_linear_2937_275" x1="-13.2203" y1="-13.437" x2="63.4349" y2="63.3574" gradientUnits="userSpaceOnUse">
<stop offset="0.0260417" stop-color="#F4982A"/>
<stop offset="0.180069" stop-color="#F4982A"/>
<stop offset="0.28125" stop-color="#FFC176"/>
<stop offset="0.375" stop-color="#FCD19E"/>
<stop offset="0.526042" stop-color="#FFB65E"/>
<stop offset="0.637635" stop-color="#FCD19E"/>
<stop offset="0.795428" stop-color="#FFC176"/>
<stop offset="0.885712" stop-color="#F4982A"/>
<stop offset="1" stop-color="#F4982A"/>
</linearGradient>
<linearGradient id="paint5_linear_2937_275" x1="-13.2203" y1="-13.437" x2="63.4349" y2="63.3574" gradientUnits="userSpaceOnUse">
<stop offset="0.0260417" stop-color="#F4982A"/>
<stop offset="0.180069" stop-color="#F4982A"/>
<stop offset="0.28125" stop-color="#FFC176"/>
<stop offset="0.375" stop-color="#FCD19E"/>
<stop offset="0.526042" stop-color="#FFB65E"/>
<stop offset="0.637635" stop-color="#FCD19E"/>
<stop offset="0.795428" stop-color="#FFC176"/>
<stop offset="0.885712" stop-color="#F4982A"/>
<stop offset="1" stop-color="#F4982A"/>
</linearGradient>
<linearGradient id="paint6_linear_2937_275" x1="-13.2203" y1="-13.437" x2="63.4349" y2="63.3574" gradientUnits="userSpaceOnUse">
<stop offset="0.0260417" stop-color="#F4982A"/>
<stop offset="0.180069" stop-color="#F4982A"/>
<stop offset="0.28125" stop-color="#FFC176"/>
<stop offset="0.375" stop-color="#FCD19E"/>
<stop offset="0.526042" stop-color="#FFB65E"/>
<stop offset="0.637635" stop-color="#FCD19E"/>
<stop offset="0.795428" stop-color="#FFC176"/>
<stop offset="0.885712" stop-color="#F4982A"/>
<stop offset="1" stop-color="#F4982A"/>
</linearGradient>
<linearGradient id="paint7_linear_2937_275" x1="-13.2203" y1="-13.437" x2="63.4349" y2="63.3574" gradientUnits="userSpaceOnUse">
<stop offset="0.0260417" stop-color="#F4982A"/>
<stop offset="0.180069" stop-color="#F4982A"/>
<stop offset="0.28125" stop-color="#FFC176"/>
<stop offset="0.375" stop-color="#FCD19E"/>
<stop offset="0.526042" stop-color="#FFB65E"/>
<stop offset="0.637635" stop-color="#FCD19E"/>
<stop offset="0.795428" stop-color="#FFC176"/>
<stop offset="0.885712" stop-color="#F4982A"/>
<stop offset="1" stop-color="#F4982A"/>
</linearGradient>
<linearGradient id="paint8_linear_2937_275" x1="-13.2203" y1="-13.437" x2="63.4349" y2="63.3574" gradientUnits="userSpaceOnUse">
<stop offset="0.0260417" stop-color="#F4982A"/>
<stop offset="0.180069" stop-color="#F4982A"/>
<stop offset="0.28125" stop-color="#FFC176"/>
<stop offset="0.375" stop-color="#FCD19E"/>
<stop offset="0.526042" stop-color="#FFB65E"/>
<stop offset="0.637635" stop-color="#FCD19E"/>
<stop offset="0.795428" stop-color="#FFC176"/>
<stop offset="0.885712" stop-color="#F4982A"/>
<stop offset="1" stop-color="#F4982A"/>
</linearGradient>
<linearGradient id="paint9_linear_2937_275" x1="-13.2203" y1="-13.437" x2="63.4349" y2="63.3574" gradientUnits="userSpaceOnUse">
<stop offset="0.0260417" stop-color="#F4982A"/>
<stop offset="0.180069" stop-color="#F4982A"/>
<stop offset="0.28125" stop-color="#FFC176"/>
<stop offset="0.375" stop-color="#FCD19E"/>
<stop offset="0.526042" stop-color="#FFB65E"/>
<stop offset="0.637635" stop-color="#FCD19E"/>
<stop offset="0.795428" stop-color="#FFC176"/>
<stop offset="0.885712" stop-color="#F4982A"/>
<stop offset="1" stop-color="#F4982A"/>
</linearGradient>
<linearGradient id="paint10_linear_2937_275" x1="-13.2203" y1="-13.437" x2="63.4349" y2="63.3574" gradientUnits="userSpaceOnUse">
<stop offset="0.0260417" stop-color="#F4982A"/>
<stop offset="0.180069" stop-color="#F4982A"/>
<stop offset="0.28125" stop-color="#FFC176"/>
<stop offset="0.375" stop-color="#FCD19E"/>
<stop offset="0.526042" stop-color="#FFB65E"/>
<stop offset="0.637635" stop-color="#FCD19E"/>
<stop offset="0.795428" stop-color="#FFC176"/>
<stop offset="0.885712" stop-color="#F4982A"/>
<stop offset="1" stop-color="#F4982A"/>
</linearGradient>
<linearGradient id="paint11_linear_2937_275" x1="-13.2203" y1="-13.437" x2="63.4349" y2="63.3574" gradientUnits="userSpaceOnUse">
<stop offset="0.0260417" stop-color="#F4982A"/>
<stop offset="0.180069" stop-color="#F4982A"/>
<stop offset="0.28125" stop-color="#FFC176"/>
<stop offset="0.375" stop-color="#FCD19E"/>
<stop offset="0.526042" stop-color="#FFB65E"/>
<stop offset="0.637635" stop-color="#FCD19E"/>
<stop offset="0.795428" stop-color="#FFC176"/>
<stop offset="0.885712" stop-color="#F4982A"/>
<stop offset="1" stop-color="#F4982A"/>
</linearGradient>
<linearGradient id="paint12_linear_2937_275" x1="-13.2203" y1="-13.437" x2="63.4349" y2="63.3574" gradientUnits="userSpaceOnUse">
<stop offset="0.0260417" stop-color="#F4982A"/>
<stop offset="0.180069" stop-color="#F4982A"/>
<stop offset="0.28125" stop-color="#FFC176"/>
<stop offset="0.375" stop-color="#FCD19E"/>
<stop offset="0.526042" stop-color="#FFB65E"/>
<stop offset="0.637635" stop-color="#FCD19E"/>
<stop offset="0.795428" stop-color="#FFC176"/>
<stop offset="0.885712" stop-color="#F4982A"/>
<stop offset="1" stop-color="#F4982A"/>
</linearGradient>
<linearGradient id="paint13_linear_2937_275" x1="-13.2203" y1="-13.437" x2="63.4349" y2="63.3574" gradientUnits="userSpaceOnUse">
<stop offset="0.0260417" stop-color="#F4982A"/>
<stop offset="0.180069" stop-color="#F4982A"/>
<stop offset="0.28125" stop-color="#FFC176"/>
<stop offset="0.375" stop-color="#FCD19E"/>
<stop offset="0.526042" stop-color="#FFB65E"/>
<stop offset="0.637635" stop-color="#FCD19E"/>
<stop offset="0.795428" stop-color="#FFC176"/>
<stop offset="0.885712" stop-color="#F4982A"/>
<stop offset="1" stop-color="#F4982A"/>
</linearGradient>
</defs>
</svg>
