<svg width="56" height="56" viewBox="0 0 56 56" fill="none" xmlns="http://www.w3.org/2000/svg">
<path fill-rule="evenodd" clip-rule="evenodd" d="M27.7518 3.6351C34.2505 3.6351 40.3617 6.16504 44.9566 10.7621C45.0171 10.8225 45.0772 10.8832 45.1369 10.9442H49.6708C44.5931 4.41549 36.6627 0.215088 27.7518 0.215088C19.0929 0.215088 11.3599 4.18129 6.27041 10.396H10.5805C10.6912 10.396 10.8017 10.3989 10.9118 10.4047C15.4628 6.03603 21.4216 3.6351 27.7518 3.6351ZM5.55679 17.9637L3.62822 14.2387C1.31928 18.2871 6.10352e-05 22.973 6.10352e-05 27.9669C6.10352e-05 43.2931 12.4256 55.7187 27.7518 55.7187C43.078 55.7187 55.5036 43.2931 55.5036 27.9669C55.5036 22.5443 53.9482 17.4849 51.2592 13.2104L49.3917 16.8173C51.1514 20.2231 52.0836 24.0236 52.0836 27.9669C52.0836 34.4655 49.5537 40.5767 44.9566 45.1717C40.3617 49.7666 34.2505 52.2986 27.7518 52.2986C21.2532 52.2986 15.142 49.7687 10.547 45.1717C5.95211 40.5767 3.42008 34.4655 3.42008 27.9669C3.42008 24.4606 4.15655 21.0671 5.55679 17.9637Z" fill="#F4982A"/>
<path d="M34.1039 42.803H26.8952C24.713 42.803 22.6898 41.6574 21.5652 39.7872L4.95099 12.1296H12.4696C14.4592 12.1296 16.3022 13.1726 17.3263 14.8774L34.1039 42.803Z" fill="#498BEA"/>
<path d="M47.0111 42.803H39.8045C37.6223 42.803 35.5991 41.6574 34.4745 39.7872L17.8603 12.1296H25.3789C27.3685 12.1296 29.2115 13.1726 30.2356 14.8774L47.0111 42.803Z" fill="#498BEA"/>
<path d="M35.6075 21.8202H41.8821C43.7816 21.8202 45.5429 20.8233 46.5231 19.1939L50.0373 12.4062H43.4905C41.7585 12.4062 40.1521 13.3152 39.2621 14.8001L35.6075 21.8202Z" fill="#F4982A"/>
</svg>
